<svg width="62" height="35" viewBox="0 0 62 35" fill="none" xmlns="http://www.w3.org/2000/svg">
<path d="M0.407 25.63C0.407 24.882 0.579333 24.211 0.924 23.617C1.276 23.023 1.749 22.561 2.343 22.231C2.94433 21.8937 3.60067 21.725 4.312 21.725C5.126 21.725 5.84833 21.9267 6.479 22.33C7.117 22.726 7.579 23.2907 7.865 24.024H6.358C6.16 23.6207 5.885 23.32 5.533 23.122C5.181 22.924 4.774 22.825 4.312 22.825C3.806 22.825 3.355 22.9387 2.959 23.166C2.563 23.3933 2.25133 23.7197 2.024 24.145C1.804 24.5703 1.694 25.0653 1.694 25.63C1.694 26.1947 1.804 26.6897 2.024 27.115C2.25133 27.5403 2.563 27.8703 2.959 28.105C3.355 28.3323 3.806 28.446 4.312 28.446C4.774 28.446 5.181 28.347 5.533 28.149C5.885 27.951 6.16 27.6503 6.358 27.247H7.865C7.579 27.9803 7.117 28.545 6.479 28.941C5.84833 29.337 5.126 29.535 4.312 29.535C3.59333 29.535 2.937 29.37 2.343 29.04C1.749 28.7027 1.276 28.237 0.924 27.643C0.579333 27.049 0.407 26.378 0.407 25.63ZM11.9618 29.568C11.3898 29.568 10.8728 29.4397 10.4108 29.183C9.94881 28.919 9.58581 28.5523 9.32181 28.083C9.05781 27.6063 8.92581 27.0563 8.92581 26.433C8.92581 25.817 9.06148 25.2707 9.33281 24.794C9.60415 24.3173 9.97448 23.9507 10.4438 23.694C10.9131 23.4373 11.4375 23.309 12.0168 23.309C12.5961 23.309 13.1205 23.4373 13.5898 23.694C14.0591 23.9507 14.4295 24.3173 14.7008 24.794C14.9721 25.2707 15.1078 25.817 15.1078 26.433C15.1078 27.049 14.9685 27.5953 14.6898 28.072C14.4111 28.5487 14.0298 28.919 13.5458 29.183C13.0691 29.4397 12.5411 29.568 11.9618 29.568ZM11.9618 28.479C12.2845 28.479 12.5851 28.402 12.8638 28.248C13.1498 28.094 13.3808 27.863 13.5568 27.555C13.7328 27.247 13.8208 26.873 13.8208 26.433C13.8208 25.993 13.7365 25.6227 13.5678 25.322C13.3991 25.014 13.1755 24.783 12.8968 24.629C12.6181 24.475 12.3175 24.398 11.9948 24.398C11.6721 24.398 11.3715 24.475 11.0928 24.629C10.8215 24.783 10.6051 25.014 10.4438 25.322C10.2825 25.6227 10.2018 25.993 10.2018 26.433C10.2018 27.0857 10.3668 27.5917 10.6968 27.951C11.0341 28.303 11.4558 28.479 11.9618 28.479ZM17.6015 21.329V29.469H16.3475V21.329H17.6015ZM20.5019 21.329V29.469H19.2479V21.329H20.5019ZM27.7032 26.29C27.7032 26.5173 27.6886 26.7227 27.6592 26.906H23.0282C23.0649 27.39 23.2446 27.7787 23.5672 28.072C23.8899 28.3653 24.2859 28.512 24.7552 28.512C25.4299 28.512 25.9066 28.2297 26.1852 27.665H27.5382C27.3549 28.2223 27.0212 28.6807 26.5372 29.04C26.0606 29.392 25.4666 29.568 24.7552 29.568C24.1759 29.568 23.6552 29.4397 23.1932 29.183C22.7386 28.919 22.3792 28.5523 22.1152 28.083C21.8586 27.6063 21.7302 27.0563 21.7302 26.433C21.7302 25.8097 21.8549 25.2633 22.1042 24.794C22.3609 24.3173 22.7166 23.9507 23.1712 23.694C23.6332 23.4373 24.1612 23.309 24.7552 23.309C25.3272 23.309 25.8369 23.4337 26.2842 23.683C26.7316 23.9323 27.0799 24.2843 27.3292 24.739C27.5786 25.1863 27.7032 25.7033 27.7032 26.29ZM26.3942 25.894C26.3869 25.432 26.2219 25.0617 25.8992 24.783C25.5766 24.5043 25.1769 24.365 24.7002 24.365C24.2676 24.365 23.8972 24.5043 23.5892 24.783C23.2812 25.0543 23.0979 25.4247 23.0392 25.894H26.3942ZM28.5193 26.433C28.5193 25.8097 28.644 25.2633 28.8933 24.794C29.15 24.3173 29.502 23.9507 29.9493 23.694C30.3966 23.4373 30.91 23.309 31.4893 23.309C32.2226 23.309 32.8276 23.485 33.3043 23.837C33.7883 24.1817 34.1146 24.6767 34.2833 25.322H32.9303C32.8203 25.0213 32.6443 24.7867 32.4023 24.618C32.1603 24.4493 31.856 24.365 31.4893 24.365C30.976 24.365 30.5653 24.5483 30.2573 24.915C29.9566 25.2743 29.8063 25.7803 29.8063 26.433C29.8063 27.0857 29.9566 27.5953 30.2573 27.962C30.5653 28.3287 30.976 28.512 31.4893 28.512C32.2153 28.512 32.6956 28.193 32.9303 27.555H34.2833C34.1073 28.171 33.7773 28.6623 33.2933 29.029C32.8093 29.3883 32.208 29.568 31.4893 29.568C30.91 29.568 30.3966 29.4397 29.9493 29.183C29.502 28.919 29.15 28.5523 28.8933 28.083C28.644 27.6063 28.5193 27.0563 28.5193 26.433ZM36.996 24.431V27.786C36.996 28.0133 37.0473 28.1783 37.15 28.281C37.26 28.3763 37.4433 28.424 37.7 28.424H38.47V29.469H37.48C36.9153 29.469 36.4827 29.337 36.182 29.073C35.8813 28.809 35.731 28.38 35.731 27.786V24.431H35.016V23.408H35.731V21.901H36.996V23.408H38.47V24.431H36.996ZM40.2638 22.605C40.0364 22.605 39.8458 22.528 39.6918 22.374C39.5378 22.22 39.4608 22.0293 39.4608 21.802C39.4608 21.5747 39.5378 21.384 39.6918 21.23C39.8458 21.076 40.0364 20.999 40.2638 20.999C40.4838 20.999 40.6708 21.076 40.8248 21.23C40.9788 21.384 41.0558 21.5747 41.0558 21.802C41.0558 22.0293 40.9788 22.22 40.8248 22.374C40.6708 22.528 40.4838 22.605 40.2638 22.605ZM40.8798 23.408V29.469H39.6258V23.408H40.8798ZM45.1552 29.568C44.5832 29.568 44.0662 29.4397 43.6042 29.183C43.1422 28.919 42.7792 28.5523 42.5152 28.083C42.2512 27.6063 42.1192 27.0563 42.1192 26.433C42.1192 25.817 42.2548 25.2707 42.5262 24.794C42.7975 24.3173 43.1678 23.9507 43.6372 23.694C44.1065 23.4373 44.6308 23.309 45.2102 23.309C45.7895 23.309 46.3138 23.4373 46.7832 23.694C47.2525 23.9507 47.6228 24.3173 47.8942 24.794C48.1655 25.2707 48.3012 25.817 48.3012 26.433C48.3012 27.049 48.1618 27.5953 47.8832 28.072C47.6045 28.5487 47.2232 28.919 46.7392 29.183C46.2625 29.4397 45.7345 29.568 45.1552 29.568ZM45.1552 28.479C45.4778 28.479 45.7785 28.402 46.0572 28.248C46.3432 28.094 46.5742 27.863 46.7502 27.555C46.9262 27.247 47.0142 26.873 47.0142 26.433C47.0142 25.993 46.9298 25.6227 46.7612 25.322C46.5925 25.014 46.3688 24.783 46.0902 24.629C45.8115 24.475 45.5108 24.398 45.1882 24.398C44.8655 24.398 44.5648 24.475 44.2862 24.629C44.0148 24.783 43.7985 25.014 43.6372 25.322C43.4758 25.6227 43.3952 25.993 43.3952 26.433C43.3952 27.0857 43.5602 27.5917 43.8902 27.951C44.2275 28.303 44.6492 28.479 45.1552 28.479ZM52.5988 23.309C53.0755 23.309 53.5008 23.408 53.8748 23.606C54.2562 23.804 54.5532 24.0973 54.7658 24.486C54.9785 24.8747 55.0848 25.344 55.0848 25.894V29.469H53.8418V26.081C53.8418 25.5383 53.7062 25.124 53.4348 24.838C53.1635 24.5447 52.7932 24.398 52.3238 24.398C51.8545 24.398 51.4805 24.5447 51.2018 24.838C50.9305 25.124 50.7948 25.5383 50.7948 26.081V29.469H49.5408V23.408H50.7948V24.101C51.0002 23.8517 51.2605 23.6573 51.5758 23.518C51.8985 23.3787 52.2395 23.309 52.5988 23.309ZM58.8844 29.568C58.4077 29.568 57.9787 29.4837 57.5974 29.315C57.2234 29.139 56.9264 28.9043 56.7064 28.611C56.4864 28.3103 56.369 27.9767 56.3544 27.61H57.6524C57.6744 27.8667 57.7954 28.083 58.0154 28.259C58.2427 28.4277 58.525 28.512 58.8624 28.512C59.2144 28.512 59.4857 28.446 59.6764 28.314C59.8744 28.1747 59.9734 27.9987 59.9734 27.786C59.9734 27.5587 59.8634 27.39 59.6434 27.28C59.4307 27.17 59.0897 27.049 58.6204 26.917C58.1657 26.7923 57.7954 26.6713 57.5094 26.554C57.2234 26.4367 56.974 26.257 56.7614 26.015C56.556 25.773 56.4534 25.454 56.4534 25.058C56.4534 24.7353 56.5487 24.442 56.7394 24.178C56.93 23.9067 57.2014 23.694 57.5534 23.54C57.9127 23.386 58.3234 23.309 58.7854 23.309C59.4747 23.309 60.0284 23.485 60.4464 23.837C60.8717 24.1817 61.099 24.6547 61.1284 25.256H59.8744C59.8524 24.9847 59.7424 24.7683 59.5444 24.607C59.3464 24.4457 59.0787 24.365 58.7414 24.365C58.4114 24.365 58.1584 24.4273 57.9824 24.552C57.8064 24.6767 57.7184 24.8417 57.7184 25.047C57.7184 25.2083 57.777 25.344 57.8944 25.454C58.0117 25.564 58.1547 25.652 58.3234 25.718C58.492 25.7767 58.7414 25.8537 59.0714 25.949C59.5114 26.0663 59.8707 26.1873 60.1494 26.312C60.4354 26.4293 60.681 26.6053 60.8864 26.84C61.0917 27.0747 61.198 27.3863 61.2054 27.775C61.2054 28.1197 61.11 28.4277 60.9194 28.699C60.7287 28.9703 60.4574 29.183 60.1054 29.337C59.7607 29.491 59.3537 29.568 58.8844 29.568Z" fill="#154A4F"/>
<path d="M27.4532 9.23233V2.63214H20.2522C19.8251 2.63214 19.4022 2.71626 19.0076 2.8797C18.6131 3.04313 18.2545 3.28269 17.9525 3.58468C17.6505 3.88667 17.411 4.2452 17.2476 4.63977C17.0841 5.03434 17 5.45724 17 5.88433C17 6.31141 17.0841 6.73431 17.2476 7.12888C17.411 7.52345 17.6505 7.88197 17.9525 8.18396C18.2545 8.48596 18.6131 8.72551 19.0076 8.88895C19.4022 9.05238 19.8251 9.1365 20.2522 9.1365H21.0661V9.95039C21.0661 10.5974 21.3231 11.2178 21.7806 11.6753C22.238 12.1328 22.8585 12.3898 23.5055 12.3898H28.3843C28.4553 12.3898 28.5252 12.3898 28.5951 12.3808C27.8569 11.4978 27.4527 10.3833 27.4532 9.23233ZM21.0649 7.51098H20.2511C19.8196 7.51098 19.4059 7.3396 19.1008 7.03454C18.7958 6.72949 18.6244 6.31574 18.6244 5.88433C18.6244 5.45291 18.7958 5.03916 19.1008 4.73411C19.4059 4.42905 19.8196 4.25767 20.2511 4.25767H21.0649V7.51098Z" fill="#FB7454"/>
<path d="M41.196 0H28.9888C28.8852 0.00547779 28.7837 0.0313221 28.6901 0.0760534C28.5966 0.120785 28.5127 0.183527 28.4434 0.260689C28.3741 0.337852 28.3207 0.42792 28.2862 0.525745C28.2517 0.62357 28.2369 0.727232 28.2425 0.830799V10.0215C28.2344 10.8881 28.5445 11.7275 29.1139 12.3808C29.3767 12.6857 29.7014 12.931 30.0665 13.1005C30.4315 13.27 30.8285 13.3598 31.2309 13.3638H37.2055C38.0457 13.3167 38.8329 12.9384 39.3947 12.3119C39.9566 11.6854 40.2472 10.8618 40.2029 10.0215V8.90771H41.1994C42.3171 8.84196 43.3635 8.33673 44.1101 7.5023C44.8566 6.66787 45.2428 5.57199 45.1843 4.45385C45.2428 3.33517 44.8561 2.2388 44.1089 1.40428C43.3616 0.56975 42.3143 0.0648935 41.196 0ZM41.196 6.68135H40.2029V2.22749H41.1994C41.7468 2.28917 42.2524 2.55034 42.6195 2.96112C42.9866 3.3719 43.1895 3.90351 43.1895 4.45442C43.1895 5.00533 42.9866 5.53693 42.6195 5.94771C42.2524 6.35849 41.7468 6.61966 41.1994 6.68135H41.196Z" fill="#FB7454"/>
</svg>
