<svg width="33" height="35" viewBox="0 0 33 35" fill="none" xmlns="http://www.w3.org/2000/svg">
<path d="M6.93 22.355V30H5.676V26.656H2.079V30H0.825V22.355H2.079V25.633H5.676V22.355H6.93ZM11.2099 30.099C10.6379 30.099 10.1209 29.9707 9.65886 29.714C9.19686 29.45 8.83386 29.0833 8.56986 28.614C8.30586 28.1373 8.17386 27.5873 8.17386 26.964C8.17386 26.348 8.30953 25.8017 8.58086 25.325C8.85219 24.8483 9.22253 24.4817 9.69186 24.225C10.1612 23.9683 10.6855 23.84 11.2649 23.84C11.8442 23.84 12.3685 23.9683 12.8379 24.225C13.3072 24.4817 13.6775 24.8483 13.9489 25.325C14.2202 25.8017 14.3559 26.348 14.3559 26.964C14.3559 27.58 14.2165 28.1263 13.9379 28.603C13.6592 29.0797 13.2779 29.45 12.7939 29.714C12.3172 29.9707 11.7892 30.099 11.2099 30.099ZM11.2099 29.01C11.5325 29.01 11.8332 28.933 12.1119 28.779C12.3979 28.625 12.6289 28.394 12.8049 28.086C12.9809 27.778 13.0689 27.404 13.0689 26.964C13.0689 26.524 12.9845 26.1537 12.8159 25.853C12.6472 25.545 12.4235 25.314 12.1449 25.16C11.8662 25.006 11.5655 24.929 11.2429 24.929C10.9202 24.929 10.6195 25.006 10.3409 25.16C10.0695 25.314 9.85319 25.545 9.69186 25.853C9.53053 26.1537 9.44986 26.524 9.44986 26.964C9.44986 27.6167 9.61486 28.1227 9.94486 28.482C10.2822 28.834 10.7039 29.01 11.2099 29.01ZM22.9325 23.84C23.4092 23.84 23.8345 23.939 24.2085 24.137C24.5898 24.335 24.8868 24.6283 25.0995 25.017C25.3195 25.4057 25.4295 25.875 25.4295 26.425V30H24.1865V26.612C24.1865 26.0693 24.0508 25.655 23.7795 25.369C23.5082 25.0757 23.1378 24.929 22.6685 24.929C22.1992 24.929 21.8252 25.0757 21.5465 25.369C21.2752 25.655 21.1395 26.0693 21.1395 26.612V30H19.8965V26.612C19.8965 26.0693 19.7608 25.655 19.4895 25.369C19.2182 25.0757 18.8478 24.929 18.3785 24.929C17.9092 24.929 17.5352 25.0757 17.2565 25.369C16.9852 25.655 16.8495 26.0693 16.8495 26.612V30H15.5955V23.939H16.8495V24.632C17.0548 24.3827 17.3152 24.1883 17.6305 24.049C17.9458 23.9097 18.2832 23.84 18.6425 23.84C19.1265 23.84 19.5592 23.9427 19.9405 24.148C20.3218 24.3533 20.6152 24.6503 20.8205 25.039C21.0038 24.6723 21.2898 24.3827 21.6785 24.17C22.0672 23.95 22.4852 23.84 22.9325 23.84ZM32.5802 26.821C32.5802 27.0483 32.5655 27.2537 32.5362 27.437H27.9052C27.9419 27.921 28.1215 28.3097 28.4442 28.603C28.7669 28.8963 29.1629 29.043 29.6322 29.043C30.3069 29.043 30.7835 28.7607 31.0622 28.196H32.4152C32.2319 28.7533 31.8982 29.2117 31.4142 29.571C30.9375 29.923 30.3435 30.099 29.6322 30.099C29.0529 30.099 28.5322 29.9707 28.0702 29.714C27.6155 29.45 27.2562 29.0833 26.9922 28.614C26.7355 28.1373 26.6072 27.5873 26.6072 26.964C26.6072 26.3407 26.7319 25.7943 26.9812 25.325C27.2379 24.8483 27.5935 24.4817 28.0482 24.225C28.5102 23.9683 29.0382 23.84 29.6322 23.84C30.2042 23.84 30.7139 23.9647 31.1612 24.214C31.6085 24.4633 31.9569 24.8153 32.2062 25.27C32.4555 25.7173 32.5802 26.2343 32.5802 26.821ZM31.2712 26.425C31.2639 25.963 31.0989 25.5927 30.7762 25.314C30.4535 25.0353 30.0539 24.896 29.5772 24.896C29.1445 24.896 28.7742 25.0353 28.4662 25.314C28.1582 25.5853 27.9749 25.9557 27.9162 26.425H31.2712Z" fill="#154A4F"/>
<path d="M16.0006 3.145L9.93016 8.41367C9.88189 8.44747 9.83131 8.47796 9.77878 8.50492V13.5622C9.77878 13.6783 9.82564 13.7897 9.90905 13.8718C9.99245 13.9539 10.1056 14 10.2235 14H13.7792C13.8972 14 14.0103 13.9539 14.0937 13.8718C14.1771 13.7897 14.224 13.6783 14.224 13.5622V10.0609C14.224 9.94481 14.2708 9.83345 14.3542 9.75135C14.4377 9.66924 14.5508 9.62312 14.6687 9.62312H17.3337C17.4517 9.62312 17.5648 9.66924 17.6482 9.75135C17.7316 9.83345 17.7785 9.94481 17.7785 10.0609V13.561C17.7785 13.6772 17.8253 13.7885 17.9088 13.8706C17.9922 13.9527 18.1053 13.9988 18.2232 13.9988H21.7789C21.8969 13.9988 22.01 13.9527 22.0934 13.8706C22.1768 13.7885 22.2237 13.6772 22.2237 13.561V8.50608C22.1729 8.48005 22.1239 8.45072 22.077 8.41829L16.0006 3.145ZM23.8537 6.4603L16.7435 0.281369C16.54 0.100272 16.2755 0 16.0012 0C15.7269 0 15.4624 0.100272 15.259 0.281369L8.14762 6.4603C8.0599 6.53783 8.00703 6.64648 8.00065 6.76237C7.99427 6.87825 8.03489 6.99189 8.11359 7.07831L8.70855 7.72981C8.78732 7.81617 8.89769 7.86821 9.01542 7.87449C9.13315 7.88077 9.24859 7.84078 9.33637 7.76331L15.7061 2.23243C15.7872 2.16233 15.8915 2.12367 15.9995 2.12367C16.1074 2.12367 16.2117 2.16233 16.2928 2.23243L22.6626 7.76331C22.7504 7.84078 22.8658 7.88077 22.9835 7.87449C23.1013 7.86821 23.2116 7.81617 23.2904 7.72981L23.8854 7.07831C23.9643 6.99219 24.0054 6.87873 23.9994 6.76285C23.9935 6.64697 23.9411 6.53815 23.8537 6.4603Z" fill="#FB7454"/>
</svg>
