<svg width="37" height="35" viewBox="0 0 37 35" fill="none" xmlns="http://www.w3.org/2000/svg">
<path d="M0.407 26.161C0.407 25.413 0.579333 24.742 0.924 24.148C1.276 23.554 1.749 23.092 2.343 22.762C2.94433 22.4247 3.60067 22.256 4.312 22.256C5.126 22.256 5.84833 22.4577 6.479 22.861C7.117 23.257 7.579 23.8217 7.865 24.555H6.358C6.16 24.1517 5.885 23.851 5.533 23.653C5.181 23.455 4.774 23.356 4.312 23.356C3.806 23.356 3.355 23.4697 2.959 23.697C2.563 23.9243 2.25133 24.2507 2.024 24.676C1.804 25.1013 1.694 25.5963 1.694 26.161C1.694 26.7257 1.804 27.2207 2.024 27.646C2.25133 28.0713 2.563 28.4013 2.959 28.636C3.355 28.8633 3.806 28.977 4.312 28.977C4.774 28.977 5.181 28.878 5.533 28.68C5.885 28.482 6.16 28.1813 6.358 27.778H7.865C7.579 28.5113 7.117 29.076 6.479 29.472C5.84833 29.868 5.126 30.066 4.312 30.066C3.59333 30.066 2.937 29.901 2.343 29.571C1.749 29.2337 1.276 28.768 0.924 28.174C0.579333 27.58 0.407 26.909 0.407 26.161ZM11.9618 30.099C11.3898 30.099 10.8728 29.9707 10.4108 29.714C9.94881 29.45 9.58581 29.0833 9.32181 28.614C9.05781 28.1373 8.92581 27.5873 8.92581 26.964C8.92581 26.348 9.06148 25.8017 9.33281 25.325C9.60415 24.8483 9.97448 24.4817 10.4438 24.225C10.9131 23.9683 11.4375 23.84 12.0168 23.84C12.5961 23.84 13.1205 23.9683 13.5898 24.225C14.0591 24.4817 14.4295 24.8483 14.7008 25.325C14.9721 25.8017 15.1078 26.348 15.1078 26.964C15.1078 27.58 14.9685 28.1263 14.6898 28.603C14.4111 29.0797 14.0298 29.45 13.5458 29.714C13.0691 29.9707 12.5411 30.099 11.9618 30.099ZM11.9618 29.01C12.2845 29.01 12.5851 28.933 12.8638 28.779C13.1498 28.625 13.3808 28.394 13.5568 28.086C13.7328 27.778 13.8208 27.404 13.8208 26.964C13.8208 26.524 13.7365 26.1537 13.5678 25.853C13.3991 25.545 13.1755 25.314 12.8968 25.16C12.6181 25.006 12.3175 24.929 11.9948 24.929C11.6721 24.929 11.3715 25.006 11.0928 25.16C10.8215 25.314 10.6051 25.545 10.4438 25.853C10.2825 26.1537 10.2018 26.524 10.2018 26.964C10.2018 27.6167 10.3668 28.1227 10.6968 28.482C11.0341 28.834 11.4558 29.01 11.9618 29.01ZM18.8885 24.962H17.7665V30H16.5015V24.962H15.7865V23.939H16.5015V23.51C16.5015 22.8133 16.6848 22.3073 17.0515 21.992C17.4255 21.6693 18.0085 21.508 18.8005 21.508V22.553C18.4191 22.553 18.1515 22.6263 17.9975 22.773C17.8435 22.9123 17.7665 23.158 17.7665 23.51V23.939H18.8885V24.962ZM22.5408 24.962H21.4188V30H20.1538V24.962H19.4388V23.939H20.1538V23.51C20.1538 22.8133 20.3371 22.3073 20.7038 21.992C21.0778 21.6693 21.6608 21.508 22.4528 21.508V22.553C22.0715 22.553 21.8038 22.6263 21.6498 22.773C21.4958 22.9123 21.4188 23.158 21.4188 23.51V23.939H22.5408V24.962ZM29.2071 26.821C29.2071 27.0483 29.1925 27.2537 29.1631 27.437H24.5321C24.5688 27.921 24.7485 28.3097 25.0711 28.603C25.3938 28.8963 25.7898 29.043 26.2591 29.043C26.9338 29.043 27.4105 28.7607 27.6891 28.196H29.0421C28.8588 28.7533 28.5251 29.2117 28.0411 29.571C27.5645 29.923 26.9705 30.099 26.2591 30.099C25.6798 30.099 25.1591 29.9707 24.6971 29.714C24.2425 29.45 23.8831 29.0833 23.6191 28.614C23.3625 28.1373 23.2341 27.5873 23.2341 26.964C23.2341 26.3407 23.3588 25.7943 23.6081 25.325C23.8648 24.8483 24.2205 24.4817 24.6751 24.225C25.1371 23.9683 25.6651 23.84 26.2591 23.84C26.8311 23.84 27.3408 23.9647 27.7881 24.214C28.2355 24.4633 28.5838 24.8153 28.8331 25.27C29.0825 25.7173 29.2071 26.2343 29.2071 26.821ZM27.8981 26.425C27.8908 25.963 27.7258 25.5927 27.4031 25.314C27.0805 25.0353 26.6808 24.896 26.2041 24.896C25.7715 24.896 25.4011 25.0353 25.0931 25.314C24.7851 25.5853 24.6018 25.9557 24.5431 26.425H27.8981ZM35.9962 26.821C35.9962 27.0483 35.9815 27.2537 35.9522 27.437H31.3212C31.3579 27.921 31.5375 28.3097 31.8602 28.603C32.1829 28.8963 32.5789 29.043 33.0482 29.043C33.7229 29.043 34.1995 28.7607 34.4782 28.196H35.8312C35.6479 28.7533 35.3142 29.2117 34.8302 29.571C34.3535 29.923 33.7595 30.099 33.0482 30.099C32.4689 30.099 31.9482 29.9707 31.4862 29.714C31.0315 29.45 30.6722 29.0833 30.4082 28.614C30.1515 28.1373 30.0232 27.5873 30.0232 26.964C30.0232 26.3407 30.1479 25.7943 30.3972 25.325C30.6539 24.8483 31.0095 24.4817 31.4642 24.225C31.9262 23.9683 32.4542 23.84 33.0482 23.84C33.6202 23.84 34.1299 23.9647 34.5772 24.214C35.0245 24.4633 35.3729 24.8153 35.6222 25.27C35.8715 25.7173 35.9962 26.2343 35.9962 26.821ZM34.6872 26.425C34.6799 25.963 34.5149 25.5927 34.1922 25.314C33.8695 25.0353 33.4699 24.896 32.9932 24.896C32.5605 24.896 32.1902 25.0353 31.8822 25.314C31.5742 25.5853 31.3909 25.9557 31.3322 26.425H34.6872Z" fill="#154A4F"/>
<path d="M23.5283 0.00347225H9.83767C9.72786 0.00316851 9.61908 0.0254555 9.51753 0.0690749C9.41598 0.112694 9.32366 0.176796 9.24586 0.257687C9.16806 0.338578 9.1063 0.434681 9.06411 0.540508C9.02192 0.646335 9.00015 0.759801 9 0.874426V10.5C9 11.4283 9.35326 12.3185 9.98205 12.9749C10.6109 13.6313 11.4637 14 12.3529 14H19.0588C19.9481 14 20.8009 13.6313 21.4297 12.9749C22.0585 12.3185 22.4118 11.4283 22.4118 10.5V9.33333H23.5294C24.7151 9.33333 25.8522 8.84166 26.6906 7.96649C27.529 7.09132 28 5.90435 28 4.66667C28 3.429 27.529 2.242 26.6906 1.36683C25.8522 0.491665 24.7151 0 23.5294 0L23.5283 0.00347225ZM23.5283 7.00346H22.4106V2.34026H23.5283C24.1211 2.34026 24.6897 2.5861 25.1089 3.02368C25.5281 3.46126 25.7636 4.05476 25.7636 4.6736C25.7636 5.29244 25.5281 5.88593 25.1089 6.32352C24.6897 6.7611 24.1211 7.00694 23.5283 7.00694V7.00346Z" fill="#FB7454"/>
</svg>
