<svg width="98" height="23" viewBox="0 0 98 23" fill="none" xmlns="http://www.w3.org/2000/svg">
<path d="M5.264 14.258L2.274 11.307L5.264 8.356H7.136L4.133 11.307L7.136 14.258H5.264ZM23.0879 8.577V6.51H26.6889V16H24.3749V8.577H23.0879ZM43.0006 13.985C43.8326 13.2657 44.4869 12.6763 44.9636 12.217C45.4489 11.749 45.8519 11.2637 46.1726 10.761C46.4932 10.2583 46.6536 9.75567 46.6536 9.253C46.6536 8.733 46.5279 8.32567 46.2766 8.031C46.0339 7.73633 45.6482 7.589 45.1196 7.589C44.6082 7.589 44.2096 7.75367 43.9236 8.083C43.6462 8.40367 43.4989 8.837 43.4816 9.383H42.0516C42.0776 8.395 42.3722 7.641 42.9356 7.121C43.5076 6.59233 44.2312 6.328 45.1066 6.328C46.0512 6.328 46.7879 6.588 47.3166 7.108C47.8539 7.628 48.1226 8.32133 48.1226 9.188C48.1226 9.812 47.9622 10.4143 47.6416 10.995C47.3296 11.567 46.9526 12.0827 46.5106 12.542C46.0772 12.9927 45.5226 13.517 44.8466 14.115L44.2616 14.635H48.3826V15.87H42.0646V14.791L43.0006 13.985ZM63.4354 8.863C63.4874 8.057 63.7951 7.42867 64.3584 6.978C64.9304 6.52733 65.6584 6.302 66.5424 6.302C67.1491 6.302 67.6734 6.41033 68.1154 6.627C68.5574 6.84367 68.8911 7.13833 69.1164 7.511C69.3418 7.88367 69.4544 8.304 69.4544 8.772C69.4544 9.30933 69.3114 9.76867 69.0254 10.15C68.7394 10.5313 68.3971 10.787 67.9984 10.917V10.969C68.5098 11.125 68.9084 11.411 69.1944 11.827C69.4804 12.2343 69.6234 12.7587 69.6234 13.4C69.6234 13.9113 69.5064 14.3663 69.2724 14.765C69.0384 15.1637 68.6918 15.48 68.2324 15.714C67.7731 15.9393 67.2228 16.052 66.5814 16.052C65.6454 16.052 64.8741 15.8137 64.2674 15.337C63.6694 14.8517 63.3488 14.1583 63.3054 13.257H64.7354C64.7701 13.7163 64.9478 14.0933 65.2684 14.388C65.5891 14.674 66.0224 14.817 66.5684 14.817C67.0971 14.817 67.5044 14.674 67.7904 14.388C68.0764 14.0933 68.2194 13.7163 68.2194 13.257C68.2194 12.6503 68.0244 12.2213 67.6344 11.97C67.2531 11.71 66.6638 11.58 65.8664 11.58H65.5284V10.358H65.8794C66.5814 10.3493 67.1144 10.2323 67.4784 10.007C67.8511 9.78167 68.0374 9.42633 68.0374 8.941C68.0374 8.525 67.9031 8.19567 67.6344 7.953C67.3658 7.70167 66.9844 7.576 66.4904 7.576C66.0051 7.576 65.6281 7.70167 65.3594 7.953C65.0908 8.19567 64.9304 8.499 64.8784 8.863H63.4354ZM85.6331 8.356H87.5051L90.4951 11.307L87.5051 14.258H85.6331L88.6361 11.307L85.6331 8.356Z" fill="#1D8C99"/>
<line x1="18" y1="20.5" x2="32" y2="20.5" stroke="#1D8C99"/>
</svg>
