<svg width="44" height="35" viewBox="0 0 44 35" fill="none" xmlns="http://www.w3.org/2000/svg">
<path d="M6.171 24.632C6.171 25.0207 6.07933 25.3873 5.896 25.732C5.71267 26.0767 5.41933 26.359 5.016 26.579C4.61267 26.7917 4.09567 26.898 3.465 26.898H2.079V30H0.825V22.355H3.465C4.05167 22.355 4.54667 22.4577 4.95 22.663C5.36067 22.861 5.665 23.1323 5.863 23.477C6.06833 23.8217 6.171 24.2067 6.171 24.632ZM3.465 25.875C3.94167 25.875 4.29733 25.7687 4.532 25.556C4.76667 25.336 4.884 25.028 4.884 24.632C4.884 23.796 4.411 23.378 3.465 23.378H2.079V25.875H3.465ZM8.62099 24.819C8.80433 24.511 9.04633 24.2727 9.34699 24.104C9.65499 23.928 10.018 23.84 10.436 23.84V25.138H10.117C9.62566 25.138 9.25166 25.2627 8.99499 25.512C8.74566 25.7613 8.62099 26.194 8.62099 26.81V30H7.36699V23.939H8.62099V24.819ZM17.1437 26.821C17.1437 27.0483 17.129 27.2537 17.0997 27.437H12.4687C12.5053 27.921 12.685 28.3097 13.0077 28.603C13.3303 28.8963 13.7263 29.043 14.1957 29.043C14.8703 29.043 15.347 28.7607 15.6257 28.196H16.9787C16.7953 28.7533 16.4617 29.2117 15.9777 29.571C15.501 29.923 14.907 30.099 14.1957 30.099C13.6163 30.099 13.0957 29.9707 12.6337 29.714C12.179 29.45 11.8197 29.0833 11.5557 28.614C11.299 28.1373 11.1707 27.5873 11.1707 26.964C11.1707 26.3407 11.2953 25.7943 11.5447 25.325C11.8013 24.8483 12.157 24.4817 12.6117 24.225C13.0737 23.9683 13.6017 23.84 14.1957 23.84C14.7677 23.84 15.2773 23.9647 15.7247 24.214C16.172 24.4633 16.5203 24.8153 16.7697 25.27C17.019 25.7173 17.1437 26.2343 17.1437 26.821ZM15.8347 26.425C15.8273 25.963 15.6623 25.5927 15.3397 25.314C15.017 25.0353 14.6173 24.896 14.1407 24.896C13.708 24.896 13.3377 25.0353 13.0297 25.314C12.7217 25.5853 12.5383 25.9557 12.4797 26.425H15.8347ZM19.6317 24.83C19.8444 24.5513 20.1341 24.3167 20.5007 24.126C20.8674 23.9353 21.2817 23.84 21.7437 23.84C22.2717 23.84 22.7521 23.972 23.1847 24.236C23.6247 24.4927 23.9694 24.8557 24.2187 25.325C24.4681 25.7943 24.5927 26.3333 24.5927 26.942C24.5927 27.5507 24.4681 28.097 24.2187 28.581C23.9694 29.0577 23.6247 29.4317 23.1847 29.703C22.7521 29.967 22.2717 30.099 21.7437 30.099C21.2817 30.099 20.8711 30.0073 20.5117 29.824C20.1524 29.6333 19.8591 29.3987 19.6317 29.12V32.882H18.3777V23.939H19.6317V24.83ZM23.3167 26.942C23.3167 26.524 23.2287 26.1647 23.0527 25.864C22.8841 25.556 22.6567 25.325 22.3707 25.171C22.0921 25.0097 21.7914 24.929 21.4687 24.929C21.1534 24.929 20.8527 25.0097 20.5667 25.171C20.2881 25.3323 20.0607 25.567 19.8847 25.875C19.7161 26.183 19.6317 26.546 19.6317 26.964C19.6317 27.382 19.7161 27.7487 19.8847 28.064C20.0607 28.372 20.2881 28.6067 20.5667 28.768C20.8527 28.9293 21.1534 29.01 21.4687 29.01C21.7914 29.01 22.0921 28.9293 22.3707 28.768C22.6567 28.5993 22.8841 28.3573 23.0527 28.042C23.2287 27.7267 23.3167 27.36 23.3167 26.942ZM25.4148 26.942C25.4148 26.3333 25.5395 25.7943 25.7888 25.325C26.0455 24.8557 26.3901 24.4927 26.8228 24.236C27.2628 23.972 27.7468 23.84 28.2748 23.84C28.7515 23.84 29.1658 23.9353 29.5178 24.126C29.8771 24.3093 30.1631 24.5403 30.3758 24.819V23.939H31.6408V30H30.3758V29.098C30.1631 29.384 29.8735 29.6223 29.5068 29.813C29.1401 30.0037 28.7221 30.099 28.2528 30.099C27.7321 30.099 27.2555 29.967 26.8228 29.703C26.3901 29.4317 26.0455 29.0577 25.7888 28.581C25.5395 28.097 25.4148 27.5507 25.4148 26.942ZM30.3758 26.964C30.3758 26.546 30.2878 26.183 30.1118 25.875C29.9431 25.567 29.7195 25.3323 29.4408 25.171C29.1621 25.0097 28.8615 24.929 28.5388 24.929C28.2161 24.929 27.9155 25.0097 27.6368 25.171C27.3581 25.325 27.1308 25.556 26.9548 25.864C26.7861 26.1647 26.7018 26.524 26.7018 26.942C26.7018 27.36 26.7861 27.7267 26.9548 28.042C27.1308 28.3573 27.3581 28.5993 27.6368 28.768C27.9228 28.9293 28.2235 29.01 28.5388 29.01C28.8615 29.01 29.1621 28.9293 29.4408 28.768C29.7195 28.6067 29.9431 28.372 30.1118 28.064C30.2878 27.7487 30.3758 27.382 30.3758 26.964ZM34.5419 24.819C34.7252 24.511 34.9672 24.2727 35.2679 24.104C35.5759 23.928 35.9389 23.84 36.3569 23.84V25.138H36.0379C35.5466 25.138 35.1726 25.2627 34.9159 25.512C34.6666 25.7613 34.5419 26.194 34.5419 26.81V30H33.2879V23.939H34.5419V24.819ZM43.0646 26.821C43.0646 27.0483 43.0499 27.2537 43.0206 27.437H38.3896C38.4262 27.921 38.6059 28.3097 38.9286 28.603C39.2512 28.8963 39.6472 29.043 40.1166 29.043C40.7912 29.043 41.2679 28.7607 41.5466 28.196H42.8996C42.7162 28.7533 42.3826 29.2117 41.8986 29.571C41.4219 29.923 40.8279 30.099 40.1166 30.099C39.5372 30.099 39.0166 29.9707 38.5546 29.714C38.0999 29.45 37.7406 29.0833 37.4766 28.614C37.2199 28.1373 37.0916 27.5873 37.0916 26.964C37.0916 26.3407 37.2162 25.7943 37.4656 25.325C37.7222 24.8483 38.0779 24.4817 38.5326 24.225C38.9946 23.9683 39.5226 23.84 40.1166 23.84C40.6886 23.84 41.1982 23.9647 41.6456 24.214C42.0929 24.4633 42.4412 24.8153 42.6906 25.27C42.9399 25.7173 43.0646 26.2343 43.0646 26.821ZM41.7556 26.425C41.7482 25.963 41.5832 25.5927 41.2606 25.314C40.9379 25.0353 40.5382 24.896 40.0616 24.896C39.6289 24.896 39.2586 25.0353 38.9506 25.314C38.6426 25.5853 38.4592 25.9557 38.4006 26.425H41.7556Z" fill="#154A4F"/>
<path d="M27.638 4.55115L29.0608 0H17.5781C16.8943 0 16.2386 0.289767 15.7551 0.805554C15.2716 1.32134 15 2.0209 15 2.75033V5.50066C15 5.63331 15.0494 5.76053 15.1373 5.85432C15.2252 5.94812 15.3445 6.00082 15.4688 6.00082H16.4076C16.5319 6.00082 16.6512 5.94812 16.7391 5.85432C16.827 5.76053 16.8764 5.63331 16.8764 5.50066V3.25049C16.8764 2.91901 16.9999 2.60112 17.2196 2.36673C17.4393 2.13234 17.7373 2.00066 18.048 2.00066H18.4389L19.2412 4.56848C18.5069 5.19026 17.913 5.98029 17.5037 6.88007C17.0944 7.77985 16.88 8.76635 16.8764 9.7665C16.8666 10.4536 16.9908 11.1353 17.2411 11.7685C17.4915 12.4017 17.8625 12.9724 18.3306 13.4444C18.4874 13.6203 18.6762 13.7604 18.8855 13.8559C19.0947 13.9514 19.32 14.0004 19.5476 14H27.3294C27.5561 14.0009 27.7806 13.9527 27.9893 13.8581C28.198 13.7636 28.3864 13.6248 28.5432 13.4502C29.0114 12.9778 29.3826 12.4069 29.6332 11.7737C29.8839 11.1404 30.0086 10.4585 29.9995 9.77111C29.998 8.76781 29.7849 7.77773 29.3762 6.87415C28.9674 5.97058 28.3733 5.17665 27.638 4.55115ZM28.0614 8.9995H18.8254C19.0272 7.79039 19.6631 6.71292 20.5979 5.9962H26.3365C27.2533 6.72228 27.8713 7.79842 28.0614 8.9995Z" fill="#FB7454"/>
</svg>
