<svg width="95" height="95" viewBox="0 0 95 95" fill="none" xmlns="http://www.w3.org/2000/svg">
<path d="M95 47.5C95 21.2665 73.7335 0 47.5 0C21.2665 0 0 21.2665 0 47.5C0 73.7335 21.2665 95 47.5 95C73.7335 95 95 73.7335 95 47.5Z" fill="#FBC654"/>
<path d="M45.1998 24.283C45.6258 24.2824 46.0343 24.113 46.3355 23.8117C46.6368 23.5105 46.8062 23.102 46.8068 22.676C46.807 22.2492 46.638 21.8398 46.3367 21.5376C46.0354 21.2354 45.6265 21.065 45.1998 21.064C44.773 21.065 44.3641 21.2354 44.0629 21.5376C43.7616 21.8398 43.5925 22.2492 43.5928 22.676C43.5933 23.102 43.7628 23.5105 44.064 23.8117C44.3653 24.113 44.7737 24.2824 45.1998 24.283Z" fill="#231F20"/>
<path d="M45.1998 31.8391C45.6258 31.8386 46.0343 31.6691 46.3355 31.3679C46.6368 31.0666 46.8062 30.6582 46.8068 30.2321C46.807 29.8054 46.638 29.396 46.3367 29.0938C46.0354 28.7915 45.6265 28.6212 45.1998 28.6201C44.773 28.6212 44.3641 28.7915 44.0629 29.0938C43.7616 29.396 43.5925 29.8054 43.5928 30.2321C43.5933 30.6582 43.7628 31.0666 44.064 31.3679C44.3653 31.6691 44.7737 31.8386 45.1998 31.8391Z" fill="#231F20"/>
<path d="M45.1998 54.5079C45.6258 54.5074 46.0343 54.3379 46.3355 54.0367C46.6368 53.7354 46.8062 53.327 46.8068 52.9009C46.8062 52.4749 46.6368 52.0665 46.3355 51.7652C46.0343 51.464 45.6258 51.2945 45.1998 51.2939C44.7737 51.2945 44.3653 51.464 44.064 51.7652C43.7628 52.0665 43.5933 52.4749 43.5928 52.9009C43.5933 53.327 43.7628 53.7354 44.064 54.0367C44.3653 54.3379 44.7737 54.5074 45.1998 54.5079Z" fill="#231F20"/>
<path d="M56.2921 66.518H54.066V64.298H55.933C56.2846 64.2983 56.622 64.159 56.871 63.9108C57.1199 63.6625 57.2603 63.3256 57.261 62.974V62.663C57.26 62.3115 57.1196 61.9747 56.8707 61.7266C56.6217 61.4784 56.2846 61.339 55.933 61.339H54.066V38.049C54.066 37.9828 54.0529 37.9173 54.0274 37.8563C54.0019 37.7952 53.9645 37.7398 53.9175 37.6933C53.8704 37.6468 53.8146 37.6101 53.7532 37.5853C53.6919 37.5606 53.6262 37.5482 53.56 37.549H51.935V18.354C51.935 18.315 51.935 18.276 51.929 18.238H54.749C55.0957 18.2383 55.4283 18.101 55.6739 17.8564C55.9195 17.6117 56.058 17.2797 56.0591 16.933V16.633C56.0567 16.2872 55.9176 15.9564 55.6721 15.7129C55.4267 15.4693 55.0948 15.3327 54.749 15.333H35.649C35.3039 15.3333 34.9729 15.4701 34.7283 15.7137C34.4838 15.9573 34.3456 16.2879 34.344 16.633V16.933C34.3443 17.279 34.4819 17.6108 34.7266 17.8555C34.9712 18.1002 35.303 18.2377 35.649 18.238H38.469C38.469 18.276 38.463 18.315 38.463 18.354V37.549H36.841C36.7749 37.5482 36.7092 37.5606 36.6479 37.5853C36.5865 37.6101 36.5307 37.6468 36.4836 37.6933C36.4365 37.7398 36.3992 37.7952 36.3737 37.8563C36.3482 37.9173 36.335 37.9828 36.3351 38.049V61.335H34.468C34.117 61.3353 33.7804 61.4749 33.5321 61.7231C33.2839 61.9713 33.1443 62.3079 33.144 62.659V62.97C33.1443 63.3211 33.2839 63.6577 33.5321 63.9059C33.7804 64.1542 34.117 64.2937 34.468 64.294H36.3351V75.352C36.3366 76.4966 36.7923 77.5938 37.6021 78.4028C38.4118 79.2118 39.5094 79.6665 40.6541 79.667H49.754C50.898 79.6657 51.9946 79.2106 52.8034 78.4017C53.6122 77.5927 54.067 76.4959 54.068 75.352V75.212H56.2941C57.0784 75.2112 57.8304 74.8994 58.3851 74.3448C58.9399 73.7903 59.252 73.0384 59.2531 72.254V69.473C59.2512 68.6888 58.9384 67.9374 58.3834 67.3834C57.8283 66.8295 57.0762 66.5183 56.2921 66.518ZM34.151 62.663C34.151 62.5792 34.1843 62.4988 34.2436 62.4396C34.3029 62.3803 34.3832 62.347 34.467 62.347H36.841C36.9737 62.347 37.1008 62.2943 37.1946 62.2006C37.2884 62.1068 37.341 61.9796 37.341 61.847V49.647H53.0571V61.847C53.0571 61.9796 53.1097 62.1068 53.2035 62.2006C53.2973 62.2943 53.4244 62.347 53.5571 62.347H55.9301C56.0143 62.3467 56.0952 62.3798 56.1552 62.439C56.2152 62.4982 56.2493 62.5788 56.25 62.663V62.974C56.2493 63.0583 56.2152 63.1388 56.1552 63.198C56.0952 63.2572 56.0143 63.2903 55.9301 63.29H34.467C34.3832 63.29 34.3029 63.2567 34.2436 63.1975C34.1843 63.1382 34.151 63.0578 34.151 62.974V62.663ZM39.4731 18.357C39.4728 18.327 39.4842 18.2981 39.505 18.2764C39.5257 18.2548 39.5541 18.242 39.584 18.241C39.6502 18.2418 39.7159 18.2295 39.7772 18.2047C39.8386 18.1799 39.8944 18.1432 39.9415 18.0967C39.9885 18.0502 40.0259 17.9948 40.0514 17.9337C40.0769 17.8727 40.09 17.8072 40.09 17.741C40.0898 17.6069 40.0364 17.4784 39.9415 17.3835C39.8467 17.2887 39.7182 17.2353 39.584 17.235H35.651C35.5715 17.235 35.4952 17.2034 35.4389 17.1472C35.3827 17.0909 35.351 17.0146 35.351 16.935V16.635C35.351 16.5554 35.3827 16.4791 35.4389 16.4229C35.4952 16.3666 35.5715 16.335 35.651 16.335H54.7511C54.8306 16.335 54.9069 16.3666 54.9632 16.4229C55.0194 16.4791 55.051 16.5554 55.051 16.635V16.935C55.051 17.0146 55.0194 17.0909 54.9632 17.1472C54.9069 17.2034 54.8306 17.235 54.7511 17.235H42.541C42.4084 17.235 42.2813 17.2877 42.1875 17.3815C42.0937 17.4752 42.041 17.6024 42.041 17.735C42.041 17.8676 42.0937 17.9948 42.1875 18.0886C42.2813 18.1823 42.4084 18.235 42.541 18.235H50.819C50.8487 18.2363 50.8767 18.249 50.8972 18.2704C50.9177 18.2918 50.9291 18.3204 50.929 18.35V37.549H46.7811C46.725 37.1689 46.5348 36.8213 46.2448 36.5691C45.9549 36.317 45.5843 36.1768 45.2 36.174C44.8156 36.1766 44.4448 36.3166 44.1546 36.5688C43.8645 36.821 43.6741 37.1687 43.618 37.549H39.474L39.4731 18.357ZM53.0571 47.104L51.5831 45.123C51.6929 45.0187 51.7805 44.8933 51.8407 44.7542C51.9008 44.6152 51.9322 44.4655 51.933 44.314V38.56H53.0571V47.104ZM39.4731 44.314V38.56H50.926V44.314C50.9261 44.3434 50.915 44.3716 50.8949 44.3929C50.8748 44.4143 50.8473 44.4272 50.818 44.429H50.806H39.606H39.594H39.5891C39.5738 44.4293 39.5587 44.4265 39.5446 44.4208C39.5304 44.4152 39.5176 44.4067 39.5068 44.396C39.496 44.3853 39.4874 44.3725 39.4816 44.3584C39.4758 44.3443 39.4729 44.3293 39.4731 44.314ZM43.6021 45.438C43.6241 45.8473 43.8023 46.2325 44.1 46.5142C44.3977 46.7959 44.7922 46.9526 45.202 46.952C45.6119 46.9526 46.0064 46.7959 46.3041 46.5142C46.6018 46.2325 46.78 45.8473 46.802 45.438H50.568L52.9451 48.638H37.461L39.838 45.438H43.6021ZM38.816 45.124L37.341 47.107V38.561H38.465V44.315C38.466 44.4664 38.4976 44.6161 38.5579 44.7549C38.6182 44.8938 38.706 45.019 38.816 45.123V45.124ZM54.065 68.456H56.291C56.763 68.456 57.106 68.463 57.205 68.563C57.304 68.663 57.313 69.005 57.313 69.477V72.258C57.3551 72.5668 57.3182 72.8813 57.206 73.172C56.9152 73.2841 56.6009 73.3209 56.2921 73.279H54.066L54.065 68.456Z" fill="#231F20"/>
</svg>
