<svg width="94" height="94" viewBox="0 0 94 94" fill="none" xmlns="http://www.w3.org/2000/svg">
<path d="M94 47C94 21.0426 72.9574 0 47 0C21.0426 0 0 21.0426 0 47C0 72.9574 21.0426 94 47 94C72.9574 94 94 72.9574 94 47Z" fill="#FBC654"/>
<path d="M73.7889 37.2171L72.9889 35.1381C72.8237 34.7127 72.4964 34.3703 72.0789 34.1861C71.8609 34.0886 71.6247 34.0382 71.3859 34.0381C71.1747 34.0387 70.9654 34.0773 70.7679 34.1521L51.7399 41.4831C51.3141 41.6469 50.9706 41.973 50.785 42.3898C50.5993 42.8066 50.5868 43.28 50.7499 43.7061L50.9299 44.1731L46.4299 45.9111C46.2262 44.8281 46.3116 43.7105 46.6775 42.671C47.0433 41.6315 47.6768 40.7068 48.5139 39.9901L48.9489 39.6521C49.0219 39.5952 49.081 39.5224 49.1215 39.4392C49.1621 39.356 49.1831 39.2646 49.1829 39.1721V36.8721C49.1826 36.7109 49.1185 36.5564 49.0046 36.4425C48.8906 36.3285 48.736 36.2644 48.5749 36.2641H24.8439C24.7641 36.2641 24.685 36.2798 24.6113 36.3104C24.5375 36.3409 24.4704 36.3857 24.414 36.4422C24.3575 36.4986 24.3128 36.5657 24.2822 36.6394C24.2517 36.7132 24.2359 36.7923 24.2359 36.8721V39.1721C24.2367 39.2475 24.2517 39.3221 24.2799 39.3921C24.2799 39.4001 24.2849 39.4091 24.2889 39.4171C24.3169 39.4801 24.3558 39.5377 24.4039 39.5871L24.4309 39.6131C24.4434 39.6269 24.4568 39.64 24.4709 39.6521L24.9029 39.9901C25.977 40.9352 26.7072 42.2101 26.9786 43.6149C27.2501 45.0197 27.0476 46.4748 26.4029 47.7521L22.4309 55.8201C21.4787 57.7833 20.9875 59.9381 20.9949 62.1201C20.9621 65.2063 21.9653 68.2143 23.8439 70.6631L23.9179 70.7571C24.8258 71.9645 25.9964 72.9495 27.3412 73.6378C28.6859 74.3262 30.1696 74.6996 31.6799 74.7301H41.7379C43.2482 74.6985 44.7315 74.3238 46.0756 73.6342C47.4197 72.9447 48.5893 71.9584 49.4959 70.7501L49.5699 70.6561C51.4491 68.2076 52.4526 65.1994 52.4199 62.1131C52.4274 59.931 51.9358 57.7761 50.9829 55.8131L47.0109 47.7451C46.9081 47.533 46.8173 47.3153 46.7389 47.0931L51.3759 45.3071L51.5559 45.7741C51.6362 45.985 51.7576 46.1777 51.9132 46.3412C52.0687 46.5046 52.2553 46.6355 52.4619 46.7261C52.6805 46.8245 52.9172 46.8763 53.1569 46.8781C53.3711 46.878 53.5832 46.8369 53.7819 46.7571L72.8039 39.4341C73.2275 39.2695 73.5689 38.944 73.7535 38.5287C73.938 38.1133 73.9508 37.6418 73.7889 37.2171ZM39.5609 39.7801C39.7221 39.7798 39.8766 39.7157 39.9905 39.6017C40.1045 39.4878 40.1687 39.3333 40.1689 39.1721C40.1687 39.0109 40.1045 38.8564 39.9905 38.7425C39.8766 38.6285 39.7221 38.5644 39.5609 38.5641H25.4519V37.4771H47.9679V38.8771L47.7679 39.0331C46.4778 40.1535 45.5962 41.6706 45.2618 43.3463C44.9273 45.0219 45.1588 46.7612 45.9199 48.2911L49.8919 56.3591C50.7621 58.1542 51.2108 60.1242 51.2039 62.1191C51.2369 64.9317 50.3261 67.6741 48.6169 69.9081L48.5429 70.0021C47.7501 71.0654 46.726 71.9345 45.548 72.544C44.3699 73.1534 43.0688 73.4872 41.7429 73.5201H31.6799C30.354 73.487 29.053 73.1531 27.875 72.5437C26.6971 71.9343 25.6729 71.0652 24.8799 70.0021L24.8049 69.9081C23.0962 67.674 22.1856 64.9316 22.2189 62.1191C22.212 60.1242 22.6607 58.1542 23.5309 56.3591L27.5029 48.2911C28.1703 46.9231 28.426 45.3907 28.2389 43.8802C28.0518 42.3696 27.4299 40.9459 26.4489 39.7821L39.5609 39.7801Z" fill="#231F20"/>
<path d="M24.5061 56.8011C24.5021 56.8062 24.4984 56.8115 24.4951 56.8171C24.4762 56.8485 24.4611 56.8821 24.4501 56.9171C23.6757 58.5409 23.2769 60.3181 23.2831 62.1171C23.2515 64.6897 24.0815 67.1989 25.6411 69.2451L25.7161 69.3371C26.4109 70.2733 27.3089 71.0398 28.3426 71.579C29.3763 72.1182 30.5187 72.416 31.6841 72.4501H41.7431C42.9077 72.4167 44.0495 72.1194 45.0826 71.5807C46.1157 71.042 47.0131 70.2759 47.7071 69.3401L47.7871 69.2301C49.3437 67.1885 50.1714 64.6842 50.1381 62.1171C50.1459 60.287 49.7354 58.4793 48.9381 56.8321C48.9321 56.8201 48.9241 56.8101 48.9171 56.7981L48.7981 56.5281C48.7905 56.5108 48.7812 56.4944 48.7701 56.4791C48.0091 55.4061 46.2121 54.7131 44.1931 54.7131C41.5833 54.7594 39.0417 55.5539 36.8701 57.0021C34.6642 55.4149 31.9916 54.6097 29.2761 54.7141C26.9901 54.7131 25.1131 55.5801 24.5061 56.8011ZM29.2731 59.3921C27.1221 59.3921 25.5151 58.4791 25.5131 57.6621C25.5131 56.8451 27.1211 55.9311 29.2731 55.9311C31.5367 55.845 33.773 56.4494 35.6851 57.6641C33.7423 58.8069 31.527 59.4039 29.2731 59.3921Z" fill="#231F20"/>
</svg>
