<svg width="95" height="95" viewBox="0 0 95 95" fill="none" xmlns="http://www.w3.org/2000/svg">
<path d="M95 47.5C95 21.2665 73.7335 0 47.5 0C21.2665 0 0 21.2665 0 47.5C0 73.7335 21.2665 95 47.5 95C73.7335 95 95 73.7335 95 47.5Z" fill="#FBC654"/>
<path d="M62.6332 52.17L56.6232 43.984L57.9232 42.201C58.0066 42.0843 58.0513 41.9444 58.0512 41.801V39.785C58.3658 39.6278 58.6295 39.3847 58.8116 39.0838C58.9937 38.783 59.0869 38.4366 59.0802 38.085C59.0866 37.7334 58.9934 37.3872 58.8113 37.0863C58.6292 36.7855 58.3657 36.5424 58.0512 36.385V34.37C58.0498 34.2318 58.0066 34.0972 57.9272 33.984L56.5762 32.138L62.4582 20.982C62.5117 20.879 62.5377 20.7641 62.5338 20.6481C62.53 20.5322 62.4964 20.4192 62.4362 20.32C62.3751 20.2234 62.2909 20.1436 62.1912 20.0877C62.0915 20.0319 61.9795 20.0017 61.8652 20H32.7032C32.5902 20.0014 32.4793 20.0306 32.3804 20.0853C32.2815 20.1399 32.1976 20.2181 32.1362 20.313C32.0749 20.4117 32.0399 20.5245 32.0347 20.6406C32.0294 20.7567 32.0541 20.8722 32.1062 20.976L37.9912 32.137L36.6442 33.978C36.5629 34.0923 36.5185 34.2287 36.5172 34.369V36.381C36.2027 36.5383 35.9391 36.7814 35.757 37.0822C35.5749 37.3831 35.4817 37.7294 35.4882 38.081C35.4802 38.4329 35.5728 38.7798 35.7551 39.0809C35.9374 39.382 36.2018 39.6249 36.5172 39.781V41.795C36.5168 41.9355 36.5597 42.0728 36.6402 42.188L37.9462 43.976L31.9362 52.162C29.9744 55.0122 28.948 58.4022 28.9992 61.862C28.9385 65.2627 29.9266 68.5996 31.8292 71.419C32.3232 72.1024 32.5901 72.9237 32.5922 73.767V74.155C32.5985 74.6164 32.7876 75.0565 33.1179 75.3787C33.4482 75.701 33.8928 75.8791 34.3542 75.874H60.2092C60.6714 75.8799 61.1171 75.7022 61.4486 75.38C61.78 75.0577 61.9701 74.6172 61.9772 74.155V73.767C61.979 72.9238 62.2456 72.1025 62.7392 71.419C64.6418 68.5996 65.6299 65.2627 65.5692 61.862C65.6193 58.405 64.5933 55.018 62.6332 52.17ZM32.9242 70.655C31.1906 68.0569 30.2883 64.993 30.3372 61.87C30.2836 58.6934 31.2187 55.5787 33.0132 52.957L39.1192 44.657H55.4512L61.5572 52.957C63.3518 55.5787 64.2873 58.6933 64.2342 61.87C64.2825 64.9912 63.3806 68.0533 61.6482 70.65C60.9946 71.561 60.6428 72.6538 60.6422 73.775V74.163C60.6353 74.2706 60.5861 74.3712 60.5054 74.4427C60.4246 74.5143 60.3189 74.551 60.2112 74.545H34.3552C34.2483 74.5502 34.1437 74.513 34.0641 74.4414C33.9846 74.3699 33.9364 74.2698 33.9302 74.163V73.775C33.9265 72.6549 33.5749 71.5637 32.9242 70.652V70.655ZM60.7592 21.34L55.3902 31.526H39.1802L33.8112 21.34H60.7592Z" fill="#231F20"/>
<path d="M58.4208 70.5701C59.1293 70.5672 59.8224 70.3632 60.4194 69.9816C61.0164 69.6001 61.4927 69.0568 61.7928 68.4151C62.7127 66.3957 63.1809 64.2 63.1648 61.9811C63.2076 58.9867 62.3228 56.0525 60.6318 53.5811C60.6198 53.5495 60.6033 53.5199 60.5828 53.4931C59.7318 52.3181 57.7518 51.5601 55.5298 51.5601C52.6433 51.6115 49.8321 52.4899 47.4298 54.0911C44.9945 52.3298 42.0378 51.4384 39.0348 51.5601C36.7348 51.5601 34.8128 52.3541 33.9788 53.5131C33.9708 53.5221 33.9608 53.5301 33.9518 53.5401L33.9208 53.5831L33.9008 53.6111C32.232 56.0794 31.3595 58.9998 31.4008 61.9791C31.3844 64.198 31.8526 66.3938 32.7728 68.4131C33.0729 69.0549 33.5491 69.5983 34.1461 69.9798C34.7432 70.3613 35.4363 70.5654 36.1448 70.5681L58.4208 70.5701ZM39.0358 56.7371C36.6548 56.7371 34.8768 55.7221 34.8768 54.8141V54.8071C34.8898 53.9071 36.6648 52.8991 39.0388 52.8991C41.5454 52.8031 44.0218 53.4725 46.1388 54.8181C43.988 56.0858 41.5345 56.7489 39.0378 56.7371H39.0358Z" fill="#231F20"/>
</svg>
