<svg width="63" height="13" viewBox="0 0 63 13" fill="none" xmlns="http://www.w3.org/2000/svg">
<path d="M4.2 9.824L0.344 6.144L4.2 2.48H6.04L2.168 6.144L6.04 9.824H4.2ZM19.2446 12L16.5886 7.44H14.8286V12H13.3726V0.848H16.9726C17.8153 0.848 18.5246 0.992 19.1006 1.28C19.6873 1.568 20.1246 1.95733 20.4126 2.448C20.7006 2.93867 20.8446 3.49867 20.8446 4.128C20.8446 4.896 20.6206 5.57333 20.1726 6.16C19.7353 6.74667 19.074 7.136 18.1886 7.328L20.9886 12H19.2446ZM14.8286 6.272H16.9726C17.762 6.272 18.354 6.08 18.7486 5.696C19.1433 5.30133 19.3406 4.77867 19.3406 4.128C19.3406 3.46667 19.1433 2.95467 18.7486 2.592C18.3646 2.22933 17.7726 2.048 16.9726 2.048H14.8286V6.272ZM31.107 7.28C31.107 7.55733 31.091 7.85067 31.059 8.16H24.051C24.1043 9.024 24.3977 9.70133 24.931 10.192C25.475 10.672 26.131 10.912 26.899 10.912C27.5283 10.912 28.051 10.768 28.467 10.48C28.8937 10.1813 29.1923 9.78667 29.363 9.296H30.931C30.6963 10.1387 30.227 10.8267 29.523 11.36C28.819 11.8827 27.9443 12.144 26.899 12.144C26.067 12.144 25.3203 11.9573 24.659 11.584C24.0083 11.2107 23.4963 10.6827 23.123 10C22.7497 9.30667 22.563 8.50667 22.563 7.6C22.563 6.69333 22.7443 5.89867 23.107 5.216C23.4697 4.53333 23.9763 4.01067 24.627 3.648C25.2883 3.27467 26.0457 3.088 26.899 3.088C27.731 3.088 28.467 3.26933 29.107 3.632C29.747 3.99467 30.2377 4.496 30.579 5.136C30.931 5.76533 31.107 6.48 31.107 7.28ZM29.603 6.976C29.603 6.42133 29.4803 5.94667 29.235 5.552C28.9897 5.14667 28.6537 4.84267 28.227 4.64C27.811 4.42667 27.347 4.32 26.835 4.32C26.099 4.32 25.4697 4.55467 24.947 5.024C24.435 5.49333 24.1417 6.144 24.067 6.976H29.603ZM34.8049 4.432V9.6C34.8049 10.0267 34.8955 10.3307 35.0769 10.512C35.2582 10.6827 35.5729 10.768 36.0209 10.768H37.0929V12H35.7809C34.9702 12 34.3622 11.8133 33.9569 11.44C33.5515 11.0667 33.3489 10.4533 33.3489 9.6V4.432H32.2129V3.232H33.3489V1.024H34.8049V3.232H37.0929V4.432H34.8049ZM46.633 3.232V12H45.177V10.704C44.8997 11.152 44.5103 11.504 44.009 11.76C43.5183 12.0053 42.9743 12.128 42.377 12.128C41.6943 12.128 41.081 11.9893 40.537 11.712C39.993 11.424 39.561 10.9973 39.241 10.432C38.9317 9.86667 38.777 9.17867 38.777 8.368V3.232H40.217V8.176C40.217 9.04 40.4357 9.70667 40.873 10.176C41.3103 10.6347 41.9077 10.864 42.665 10.864C43.4437 10.864 44.057 10.624 44.505 10.144C44.953 9.664 45.177 8.96533 45.177 8.048V3.232H46.633ZM50.5474 4.656C50.8034 4.15467 51.166 3.76533 51.6354 3.488C52.1154 3.21067 52.6967 3.072 53.3794 3.072V4.576H52.9954C51.3634 4.576 50.5474 5.46133 50.5474 7.232V12H49.0914V3.232H50.5474V4.656ZM59.3321 3.072C60.3988 3.072 61.2628 3.39733 61.9241 4.048C62.5855 4.688 62.9161 5.616 62.9161 6.832V12H61.4761V7.04C61.4761 6.16533 61.2575 5.49867 60.8201 5.04C60.3828 4.57067 59.7855 4.336 59.0281 4.336C58.2601 4.336 57.6468 4.576 57.1881 5.056C56.7401 5.536 56.5161 6.23467 56.5161 7.152V12H55.0601V3.232H56.5161V4.48C56.8041 4.032 57.1935 3.68533 57.6841 3.44C58.1855 3.19467 58.7348 3.072 59.3321 3.072Z" fill="#154A4F"/>
</svg>
