<svg width="95" height="95" viewBox="0 0 95 95" fill="none" xmlns="http://www.w3.org/2000/svg">
<path d="M95 47.5C95 21.2665 73.7335 0 47.5 0C21.2665 0 0 21.2665 0 47.5C0 73.7335 21.2665 95 47.5 95C73.7335 95 95 73.7335 95 47.5Z" fill="#FBC654"/>
<path d="M68.158 47.992V25.766C68.1569 24.8086 67.7761 23.8908 67.0992 23.2138C66.4222 22.5368 65.5044 22.1561 64.547 22.155H62.1819V20.467C62.1817 20.3432 62.1324 20.2246 62.0449 20.1371C61.9574 20.0496 61.8387 20.0003 61.715 20H44.67C44.5461 20 44.4274 20.0492 44.3398 20.1368C44.2522 20.2244 44.2029 20.3432 44.2029 20.467V22.155H29.611C28.6536 22.1561 27.7357 22.5368 27.0588 23.2138C26.3818 23.8908 26.0011 24.8086 26 25.766V47.992C26.0037 48.8677 26.3244 49.7124 26.9027 50.37C27.481 51.0276 28.2779 51.4535 29.146 51.569V71.217H26.469C26.3446 71.217 26.2253 71.2664 26.1373 71.3544C26.0494 71.4423 26 71.5616 26 71.686V75.413C26.0003 75.4743 26.0125 75.535 26.0363 75.5916C26.06 75.6481 26.0946 75.6995 26.1382 75.7426C26.1817 75.7858 26.2333 75.82 26.2901 75.8432C26.3469 75.8664 26.4077 75.8783 26.469 75.878H67.693C67.7543 75.8783 67.8151 75.8664 67.8718 75.8432C67.9286 75.82 67.9803 75.7858 68.0238 75.7426C68.0674 75.6995 68.102 75.6481 68.1257 75.5916C68.1494 75.535 68.1617 75.4743 68.162 75.413V71.686C68.1617 71.5617 68.1122 71.4426 68.0243 71.3547C67.9364 71.2668 67.8173 71.2173 67.693 71.217H65.02V51.565C65.8855 51.447 66.6795 51.0207 67.256 50.3643C67.8325 49.7079 68.1527 48.8656 68.158 47.992ZM61.248 20.934V22.155H45.137V20.934H61.248ZM64.082 71.221H53.272L54.646 70.307C54.7098 70.2638 54.7621 70.2058 54.7983 70.1378C54.8346 70.0698 54.8537 69.994 54.8539 69.917V69.258C54.8537 69.1348 54.8046 69.0166 54.7175 68.9295C54.6303 68.8423 54.5122 68.7933 54.389 68.793H51.414C52.1631 68.2524 52.7444 67.5113 53.0909 66.655H54.377C55.1475 66.6542 55.8863 66.3478 56.4313 65.803C56.9762 65.2583 57.2829 64.5196 57.284 63.749C57.2832 62.9783 56.9766 62.2393 56.4316 61.6943C55.8866 61.1493 55.1477 60.8428 54.377 60.842H53.463V60.159C53.4632 60.0352 53.4145 59.9164 53.3273 59.8285C53.2402 59.7406 53.1218 59.6908 52.998 59.69H41.158C41.0962 59.6893 41.0349 59.701 40.9777 59.7243C40.9205 59.7477 40.8685 59.7822 40.8248 59.8259C40.7811 59.8696 40.7467 59.9215 40.7233 59.9787C40.7 60.0359 40.6883 60.0972 40.689 60.159V64.794C40.6872 65.5759 40.8725 66.347 41.2293 67.0428C41.5861 67.7386 42.104 68.339 42.74 68.794H39.7679C39.6442 68.7937 39.5253 68.8425 39.4374 68.9297C39.3495 69.0168 39.2997 69.1352 39.299 69.259V69.918C39.2985 69.994 39.3165 70.069 39.3513 70.1366C39.3861 70.2041 39.4368 70.2623 39.499 70.306L40.876 71.222H30.08V51.604H40.694V54.677C40.6942 54.7383 40.7066 54.799 40.7303 54.8556C40.754 54.9121 40.7886 54.9635 40.8322 55.0066C40.8757 55.0498 40.9274 55.084 40.9841 55.1072C41.0409 55.1304 41.1016 55.1423 41.163 55.142H42.9709V56.347C42.9707 56.4083 42.9825 56.4691 43.0057 56.5259C43.029 56.5826 43.0631 56.6343 43.1063 56.6778C43.1495 56.7214 43.2008 56.756 43.2574 56.7797C43.3139 56.8034 43.3746 56.8157 43.436 56.816H45.902C45.9638 56.8167 46.025 56.805 46.0822 56.7817C46.1394 56.7583 46.1914 56.7238 46.2351 56.6801C46.2788 56.6364 46.3133 56.5845 46.3366 56.5273C46.3599 56.4701 46.3716 56.4088 46.371 56.347V55.142H47.796V56.347C47.7957 56.4083 47.8075 56.4691 47.8307 56.5259C47.854 56.5826 47.8882 56.6343 47.9313 56.6778C47.9745 56.7214 48.0258 56.756 48.0824 56.7797C48.139 56.8034 48.1997 56.8157 48.261 56.816H50.727C50.7888 56.8167 50.85 56.805 50.9072 56.7817C50.9644 56.7583 51.0164 56.7238 51.0601 56.6801C51.1038 56.6364 51.1383 56.5845 51.1616 56.5273C51.185 56.4701 51.1967 56.4088 51.196 56.347V55.142H53.004C53.1273 55.142 53.2456 55.093 53.3328 55.0058C53.42 54.9186 53.469 54.8003 53.469 54.677V51.604H64.087L64.082 71.221ZM67.224 74.948H26.934V72.155H67.228L67.224 74.948ZM47.077 68.793H45.6219C44.5611 68.793 43.5437 68.3716 42.7935 67.6214C42.0434 66.8713 41.6219 65.8539 41.6219 64.793V60.622H52.528V64.793C52.528 65.8528 52.1074 66.8693 51.3585 67.6193C50.6097 68.3693 49.5938 68.7914 48.534 68.793H47.077ZM53.464 62.207H54.378C55.459 62.207 55.92 62.668 55.92 63.749C55.92 64.83 55.459 65.291 54.378 65.291H53.434C53.4527 65.125 53.463 64.9581 53.465 64.791L53.464 62.207ZM44.664 23.09H64.545C65.2547 23.0908 65.9351 23.3731 66.437 23.8749C66.9389 24.3768 67.2212 25.0573 67.222 25.767V47.993C67.2212 48.7027 66.9389 49.3832 66.437 49.885C65.9351 50.3869 65.2547 50.6692 64.545 50.67H29.605C28.8952 50.6692 28.2148 50.3869 27.713 49.885C27.2111 49.3832 26.9288 48.7027 26.928 47.993V25.767C26.9288 25.0573 27.2111 24.3768 27.713 23.8749C28.2148 23.3731 28.8952 23.0908 29.605 23.09H44.664ZM43.899 55.141H45.431V55.881H43.899V55.141ZM48.724 55.141H50.258V55.881H48.726L48.724 55.141Z" fill="#231F20"/>
<path d="M63.7759 49.7391C65.1688 49.7391 66.2979 48.6099 66.2979 47.2171C66.2979 45.8242 65.1688 44.6951 63.7759 44.6951C62.383 44.6951 61.2539 45.8242 61.2539 47.2171C61.2539 48.6099 62.383 49.7391 63.7759 49.7391Z" fill="#231F20"/>
<path d="M59.9191 49.739C60.0429 49.7387 60.1616 49.6895 60.2491 49.6019C60.3366 49.5144 60.3859 49.3958 60.3862 49.272V47.217C60.3862 47.0932 60.337 46.9744 60.2494 46.8868C60.1618 46.7992 60.043 46.75 59.9191 46.75C59.7953 46.75 59.6765 46.7992 59.5889 46.8868C59.5013 46.9744 59.4521 47.0932 59.4521 47.217V49.273C59.4527 49.3966 59.5021 49.515 59.5896 49.6023C59.6771 49.6896 59.7955 49.7387 59.9191 49.739Z" fill="#231F20"/>
<path d="M58.0012 49.739C58.1249 49.7387 58.2436 49.6895 58.3311 49.6019C58.4186 49.5144 58.4679 49.3958 58.4681 49.272V47.217C58.4681 47.0932 58.4189 46.9744 58.3314 46.8868C58.2438 46.7992 58.125 46.75 58.0012 46.75C57.8773 46.75 57.7585 46.7992 57.671 46.8868C57.5834 46.9744 57.5342 47.0932 57.5342 47.217V49.273C57.5347 49.3966 57.5841 49.515 57.6716 49.6023C57.7591 49.6896 57.8776 49.7387 58.0012 49.739Z" fill="#231F20"/>
<path d="M56.0818 49.739C56.2056 49.7387 56.3242 49.6895 56.4117 49.6019C56.4992 49.5144 56.5485 49.3958 56.5488 49.272V47.217C56.5488 47.0932 56.4996 46.9744 56.412 46.8868C56.3244 46.7992 56.2056 46.75 56.0818 46.75C55.9579 46.75 55.8391 46.7992 55.7515 46.8868C55.6639 46.9744 55.6147 47.0932 55.6147 47.217V49.273C55.6153 49.3966 55.6647 49.515 55.7522 49.6023C55.8397 49.6896 55.9582 49.7387 56.0818 49.739Z" fill="#231F20"/>
<path d="M54.1628 49.739C54.2866 49.7387 54.4052 49.6895 54.4927 49.6019C54.5803 49.5144 54.6296 49.3958 54.6298 49.272V47.217C54.6298 47.0932 54.5806 46.9744 54.493 46.8868C54.4055 46.7992 54.2866 46.75 54.1628 46.75C54.0389 46.75 53.9202 46.7992 53.8326 46.8868C53.745 46.9744 53.6958 47.0932 53.6958 47.217V49.273C53.6961 49.3967 53.7454 49.5152 53.8329 49.6026C53.9205 49.6899 54.0391 49.739 54.1628 49.739Z" fill="#231F20"/>
<path d="M28.8359 24.909V27.758C28.8359 27.8191 28.848 27.8795 28.8713 27.9359C28.8947 27.9924 28.929 28.0436 28.9722 28.0868C29.0154 28.13 29.0666 28.1642 29.123 28.1876C29.1794 28.211 29.2399 28.223 29.301 28.223H38.017C38.0783 28.2233 38.139 28.2114 38.1958 28.1882C38.2526 28.165 38.3042 28.1308 38.3478 28.0876C38.3913 28.0444 38.4259 27.9931 38.4496 27.9366C38.4734 27.88 38.4857 27.8193 38.486 27.758V24.909C38.4866 24.8472 38.4749 24.7859 38.4516 24.7287C38.4283 24.6715 38.3938 24.6195 38.3501 24.5759C38.3064 24.5322 38.2544 24.4977 38.1972 24.4743C38.14 24.451 38.0787 24.4393 38.017 24.44H29.304C29.2424 24.4398 29.1814 24.4519 29.1245 24.4754C29.0675 24.499 29.0159 24.5335 28.9724 24.5771C28.9289 24.6207 28.8945 24.6725 28.871 24.7294C28.8476 24.7864 28.8357 24.8474 28.8359 24.909ZM31.8489 27.289H29.77V25.374H31.8489V27.289Z" fill="#231F20"/>
<path d="M37.1499 31.7649H29.3039C29.1806 31.7649 29.0623 31.8139 28.9751 31.9011C28.8879 31.9883 28.8389 32.1066 28.8389 32.2299V48.3179C28.8389 48.4412 28.8879 48.5595 28.9751 48.6467C29.0623 48.7339 29.1806 48.7829 29.3039 48.7829H41.1659C41.2892 48.7829 41.4075 48.7339 41.4947 48.6467C41.5819 48.5595 41.6309 48.4412 41.6309 48.3179V32.2299C41.6306 32.1067 41.5815 31.9885 41.4944 31.9014C41.4072 31.8142 41.2891 31.7652 41.1659 31.7649H37.1529H37.1499ZM40.6939 37.1589H37.6169V32.6999H40.6939V37.1589ZM33.7799 37.1589V32.6999H36.6799V37.1589H33.7799ZM32.8459 37.1589H29.7709V32.6999H32.8459V37.1589Z" fill="#231F20"/>
</svg>
