<svg width="11" height="14" viewBox="0 0 11 14" fill="none" xmlns="http://www.w3.org/2000/svg">
<g clip-path="url(#clip0_7_428)">
<path d="M5.49663 0H5.49157C4.00782 0.00162112 2.62017 0.740852 1.58155 2.08152C0.559779 3.39949 0 5.14868 0 7.00648C0.00505825 10.3395 1.84626 13.1359 4.30625 13.8314C4.32143 13.8363 4.3366 13.8411 4.35178 13.8444C4.72272 13.9465 5.10883 14 5.50337 14H5.50843C6.99218 13.9984 8.37983 13.2591 9.41846 11.9185C10.4402 10.5989 11.0017 8.85132 11 6.99352C10.9949 3.13525 8.52652 0 5.49663 0ZM4.35178 13.3386C6.38688 11.7094 6.49142 9.55651 5.71413 8.22881C5.49157 7.84947 5.20156 7.51552 4.8947 7.16049C4.5187 6.72603 4.12922 6.27698 3.8763 5.73715C2.95233 3.75938 4.12247 1.7038 5.6939 0.4912C5.93164 0.504169 6.16432 0.536591 6.39194 0.591709C6.37845 0.606299 6.36327 0.619268 6.34641 0.630616C4.76655 1.6811 3.46321 3.66535 4.33829 5.53775C4.56254 6.0176 4.91324 6.42126 5.28418 6.84924C5.59105 7.20426 5.90972 7.57226 6.1542 7.9905C6.72241 8.95994 6.83201 10.0639 6.4695 11.1792C6.19467 12.0255 5.66186 12.8279 4.95034 13.4731C4.74632 13.444 4.54736 13.3986 4.35178 13.3386Z" fill="#FEC55B"/>
</g>
<defs>
<clipPath id="clip0_7_428">
<rect width="11" height="14" fill="white"/>
</clipPath>
</defs>
</svg>
