<svg width="95" height="95" viewBox="0 0 95 95" fill="none" xmlns="http://www.w3.org/2000/svg">
<path d="M95 47.5C95 21.2665 73.7335 0 47.5 0C21.2665 0 0 21.2665 0 47.5C0 73.7335 21.2665 95 47.5 95C73.7335 95 95 73.7335 95 47.5Z" fill="#FBC654"/>
<path d="M62.629 44.718H58.335V34.642C58.3342 33.8074 58.0023 33.0071 57.4121 32.4169C56.8219 31.8267 56.0217 31.4948 55.187 31.494H45.793V18.343C46.2627 18.2189 46.678 17.9429 46.9744 17.558C47.2707 17.173 47.4312 16.7008 47.431 16.215C47.4305 15.6275 47.1968 15.0641 46.7814 14.6487C46.3659 14.2332 45.8026 13.9996 45.215 13.999C44.6267 13.9988 44.0624 14.232 43.646 14.6475C43.2296 15.063 42.9951 15.6268 42.994 16.215C42.9938 16.7008 43.1544 17.173 43.4507 17.558C43.747 17.9429 44.1623 18.2189 44.632 18.343V31.493H35.238C34.4034 31.4941 33.6033 31.8261 33.0132 32.4162C32.4231 33.0064 32.0911 33.8064 32.09 34.641V35.992H28.576C28.4651 35.9925 28.3567 36.0246 28.2634 36.0844C28.1701 36.1443 28.0957 36.2295 28.049 36.33C28.0028 36.431 27.9864 36.5431 28.0016 36.653C28.0168 36.763 28.0631 36.8664 28.135 36.951L32.089 41.56V71.951C32.0916 72.3462 32.1978 72.7338 32.397 73.075H31.906C31.3491 73.075 30.8149 73.2963 30.4211 73.6901C30.0273 74.0839 29.806 74.6181 29.806 75.175V77.936C29.8081 78.4916 30.0303 79.0237 30.4239 79.4158C30.8175 79.8079 31.3504 80.028 31.906 80.028H58.524C59.0782 80.0259 59.6091 79.8048 60.0009 79.413C60.3928 79.0211 60.6139 78.4902 60.616 77.936V75.175C60.616 74.6195 60.3959 74.0865 60.0038 73.6929C59.6117 73.2993 59.0796 73.0771 58.524 73.075H58.024C58.2233 72.7338 58.3295 72.3462 58.332 71.951V65.102H62.626C63.9999 65.1004 65.317 64.554 66.2885 63.5825C67.26 62.611 67.8064 61.2939 67.808 59.92V49.9C67.8064 48.5267 67.2604 47.21 66.2895 46.2386C65.3187 45.2672 64.0024 44.7204 62.629 44.718ZM34.376 73.074C34.0781 73.074 33.7923 72.9557 33.5816 72.7452C33.3708 72.5346 33.2523 72.249 33.252 71.951V41.345C33.2522 41.2063 33.2025 41.0721 33.112 40.967L29.844 37.153H44.632V42.367C44.632 42.5211 44.6932 42.6689 44.8022 42.7779C44.9111 42.8868 45.0589 42.948 45.213 42.948C45.3671 42.948 45.5149 42.8868 45.6238 42.7779C45.7328 42.6689 45.794 42.5211 45.794 42.367V37.153H57.176V71.953C57.1757 72.2508 57.0573 72.5363 56.8468 72.7468C56.6363 72.9574 56.3508 73.0758 56.053 73.076L34.376 73.074ZM35.238 32.66H55.188C55.7145 32.6608 56.2192 32.8703 56.5914 33.2426C56.9637 33.6149 57.1732 34.1196 57.174 34.646V35.997H33.251V34.646C33.2518 34.1194 33.4614 33.6145 33.8339 33.2422C34.2064 32.8699 34.7114 32.6606 35.238 32.66ZM58.338 46.96H62.632C64.832 46.96 65.581 47.704 65.581 49.909V59.929C65.581 62.129 64.837 62.878 62.632 62.878H58.335L58.338 46.96Z" fill="#231F20"/>
<path d="M55.7092 52.0821H45.7932V48.2321C45.7932 48.078 45.732 47.9302 45.623 47.8213C45.5141 47.7123 45.3663 47.6511 45.2122 47.6511C45.0581 47.6511 44.9103 47.7123 44.8014 47.8213C44.6924 47.9302 44.6312 48.078 44.6312 48.2321V52.0841H34.7152C34.562 52.0844 34.4151 52.1454 34.3068 52.2537C34.1985 52.362 34.1375 52.5089 34.1372 52.6621V54.4821C34.1372 54.6354 34.1981 54.7824 34.3065 54.8908C34.4149 54.9992 34.5619 55.0601 34.7152 55.0601H55.7092C55.8631 55.0607 56.011 55.0001 56.1203 54.8917C56.2296 54.7834 56.2914 54.636 56.2922 54.4821V52.6621C56.2917 52.5079 56.23 52.3603 56.1207 52.2515C56.0114 52.1428 55.8634 52.0819 55.7092 52.0821Z" fill="#231F20"/>
<path d="M34.7158 45.8781H55.7098C55.8639 45.8781 56.0116 45.8169 56.1206 45.7079C56.2296 45.5989 56.2908 45.4512 56.2908 45.2971C56.2908 45.143 56.2296 44.9952 56.1206 44.8862C56.0116 44.7773 55.8639 44.7161 55.7098 44.7161H34.7158C34.5617 44.7161 34.4139 44.7773 34.3049 44.8862C34.196 44.9952 34.1348 45.143 34.1348 45.2971C34.1348 45.4512 34.196 45.5989 34.3049 45.7079C34.4139 45.8169 34.5617 45.8781 34.7158 45.8781Z" fill="#231F20"/>
<path d="M51.3692 56.444C49.2188 56.4795 47.1235 57.1301 45.3312 58.319C43.5059 57.0135 41.2975 56.3537 39.0552 56.444C36.7702 56.444 34.9722 57.489 34.8762 58.844C34.8691 58.8805 34.8654 58.9177 34.8652 58.955V69.781C34.8651 70.032 34.9144 70.2807 35.0104 70.5127C35.1064 70.7448 35.2471 70.9556 35.4245 71.1332C35.602 71.3109 35.8127 71.4518 36.0446 71.548C36.2765 71.6442 36.5251 71.6938 36.7762 71.694H53.6542C54.1601 71.6926 54.6448 71.4907 55.0019 71.1324C55.3591 70.7742 55.5595 70.2888 55.5592 69.783V58.957C55.56 58.9235 55.5577 58.89 55.5522 58.857C55.4742 57.479 53.6822 56.444 51.3692 56.444ZM39.0552 60.308C37.3252 60.308 36.0322 59.596 36.0272 58.958C36.0272 58.321 37.3222 57.607 39.0542 57.607C40.8632 57.5412 42.6515 58.0093 44.1962 58.953C42.633 59.8523 40.8587 60.3206 39.0552 60.308Z" fill="#231F20"/>
</svg>
