<svg width="95" height="94" viewBox="0 0 95 94" fill="none" xmlns="http://www.w3.org/2000/svg">
<path d="M48 0H47C21.0426 0 0 21.0426 0 47C0 72.9574 21.0426 94 47 94H48C73.9574 94 95 72.9574 95 47C95 21.0426 73.9574 0 48 0Z" fill="#FBC654"/>
<path d="M55.9919 53.3868C56.2542 53.3871 56.5084 53.2967 56.7115 53.1308C56.9146 52.9649 57.054 52.7338 57.1059 52.4768L59.9389 38.7768L69.0509 27.0238C69.1817 26.8553 69.2626 26.6535 69.2842 26.4413C69.3057 26.2291 69.2672 26.0151 69.1729 25.8238C69.0794 25.633 68.9343 25.4722 68.754 25.3598C68.5737 25.2474 68.3654 25.1878 68.1529 25.1878H61.9629C60.8507 23.5861 59.3686 22.2762 57.6424 21.3691C55.9163 20.462 53.9969 19.9844 52.0469 19.9768H47.0359V18.1768H49.0709C49.372 18.1765 49.6607 18.0567 49.8735 17.8437C50.0864 17.6307 50.2059 17.3419 50.2059 17.0408C50.2059 16.7397 50.0864 16.4509 49.8735 16.2379C49.6607 16.0248 49.372 15.9051 49.0709 15.9048H42.7299C42.4286 15.9048 42.1397 16.0245 41.9266 16.2375C41.7136 16.4505 41.5939 16.7395 41.5939 17.0408C41.5939 17.3421 41.7136 17.631 41.9266 17.8441C42.1397 18.0571 42.4286 18.1768 42.7299 18.1768H44.7649V19.9768H39.7539C37.8039 19.9844 35.8845 20.462 34.1584 21.3691C32.4322 22.2762 30.9502 23.5861 29.8379 25.1878H28.5819C28.1834 25.1881 27.7893 25.2716 27.4248 25.4327C27.0603 25.5939 26.7334 25.8292 26.4649 26.1238C26.1962 26.4192 25.9921 26.7675 25.8657 27.1463C25.7393 27.5251 25.6934 27.9262 25.7309 28.3238L27.4369 46.5418C27.4633 46.8233 27.5938 47.0849 27.8027 47.2753C28.0117 47.4658 28.2842 47.5715 28.5669 47.5718C28.6019 47.5718 28.6379 47.5718 28.6739 47.5668C28.8225 47.553 28.9669 47.51 29.0989 47.4404C29.2308 47.3707 29.3477 47.2757 29.4429 47.1608C29.5381 47.0459 29.6098 46.9134 29.6537 46.7708C29.6976 46.6282 29.713 46.4783 29.6989 46.3298L27.9919 28.1078C27.9841 28.0257 27.9935 27.9428 28.0197 27.8646C28.0459 27.7864 28.0882 27.7146 28.1439 27.6538C28.1993 27.5927 28.2669 27.5439 28.3424 27.5107C28.4179 27.4774 28.4994 27.4604 28.5819 27.4608H29.5259L34.6919 52.4758C34.7439 52.7328 34.8833 52.9639 35.0864 53.1298C35.2894 53.2957 35.5437 53.3861 35.8059 53.3858H36.9059V56.6018H35.8059C35.5323 56.6023 35.2681 56.7012 35.0614 56.8803C34.8547 57.0595 34.7193 57.3071 34.6799 57.5778L32.5179 72.4608C32.4953 72.6209 32.5071 72.7841 32.5526 72.9393C32.5981 73.0946 32.6763 73.2382 32.7819 73.3608C32.8871 73.4855 33.0181 73.5858 33.1659 73.6549C33.3137 73.724 33.4748 73.7601 33.6379 73.7608H58.158C58.3211 73.7601 58.4821 73.724 58.6299 73.6549C58.7777 73.5858 58.9087 73.4855 59.0139 73.3608C59.1196 73.2383 59.1978 73.0946 59.2433 72.9393C59.2889 72.7841 59.3007 72.621 59.2779 72.4608L57.1159 57.5778C57.0765 57.3071 56.9412 57.0595 56.7345 56.8803C56.5278 56.7012 56.2635 56.6023 55.9899 56.6018H54.8899V53.3858L55.9919 53.3868ZM55.6689 51.7108H51.7079L53.6139 26.8618H60.5549L58.3699 38.0488L55.6689 51.7108ZM50.0169 58.8798L50.9019 72.0868H40.9019L41.7869 58.8798H50.0169ZM51.934 26.8628L50.0279 51.7118H41.7729L39.8669 26.8628H51.934ZM60.7849 34.5998L62.2279 27.7168L62.2799 26.8638H66.7049L60.7849 34.5998ZM39.7539 21.6518H52.0469C54.9185 21.8771 57.6115 23.1338 59.6289 25.1898H32.1729C34.1898 23.1337 36.8825 21.8766 39.7539 21.6508V21.6518ZM31.2449 26.8628H38.1919L40.098 51.7118H36.1319L31.2449 26.8628ZM36.1909 58.8798H40.1059L39.2209 72.0868H34.3579L36.1909 58.8798ZM57.4479 72.0868H52.5809L51.6959 58.8798H55.6099L57.4479 72.0868Z" fill="#25333F"/>
</svg>
