<svg width="94" height="94" viewBox="0 0 94 94" fill="none" xmlns="http://www.w3.org/2000/svg">
<path d="M94 47C94 21.0426 72.9574 0 47 0C21.0426 0 0 21.0426 0 47C0 72.9574 21.0426 94 47 94C72.9574 94 94 72.9574 94 47Z" fill="#FBC654"/>
<path d="M29.1082 56.8488C29.1022 56.8608 29.0922 56.8708 29.0872 56.8828L29.0602 56.9498C29.0482 56.9788 29.0392 57.0078 29.0272 57.0368C29.0152 57.0658 28.9962 57.1108 28.9842 57.1488V57.1568C28.7213 57.6913 28.5315 58.2587 28.4202 58.8438V59.8798C28.3186 61.1299 27.9792 62.3491 27.4202 63.4718L27.4082 63.5008C27.1086 64.1186 26.885 64.7703 26.7422 65.4418V66.4838C26.7685 67.5341 27.1932 68.5351 27.9302 69.2838C29.0722 70.4258 31.0632 71.0288 33.6892 71.0288H53.1892C55.8582 71.0288 57.8682 70.4048 59.0012 69.2288C59.6835 68.5165 60.0861 67.582 60.1352 66.5968L60.1292 65.4108C59.9791 64.7453 59.7533 64.0991 59.4562 63.4848C58.8931 62.3608 58.5535 61.1382 58.4562 59.8848L58.4502 58.8058C58.3001 58.1414 58.0764 57.4957 57.7832 56.8808L57.6302 56.5278C57.6224 56.5098 57.6126 56.4928 57.6012 56.4768C56.7182 55.2428 54.6272 54.4448 52.2742 54.4448C48.4222 54.4448 45.9742 55.8239 43.6192 57.1689C41.0259 55.2709 37.865 54.3098 34.6542 54.4428C31.9842 54.4358 29.7992 55.4398 29.1082 56.8488ZM30.1742 57.4488C30.1892 57.4148 30.2022 57.3828 30.2122 57.3488C30.6852 56.4058 32.5532 55.6548 34.6472 55.6548C37.4048 55.5469 40.1271 56.3039 42.4332 57.8198C40.0816 59.228 37.3911 59.9695 34.6502 59.9648C32.2232 59.9648 30.0962 58.9579 30.0962 57.8089C30.0986 57.7067 30.1168 57.6055 30.1502 57.5088C30.1575 57.4868 30.1658 57.4658 30.1752 57.4458L30.1742 57.4488Z" fill="#231F20"/>
<path d="M68.9258 54.4251C68.4458 52.9197 67.4989 51.6063 66.2224 50.6751C64.9458 49.744 63.4059 49.2434 61.8258 49.2461H58.6308L58.6178 49.2141L58.5978 49.1651C58.207 48.3815 57.9463 47.5395 57.8258 46.6721V45.6221C57.8277 44.8287 57.5486 44.0603 57.0378 43.4531H59.1218C59.2833 43.4528 59.438 43.3886 59.5522 43.2745C59.6663 43.1603 59.7306 43.0056 59.7308 42.8441V42.1031C59.7306 41.9689 59.6862 41.8385 59.6046 41.7321C59.5229 41.6256 59.4084 41.549 59.2788 41.5141L50.1788 39.0721L49.5198 37.9331L50.6608 36.9551C50.7245 36.8994 50.7762 36.8314 50.8128 36.7551L54.2448 29.6461L55.6008 28.4841C55.6597 28.4339 55.7082 28.3728 55.7438 28.3041L57.3878 25.1971H59.8618C60.8582 25.1982 61.8134 25.5945 62.518 26.299C63.2225 27.0035 63.6188 27.9588 63.6198 28.9551C63.6188 29.9516 63.2225 30.9069 62.518 31.6116C61.8135 32.3163 60.8583 32.7128 59.8618 32.7141C59.7004 32.7144 59.5456 32.7786 59.4315 32.8928C59.3173 33.0069 59.2531 33.1617 59.2528 33.3231C59.2531 33.4846 59.3173 33.6393 59.4315 33.7535C59.5456 33.8676 59.7004 33.9319 59.8618 33.9321C61.1813 33.9305 62.4463 33.4057 63.3793 32.4726C64.3124 31.5396 64.8372 30.2746 64.8388 28.9551C64.8372 27.6356 64.3124 26.3706 63.3793 25.4376C62.4463 24.5046 61.1813 23.9797 59.8618 23.9781H58.0328L59.6648 20.8951C59.7135 20.802 59.7377 20.6981 59.7349 20.593C59.7321 20.488 59.7024 20.3855 59.6488 20.2951C59.5953 20.2039 59.519 20.1282 59.4272 20.0756C59.3355 20.023 59.2316 19.9952 59.1258 19.9951H27.7398C27.6347 19.9948 27.5313 20.0218 27.4398 20.0735C27.3483 20.1253 27.2718 20.1999 27.2178 20.2901C27.1641 20.3804 27.1345 20.483 27.1317 20.588C27.1289 20.6931 27.153 20.7971 27.2018 20.8901L31.1248 28.3011C31.1597 28.368 31.2068 28.4277 31.2638 28.4771L32.6218 29.6411L36.0528 36.7501C36.0892 36.8266 36.1409 36.8946 36.2048 36.9501L37.3468 37.9291L36.6878 39.0681L27.5878 41.5101C27.4583 41.545 27.3438 41.6216 27.2621 41.7281C27.1804 41.8345 27.136 41.9649 27.1358 42.0991V42.8401C27.1361 43.0016 27.2003 43.1563 27.3145 43.2705C27.4286 43.3846 27.5834 43.4489 27.7448 43.4491H29.8258C29.3151 44.0563 29.0359 44.8247 29.0378 45.6181V46.6681C28.9144 47.553 28.6468 48.4117 28.2458 49.2101L28.2238 49.2641C27.7621 50.1909 27.4695 51.1926 27.3598 52.2221V53.2721C27.2364 54.157 26.9689 55.0157 26.5678 55.8141C26.0976 56.7578 25.7992 57.7777 25.6868 58.8261V59.8761C25.5632 60.7596 25.296 61.6169 24.8958 62.4141C24.421 63.3597 24.1202 64.383 24.0078 65.4351V66.4681C24.0249 68.1969 24.6992 69.8544 25.8938 71.1041C27.5738 72.8641 30.1938 73.7571 33.6938 73.7571H53.1938C56.6828 73.7571 59.3038 72.8641 60.9838 71.1031C62.1828 69.8546 62.8593 68.1951 62.8748 66.4641V65.4331C62.8625 65.009 62.7884 64.5889 62.6548 64.1861L63.6548 63.9351C64.6455 63.6902 65.5746 63.2427 66.3835 62.6206C67.1925 61.9986 67.8637 61.2156 68.3548 60.3211C68.8518 59.431 69.1591 58.4476 69.2574 57.4329C69.3557 56.4182 69.2428 55.3941 68.9258 54.4251ZM42.8468 29.8751C43.0083 29.8749 43.163 29.8106 43.2772 29.6965C43.3913 29.5823 43.4556 29.4276 43.4558 29.2661C43.4556 29.1047 43.3913 28.9499 43.2772 28.8358C43.163 28.7216 43.0083 28.6574 42.8468 28.6571H33.3408L32.1468 27.6341L28.7528 21.2201H58.1108L54.7108 27.6331L53.3458 28.8031C53.282 28.8587 53.2303 28.9267 53.1938 29.0031L49.7618 36.1121L48.5048 37.1901H38.3528L37.0958 36.1121L34.0858 29.8771L42.8468 29.8751ZM48.3828 38.4071L49.2458 39.8991C49.2857 39.9685 49.3389 40.0294 49.4024 40.0781C49.4659 40.1269 49.5384 40.1626 49.6158 40.1831L57.2628 42.2341H29.5998L37.2468 40.1831C37.3241 40.1626 37.3966 40.1271 37.4601 40.0785C37.5235 40.03 37.5768 39.9693 37.6168 39.9001L38.4798 38.4081L48.3828 38.4071ZM54.4398 43.4541C55.0146 43.4547 55.5658 43.6832 55.9723 44.0897C56.3787 44.4962 56.6073 45.0473 56.6078 45.6221V46.6721C56.7175 47.7017 57.0101 48.7034 57.4718 49.6301L57.4938 49.6831L57.5818 49.8901L57.6678 50.0901C57.9895 50.7624 58.1987 51.483 58.2868 52.2231V53.2731C58.4003 54.3219 58.7004 55.3419 59.1728 56.2851L59.1928 56.3331C59.5839 57.1167 59.845 57.9587 59.9658 58.8261V59.8761C60.0794 60.925 60.3798 61.9451 60.8528 62.8881L60.9218 63.0541C61.0438 63.3481 61.1668 63.6451 61.2738 63.9341V63.9411L61.2788 63.9561C61.483 64.425 61.6064 64.9251 61.6438 65.4351V66.4961C61.6192 67.9016 61.0653 69.2461 60.0928 70.2611C58.6508 71.7731 56.3258 72.5391 53.1798 72.5391H33.6798C30.5408 72.5391 28.2168 71.7761 26.7728 70.2721C25.8004 69.249 25.2454 67.8994 25.2168 66.4881V65.4341C25.3421 64.548 25.6095 63.688 26.0088 62.8871L26.0308 62.8331C26.4929 61.9065 26.7858 60.9047 26.8958 59.8751V58.8251C27.0185 57.9404 27.2843 57.0815 27.6828 56.2821C28.1557 55.3394 28.4561 54.3197 28.5698 53.2711V52.2211C28.6903 51.3538 28.951 50.5118 29.3418 49.7281L29.3618 49.6791C29.8347 48.7364 30.1351 47.7167 30.2488 46.6681V45.6181C30.2494 45.0433 30.4779 44.4922 30.8844 44.0857C31.2909 43.6792 31.842 43.4507 32.4168 43.4501L54.4398 43.4541ZM61.9768 62.4231C61.5763 61.6245 61.3087 60.7659 61.1848 59.8811V58.8311C61.0711 57.7823 60.7707 56.7622 60.2978 55.8191L60.2768 55.7701C59.8859 54.9865 59.6251 54.1445 59.5048 53.2771V52.2271C59.4921 51.8196 59.4231 51.4158 59.2998 51.0271H61.8228C64.6288 51.0271 66.3888 52.2601 67.2038 54.7971C67.4685 55.6093 67.562 56.4675 67.4784 57.3176C67.3947 58.1676 67.1358 58.9912 66.7178 59.7361C66.3989 60.3904 65.9249 60.9567 65.337 61.3859C64.7491 61.815 64.0652 62.0938 63.3448 62.1981L62.0208 62.5311C62.0058 62.4951 61.9918 62.4581 61.9758 62.4221L61.9768 62.4231Z" fill="#231F20"/>
</svg>
