<svg width="95" height="95" viewBox="0 0 95 95" fill="none" xmlns="http://www.w3.org/2000/svg">
<path d="M95 47.5C95 21.2665 73.7335 0 47.5 0C21.2665 0 0 21.2665 0 47.5C0 73.7335 21.2665 95 47.5 95C73.7335 95 95 73.7335 95 47.5Z" fill="#FBC654"/>
<path d="M68.0748 71.9544H65.8518V52.1374C65.8513 51.6305 65.6497 51.1445 65.2912 50.786C64.9327 50.4275 64.4468 50.2259 63.9398 50.2254H63.5608V48.6214C63.5598 47.8139 63.2385 47.0397 62.6675 46.4687C62.0965 45.8977 61.3223 45.5765 60.5148 45.5754H58.0248V44.2304C58.0245 44.1011 57.9731 43.9771 57.8816 43.8856C57.7901 43.7942 57.6661 43.7427 57.5368 43.7424C57.4075 43.7427 57.2835 43.7942 57.192 43.8856C57.1006 43.9771 57.0491 44.1011 57.0488 44.2304V45.5754H52.4978V44.2324C52.4985 44.1679 52.4863 44.1038 52.4619 44.0441C52.4375 43.9843 52.4014 43.9301 52.3558 43.8844C52.3101 43.8388 52.2559 43.8027 52.1961 43.7784C52.1364 43.754 52.0723 43.7417 52.0078 43.7424H50.0078V41.7954H50.9208C51.0497 41.7954 51.1733 41.7442 51.2645 41.653C51.3556 41.5619 51.4068 41.4383 51.4068 41.3094V38.8774H51.7308C52.7714 38.8761 53.7689 38.4621 54.5047 37.7263C55.2405 36.9906 55.6545 35.993 55.6558 34.9524V21.3134H56.1208C56.2502 21.3132 56.3741 21.2616 56.4656 21.1702C56.557 21.0787 56.6085 20.9548 56.6088 20.8254V16.4924C56.6085 16.3631 56.557 16.2391 56.4656 16.1476C56.3741 16.0562 56.2502 16.0047 56.1208 16.0044H37.1868C37.0575 16.0047 36.9335 16.0562 36.842 16.1476C36.7506 16.2391 36.6991 16.3631 36.6988 16.4924V20.8254C36.6991 20.9548 36.7506 21.0787 36.842 21.1702C36.9335 21.2616 37.0575 21.3132 37.1868 21.3134H37.6558V34.9524C37.6564 35.9925 38.0695 36.9899 38.8046 37.7258C39.5397 38.4617 40.5367 38.8758 41.5768 38.8774H41.9008V41.3094C41.9011 41.3735 41.914 41.4369 41.9387 41.496C41.9635 41.5551 41.9997 41.6088 42.0452 41.6539C42.0907 41.699 42.1446 41.7348 42.2039 41.759C42.2632 41.7833 42.3267 41.7957 42.3908 41.7954H43.2988V43.7424H41.2988C41.1688 43.7424 41.0442 43.794 40.9523 43.8859C40.8604 43.9778 40.8088 44.1024 40.8088 44.2324V47.8964C40.8091 47.9605 40.8219 48.0239 40.8467 48.083C40.8715 48.1421 40.9077 48.1957 40.9532 48.2409C40.9987 48.286 41.0526 48.3218 41.1119 48.346C41.1712 48.3703 41.2347 48.3827 41.2988 48.3824H41.5088L38.9798 51.8234C37.9959 53.2519 37.4808 54.9511 37.5058 56.6854C37.4762 58.3904 37.9731 60.0631 38.9288 61.4754C39.1516 61.7843 39.2716 62.1555 39.2718 62.5364V62.7214C39.275 62.9911 39.385 63.2486 39.5777 63.4374C39.7704 63.6261 40.0301 63.7308 40.2998 63.7284H53.0048C53.2749 63.7313 53.5351 63.6269 53.7282 63.4381C53.9214 63.2493 54.0317 62.9915 54.0348 62.7214V62.5334C54.0351 62.1525 54.155 61.7814 54.3778 61.4724C55.3333 60.06 55.8302 58.3874 55.8008 56.6824C55.8258 54.9481 55.3107 53.2489 54.3268 51.8204L51.7978 48.3794H52.0078C52.0719 48.3797 52.1354 48.3673 52.1947 48.343C52.254 48.3187 52.308 48.283 52.3535 48.2379C52.399 48.1928 52.4351 48.1391 52.4599 48.08C52.4847 48.0209 52.4975 47.9575 52.4978 47.8934V46.5474H57.0488V47.8914C57.0488 48.0208 57.1002 48.145 57.1917 48.2365C57.2833 48.328 57.4074 48.3794 57.5368 48.3794C57.6662 48.3794 57.7903 48.328 57.8819 48.2365C57.9734 48.145 58.0248 48.0208 58.0248 47.8914V46.5474H60.5148C61.064 46.5477 61.5906 46.7659 61.9789 47.1543C62.3673 47.5426 62.5856 48.0692 62.5858 48.6184V50.2264H62.2068C61.6999 50.2269 61.2139 50.4285 60.8554 50.787C60.497 51.1455 60.2953 51.6315 60.2948 52.1384V71.9554H59.6368C59.5727 71.9552 59.5092 71.9677 59.45 71.9923C59.3907 72.0168 59.337 72.0529 59.2918 72.0984L57.5258 73.8644H52.4968V70.8584C52.4965 70.7291 52.445 70.6051 52.3536 70.5136C52.2621 70.4222 52.1382 70.3707 52.0088 70.3704H41.5028L41.3588 70.2264C40.8576 69.7226 40.2615 69.3232 39.6049 69.0513C38.9484 68.7794 38.2444 68.6404 37.5338 68.6424C37.1526 68.6429 36.7871 68.7946 36.5176 69.0642C36.248 69.3337 36.0963 69.6992 36.0958 70.0804C36.0963 70.4616 36.248 70.8271 36.5176 71.0966C36.7871 71.3662 37.1526 71.5179 37.5338 71.5184C38.1162 71.5172 38.693 71.6314 39.231 71.8546C39.7689 72.0777 40.2573 72.4053 40.6678 72.8184L40.8118 72.9624V73.8624H29.1658C29.0745 73.8629 28.9852 73.8887 28.9079 73.9371C28.8305 73.9855 28.7681 74.0545 28.7278 74.1364L27.0478 77.5914C27.0114 77.6659 26.9947 77.7485 26.9993 77.8313C27.0038 77.9141 27.0295 77.9943 27.0738 78.0644C27.1174 78.1347 27.1782 78.1926 27.2505 78.2327C27.3228 78.2728 27.4041 78.2937 27.4868 78.2934H61.6968C61.7609 78.2936 61.8244 78.281 61.8836 78.2564C61.9429 78.2319 61.9966 78.1959 62.0418 78.1504L64.1618 76.0314H68.0738C68.2032 76.0311 68.3271 75.9796 68.4186 75.8882C68.51 75.7967 68.5615 75.6728 68.5618 75.5434V72.4434C68.5619 72.3793 68.5495 72.3158 68.5251 72.2566C68.5007 72.1973 68.4648 72.1434 68.4196 72.098C68.3744 72.0526 68.3206 72.0166 68.2615 71.9919C68.2023 71.9673 68.1389 71.9545 68.0748 71.9544ZM67.5868 72.9294V75.0564H63.9598C63.8957 75.0562 63.8322 75.0687 63.7729 75.0933C63.7137 75.1178 63.66 75.1539 63.6148 75.1994L61.4948 77.3184H28.2658L29.4708 74.8394H57.7248C57.7889 74.8395 57.8524 74.8269 57.9116 74.8024C57.9708 74.7778 58.0246 74.7418 58.0698 74.6964L59.8358 72.9294H67.5838H67.5868ZM61.2658 52.1374C61.2661 51.8892 61.3648 51.6513 61.5403 51.4758C61.7157 51.3004 61.9537 51.2017 62.2018 51.2014H63.9358C64.184 51.2017 64.4219 51.3004 64.5974 51.4758C64.7729 51.6513 64.8715 51.8892 64.8718 52.1374V71.9544H61.2658V52.1374ZM41.6458 72.4124L41.3598 72.1254C40.8586 71.6216 40.2625 71.2222 39.606 70.9503C38.9494 70.6784 38.2454 70.5394 37.5348 70.5414C37.4124 70.5411 37.295 70.4924 37.2084 70.4058C37.1218 70.3192 37.0731 70.2019 37.0728 70.0794C37.0731 69.957 37.1218 69.8396 37.2084 69.753C37.295 69.6664 37.4124 69.6177 37.5348 69.6174C38.1172 69.6159 38.6942 69.73 39.2321 69.9532C39.7701 70.1763 40.2585 70.5041 40.6688 70.9174L40.9548 71.2044C41 71.2498 41.0538 71.2858 41.113 71.3104C41.1722 71.3349 41.2357 71.3475 41.2998 71.3474H51.5198V73.8654H41.7868V72.7594C41.7875 72.6951 41.7754 72.6313 41.7512 72.5717C41.727 72.5121 41.6912 72.458 41.6458 72.4124ZM38.6308 21.3124H41.4308V28.8234C41.4308 28.9528 41.4822 29.077 41.5737 29.1685C41.6652 29.26 41.7894 29.3114 41.9188 29.3114H51.3878C51.5172 29.3114 51.6414 29.26 51.7329 29.1685C51.8244 29.077 51.8758 28.9528 51.8758 28.8234V21.3124H54.6818V34.9514C54.681 35.7336 54.37 36.4834 53.8169 37.0365C53.2638 37.5896 52.514 37.9006 51.7318 37.9014H41.5758C40.7944 37.8998 40.0455 37.5883 39.4934 37.0353C38.9413 36.4823 38.6311 35.7329 38.6308 34.9514V21.3124ZM37.6738 16.9794H55.6358V20.3374H47.0358C46.9064 20.3374 46.7823 20.3888 46.6907 20.4803C46.5992 20.5719 46.5478 20.696 46.5478 20.8254C46.5481 20.9548 46.5996 21.0787 46.691 21.1702C46.7825 21.2616 46.9065 21.3132 47.0358 21.3134H50.9008V28.3364H42.4078V20.8214C42.4078 20.692 42.3564 20.5679 42.2649 20.4763C42.1733 20.3848 42.0492 20.3334 41.9198 20.3334H37.6738V16.9794ZM53.5398 52.4004C54.4018 53.6607 54.8508 55.1577 54.8248 56.6844C54.8482 58.1856 54.4155 59.6585 53.5838 60.9084C53.2426 61.3826 53.0593 61.9522 53.0598 62.5364V62.7214C53.0598 62.7324 53.0398 62.7524 53.0068 62.7524H40.3018C40.2698 62.7524 40.2498 62.7324 40.2498 62.7214V62.5334C40.2502 61.9492 40.0668 61.3797 39.7258 60.9054C38.8941 59.6559 38.4614 58.1832 38.4848 56.6824C38.4572 55.1558 38.9048 53.6584 39.7658 52.3974L42.7188 48.3784H50.5828L53.5398 52.4004Z" fill="#231F20"/>
<path d="M42.8921 51.9523C42.4179 51.9083 41.9402 51.9821 41.5013 52.167C41.0624 52.3519 40.6759 52.6422 40.3762 53.0123C39.6104 54.1573 39.2104 55.5079 39.2291 56.8853C39.2235 57.9225 39.4421 58.9486 39.8701 59.8933C40.0225 60.2174 40.2637 60.4916 40.5657 60.6842C40.8676 60.8768 41.218 60.9798 41.5761 60.9813H51.7291C52.0863 60.9794 52.4355 60.8762 52.7364 60.6838C53.0373 60.4914 53.2775 60.2177 53.4291 59.8943C53.8613 58.9504 54.0821 57.9234 54.0761 56.8853C54.0954 55.4836 53.6793 54.1105 52.8851 52.9553C52.8794 52.9435 52.8727 52.9321 52.8651 52.9213C52.5538 52.5862 52.1713 52.3253 51.7457 52.1578C51.3201 51.9902 50.8623 51.9204 50.4061 51.9533C49.0979 51.9732 47.8219 52.3633 46.7261 53.0783C45.5991 52.3075 44.257 51.9133 42.8921 51.9523ZM42.8921 54.3083C41.7831 54.3083 41.1791 53.8533 41.1791 53.6203V53.6153C41.1841 53.3793 41.7881 52.9283 42.8911 52.9283C43.8906 52.8964 44.8804 53.1322 45.7581 53.6113C44.8792 54.0825 43.8954 54.324 42.8981 54.3133L42.8921 54.3083Z" fill="#231F20"/>
<path d="M43.4231 68.7715C43.8522 69.1787 44.3613 69.4923 44.918 69.6925C45.4747 69.8927 46.0669 69.9751 46.6571 69.9345C47.2464 69.9749 47.8378 69.8925 48.3936 69.6925C48.9494 69.4925 49.4576 69.1792 49.8861 68.7725C50.442 68.1704 50.7672 67.3911 50.8041 66.5725L51.3041 65.9805C51.3787 65.8921 51.4198 65.7802 51.4201 65.6645V65.0175C51.4201 64.8886 51.3689 64.765 51.2777 64.6738C51.1866 64.5827 51.063 64.5315 50.9341 64.5315H42.3821C42.2527 64.5312 42.1286 64.5822 42.0367 64.6733C41.9449 64.7644 41.8929 64.8881 41.8921 65.0175V65.6645C41.8923 65.779 41.9326 65.8897 42.0061 65.9775L42.5061 66.5715C42.5437 67.3898 42.8684 68.1687 43.4231 68.7715Z" fill="#231F20"/>
</svg>
