<svg width="169" height="117" viewBox="0 0 169 117" fill="none" xmlns="http://www.w3.org/2000/svg">
<path d="M2 101C2 101 14.5433 115 78.0035 115C141.464 115 154 101 154 101" stroke="#FEC459" stroke-width="3" stroke-linecap="round" stroke-linejoin="round"/>
<path d="M116.5 75.4982L130 -62H31L44.5 75.4982C44.5 75.4982 50.451 82 80.5035 82C110.556 82 116.5 75.4982 116.5 75.4982Z" stroke="#FEC459" stroke-width="3" stroke-linecap="round" stroke-linejoin="round"/>
<path d="M43 53C43 53 49.186 59 80.507 59C111.828 59 118 53 118 53" stroke="#FEC459" stroke-width="3" stroke-linecap="round" stroke-linejoin="round"/>
<path d="M127.321 -33.6952L139.346 -41.2515C142.71 -43.3601 146.661 -44.2965 150.599 -43.9178C154.536 -43.5391 158.243 -41.8661 161.155 -39.1541C162.997 -37.4333 164.468 -35.3445 165.474 -33.0194C166.48 -30.6943 167 -28.1832 167 -25.6445V-5.69435C167 -0.829495 165.688 3.94288 163.205 8.10691C160.721 12.271 157.162 15.6683 152.911 17.9316C149.13 19.9487 144.921 21.0018 140.648 21H122" stroke="#FEC459" stroke-width="3" stroke-linecap="round" stroke-linejoin="round"/>
</svg>
