<svg width="87" height="204" viewBox="0 0 87 204" fill="none" xmlns="http://www.w3.org/2000/svg">
<path d="M42.8726 182H-28.874L-41 69H55L42.8726 182Z" stroke="#FEC459" stroke-width="3" stroke-linecap="round" stroke-linejoin="round"/>
<path d="M65 41H-51V69H65V41Z" stroke="#FEC459" stroke-width="3" stroke-linecap="round" stroke-linejoin="round"/>
<path d="M-37.2903 19H51.2903C52.2742 19 53.2178 19.3903 53.9135 20.0851C54.6092 20.7798 55 21.7221 55 22.7047V41H-41V22.7047C-41 21.7221 -40.6092 20.7798 -39.9135 20.0851C-39.2178 19.3903 -38.2742 19 -37.2903 19Z" stroke="#FEC459" stroke-width="3" stroke-linecap="round" stroke-linejoin="round"/>
<path d="M-37 97H51" stroke="#FEC459" stroke-width="3" stroke-linecap="round" stroke-linejoin="round" stroke-dasharray="1 1"/>
<path d="M45 150H-31" stroke="#FEC459" stroke-width="3" stroke-linecap="round" stroke-linejoin="round" stroke-dasharray="1 1"/>
<path d="M24.7228 118.472C26.4514 124.789 19.9165 132.164 10.1256 134.941C0.334781 137.718 -9.00099 134.845 -10.7242 128.528C-12.4474 122.211 -5.91787 114.836 3.87299 112.059C13.6638 109.282 23.0023 112.155 24.7228 118.472Z" stroke="#FEC459" stroke-width="3" stroke-linecap="round" stroke-linejoin="round"/>
</svg>
