<svg width="163" height="163" viewBox="0 0 163 163" fill="none" xmlns="http://www.w3.org/2000/svg">
<path d="M81.49 162.99C65.3723 162.989 49.6167 158.209 36.2157 149.254C22.8147 140.298 12.3701 127.571 6.20252 112.68C0.0349765 97.7885 -1.57848 81.4029 1.56618 65.5949C4.71084 49.7869 12.4724 35.2663 23.8694 23.8694C35.2664 12.4724 49.7869 4.71085 65.5949 1.56619C81.4029 -1.57847 97.7885 0.034965 112.68 6.20251C127.571 12.3701 140.298 22.8147 149.254 36.2157C158.209 49.6167 162.989 65.3723 162.99 81.49C162.967 103.098 154.373 123.815 139.094 139.094C123.815 154.373 103.098 162.967 81.49 162.99ZM81.49 1.81303C65.7306 1.81303 50.3251 6.48625 37.2216 15.2417C24.1182 23.9972 13.9053 36.4416 7.8744 51.0014C1.84353 65.5612 0.265585 81.5824 3.34009 97.039C6.4146 112.496 14.0035 126.693 25.1471 137.837C36.2907 148.981 50.4884 156.569 65.945 159.644C81.4016 162.719 97.4228 161.141 111.983 155.11C126.542 149.079 138.987 138.866 147.742 125.762C156.498 112.659 161.171 97.2534 161.171 81.494C161.147 60.3686 152.745 40.1153 137.807 25.1774C122.869 10.2394 102.615 1.83685 81.49 1.81303Z" fill="#233435"/>
<path d="M81.588 162.176C126.096 162.176 162.176 126.096 162.176 81.588C162.176 37.0805 126.096 1 81.588 1C37.0805 1 1 37.0805 1 81.588C1 126.096 37.0805 162.176 81.588 162.176Z" fill="#EE583F"/>
<path d="M81.176 154.352C121.59 154.352 154.352 121.59 154.352 81.176C154.352 40.762 121.59 8 81.176 8C40.762 8 8 40.762 8 81.176C8 121.59 40.762 154.352 81.176 154.352Z" fill="#FEDFD9"/>
<path d="M82.083 155.166C67.4308 155.166 53.1076 150.821 40.9247 142.681C28.7418 134.54 19.2464 122.97 13.6393 109.433C8.0321 95.8965 6.56501 81.0008 9.42352 66.6302C12.282 52.2595 19.3377 39.0591 29.6984 28.6984C40.0591 18.3377 53.2595 11.282 67.6302 8.42352C82.0008 5.56501 96.8965 7.0321 110.433 12.6393C123.97 18.2464 135.54 27.7418 143.681 39.9247C151.821 52.1076 156.166 66.4308 156.166 81.083C156.144 100.724 148.331 119.555 134.443 133.443C120.555 147.332 101.724 155.144 82.083 155.166ZM82.083 8.81303C67.7896 8.81303 53.8171 13.0515 41.9325 20.9925C30.048 28.9336 20.7851 40.2205 15.3152 53.4259C9.84531 66.6313 8.41415 81.1622 11.2027 95.181C13.9912 109.2 20.8741 122.077 30.9811 132.184C41.0881 142.291 53.9652 149.174 67.9841 151.962C82.0029 154.751 96.5337 153.32 109.739 147.85C122.945 142.38 134.232 133.117 142.173 121.233C150.114 109.348 154.352 95.3755 154.352 81.082C154.33 61.9218 146.709 43.5525 133.161 30.0041C119.613 16.4557 101.243 8.83473 82.083 8.81303Z" fill="#233435"/>
<path d="M51.557 28.431C51.3673 28.5359 51.2076 28.6875 51.093 28.8714C50.9783 29.0553 50.9126 29.2655 50.902 29.482C50.8585 30.0325 50.9161 30.5863 51.072 31.116C51.2509 31.7638 51.4882 32.394 51.781 32.999C52.0903 33.647 52.403 34.2507 52.719 34.81C52.9137 35.154 53.1967 35.6043 53.568 36.161C53.9383 36.7163 54.353 37.2406 54.808 37.729C55.2178 38.1807 55.6947 38.5665 56.222 38.873C56.4202 39.006 56.6512 39.0819 56.8897 39.0923C57.1282 39.1027 57.3649 39.0472 57.574 38.932C57.9721 38.7042 58.3293 38.4115 58.631 38.066C58.9374 37.7316 59.1202 37.3026 59.149 36.85L61.731 38.257C61.5571 38.9256 61.2511 39.5526 60.831 40.101C60.3342 40.6898 59.728 41.1768 59.046 41.535C58.4077 41.9175 57.6809 42.1273 56.937 42.144C56.2531 42.1474 55.5753 42.0148 54.943 41.754C54.2934 41.4854 53.689 41.1185 53.151 40.666C52.6141 40.2207 52.1092 39.7381 51.64 39.222C51.2152 38.7566 50.8226 38.2628 50.465 37.744C50.1317 37.26 49.873 36.8527 49.689 36.522C49.471 36.1347 49.2313 35.6603 48.97 35.099C48.7001 34.5114 48.4718 33.9056 48.287 33.286C48.0886 32.625 47.9395 31.9501 47.841 31.267C47.7395 30.5933 47.7497 29.9074 47.871 29.237C47.9933 28.5804 48.2411 27.9536 48.601 27.391C49.0125 26.7743 49.5705 26.2692 50.225 25.921C50.838 25.5317 51.5246 25.2727 52.242 25.1601C52.9594 25.0476 53.6922 25.084 54.395 25.267L54.321 28.401C54.171 28.335 54 28.268 53.808 28.195C53.601 28.1207 53.3845 28.0759 53.165 28.062C52.9125 28.045 52.6589 28.0595 52.41 28.105C52.1093 28.1649 51.821 28.2751 51.557 28.431Z" fill="#073F45"/>
<path d="M64.365 20.058C65.1355 19.8305 65.9509 19.8006 66.736 19.971C67.4181 20.1338 68.0574 20.4407 68.611 20.871C69.1657 21.306 69.6483 21.8257 70.041 22.411C70.4361 22.9938 70.7855 23.6063 71.086 24.243C71.3597 24.8204 71.5972 25.4142 71.797 26.021C71.98 26.587 72.118 27.044 72.21 27.394C72.298 27.7274 72.398 28.1774 72.51 28.744C72.6315 29.3554 72.7134 29.9741 72.755 30.596C72.8025 31.2828 72.7958 31.9723 72.735 32.658C72.6771 33.349 72.5101 34.0264 72.24 34.665C71.9517 35.3572 71.5008 35.9696 70.9254 36.4504C70.3501 36.9312 69.6673 37.2662 68.935 37.427C68.2188 37.635 67.4609 37.6543 66.735 37.483C66.0721 37.3127 65.4497 37.0122 64.904 36.599C64.3421 36.1752 63.8492 35.6668 63.443 35.092C63.0341 34.5217 62.6665 33.9228 62.343 33.3C62.0493 32.7377 61.7934 32.1564 61.577 31.56C61.377 31.0067 61.2303 30.5474 61.137 30.182C61.025 29.751 60.914 29.233 60.804 28.622C60.6921 27.9855 60.6253 27.3419 60.604 26.696C60.5804 26.0066 60.6081 25.3164 60.687 24.631C60.76 23.9523 60.9449 23.2904 61.234 22.672C61.5212 22.0683 61.9214 21.5251 62.413 21.072C62.9698 20.5778 63.6405 20.2294 64.365 20.058ZM68.253 34.871C68.4911 34.8063 68.706 34.6755 68.8729 34.4938C69.0398 34.312 69.1518 34.0868 69.196 33.844C69.3533 33.227 69.4186 32.5901 69.39 31.954C69.3675 31.2619 69.2966 30.5723 69.178 29.89C69.059 29.215 68.953 28.69 68.856 28.327C68.773 28.008 68.663 27.627 68.53 27.187C68.397 26.747 68.239 26.293 68.057 25.83C67.875 25.367 67.676 24.913 67.457 24.468C67.2598 24.0598 67.0209 23.6731 66.744 23.314C66.5177 23.0155 66.2346 22.7647 65.911 22.576C65.7729 22.4942 65.6198 22.4408 65.4608 22.4192C65.3017 22.3975 65.1399 22.408 64.985 22.45C64.7683 22.51 64.5712 22.6258 64.4132 22.7858C64.2553 22.9459 64.1421 23.1446 64.085 23.362C63.9072 23.9281 63.8254 24.5199 63.843 25.113C63.8543 25.8269 63.9266 26.5385 64.059 27.24C64.1923 27.9874 64.343 28.6717 64.511 29.293C64.578 29.547 64.672 29.873 64.793 30.265C64.914 30.657 65.061 31.077 65.237 31.516C65.413 31.955 65.608 32.393 65.826 32.83C66.0249 33.2371 66.2634 33.6237 66.538 33.984C66.7605 34.2833 67.0356 34.5395 67.35 34.74C67.4829 34.824 67.632 34.879 67.7876 34.9016C67.9432 34.9241 68.1017 34.9137 68.253 34.871Z" fill="#073F45"/>
<path d="M84.04 18L84.078 20.89L78.891 20.956L78.958 26.07L82.663 26.021L82.7 28.911L78.995 28.959L79.079 35.431L75.597 35.476L75.372 18.113L84.04 18Z" fill="#073F45"/>
<path d="M97.646 20.06L97.06 22.89L91.98 21.839L90.943 26.845L94.571 27.597L93.986 30.427L90.358 29.676L89.045 36.013L85.634 35.307L89.156 18.307L97.646 20.06Z" fill="#073F45"/>
<path d="M110.517 25.031L109.331 27.666L104.601 25.536L102.815 29.501L106.193 31.022L105.006 33.658L101.628 32.136L99.842 36.1L104.572 38.231L103.385 40.866L95.48 37.306L102.611 21.473L110.517 25.031Z" fill="#073F45"/>
<path d="M121.991 32.684L120.259 34.997L116.107 31.888L113.502 35.368L116.468 37.589L114.734 39.903L111.77 37.682L109.164 41.162L113.316 44.272L111.583 46.585L104.643 41.385L115.053 27.485L121.991 32.684Z" fill="#073F45"/>
<path d="M129.406 54.298C129.297 55.0517 128.961 55.7544 128.443 56.313C127.967 56.8288 127.425 57.279 126.83 57.652C126.3 57.9772 125.742 58.2527 125.161 58.475C124.577 58.7033 123.947 58.7867 123.324 58.718C122.625 58.6235 121.963 58.3496 121.401 57.923C120.608 57.3001 119.945 56.5274 119.45 55.649L117.595 52.631L132.386 43.531L134.211 46.498C134.703 47.2427 135.043 48.0774 135.211 48.954C135.324 49.5974 135.283 50.2584 135.092 50.883C134.909 51.4345 134.601 51.9362 134.192 52.349C133.799 52.7507 133.359 53.1036 132.882 53.4C132.643 53.5467 132.388 53.6893 132.115 53.828C131.843 53.9656 131.56 54.0813 131.269 54.174C130.976 54.2663 130.675 54.3263 130.369 54.353C130.047 54.3811 129.723 54.3626 129.406 54.298ZM121.971 54.23C122.135 54.5045 122.326 54.7612 122.543 54.996C122.717 55.1862 122.936 55.3305 123.179 55.416C123.444 55.4968 123.727 55.4993 123.994 55.423C124.384 55.313 124.755 55.1444 125.094 54.923C125.497 54.6923 125.86 54.3997 126.172 54.056C126.375 53.8297 126.515 53.5537 126.577 53.256C126.621 52.9955 126.592 52.7279 126.493 52.483C126.383 52.2099 126.249 51.9469 126.093 51.697L125.899 51.382L121.777 53.916L121.971 54.23ZM131.139 50.68C131.378 50.5635 131.591 50.3996 131.764 50.1983C131.938 49.997 132.069 49.7625 132.149 49.509C132.225 49.0371 132.114 48.5541 131.839 48.163L131.646 47.846L128.153 49.994L128.346 50.31C128.464 50.5451 128.637 50.7484 128.85 50.9027C129.063 51.0571 129.31 51.158 129.57 51.197C130.133 51.1862 130.679 51.0061 131.139 50.68Z" fill="#073F45"/>
<path d="M141.8 62.713L142.862 66.03L131.286 69.737C130.615 69.9554 129.908 70.045 129.204 70.001C128.526 69.9612 127.862 69.7957 127.245 69.513C126.627 69.2258 126.073 68.8177 125.616 68.313C125.124 67.7704 124.758 67.1261 124.543 66.426C124.201 65.425 124.181 64.3418 124.488 63.3293C124.794 62.3167 125.411 61.4261 126.251 60.783C126.806 60.3518 127.434 60.023 128.105 59.812L139.679 56.105L140.742 59.422L128.604 63.309C128.386 63.3768 128.184 63.487 128.008 63.6335C127.833 63.7799 127.689 63.9596 127.583 64.1621C127.478 64.3647 127.414 64.5861 127.394 64.8136C127.375 65.041 127.401 65.2701 127.471 65.4876C127.54 65.705 127.652 65.9064 127.8 66.0803C127.948 66.2542 128.129 66.3971 128.333 66.5007C128.536 66.6044 128.758 66.6666 128.986 66.684C129.213 66.7014 129.442 66.6735 129.659 66.602L141.8 62.713Z" fill="#073F45"/>
<path d="M144.322 75.551C144.392 76.3491 144.276 77.1526 143.982 77.898C143.715 78.5355 143.32 79.1114 142.822 79.59C142.328 80.0575 141.762 80.4421 141.146 80.729C140.542 81.0161 139.915 81.2532 139.272 81.438C138.688 81.6071 138.092 81.7341 137.489 81.818C136.922 81.8927 136.459 81.9413 136.099 81.964C135.753 81.985 135.299 81.993 134.726 81.987C134.109 81.9753 133.494 81.9215 132.885 81.826C132.207 81.7212 131.538 81.563 130.885 81.353C130.224 81.1436 129.6 80.8311 129.036 80.427C128.468 80.0158 127.99 79.4931 127.631 78.891C127.232 78.1928 127.01 77.4076 126.985 76.604L126.737 72.535L144.07 71.482L144.322 75.551ZM129.872 76.405C129.883 76.6418 129.958 76.8714 130.087 77.0702C130.216 77.2689 130.396 77.4297 130.608 77.536C131.119 77.8137 131.67 78.0097 132.241 78.117C132.861 78.2423 133.49 78.3159 134.122 78.337C134.749 78.357 135.252 78.355 135.631 78.331C136.14 78.2997 136.734 78.239 137.414 78.149C138.068 78.0632 138.714 77.9203 139.343 77.722C139.893 77.5577 140.409 77.2959 140.866 76.949C141.058 76.8113 141.212 76.6263 141.312 76.4119C141.412 76.1974 141.454 75.9608 141.436 75.725L141.401 75.135L129.838 75.835L129.872 76.405Z" fill="#073F45"/>
<path d="M143.815 90.929C143.691 91.7225 143.383 92.476 142.915 93.129C142.503 93.6837 141.981 94.1476 141.382 94.492C140.791 94.8262 140.149 95.0625 139.482 95.192C138.826 95.3233 138.161 95.4019 137.492 95.427C136.884 95.4507 136.275 95.431 135.67 95.368C135.103 95.3014 134.641 95.237 134.286 95.175C133.945 95.112 133.501 95.009 132.949 94.865C131.69 94.5284 130.486 94.0103 129.376 93.327C128.785 92.964 128.254 92.5101 127.804 91.982C127.352 91.4462 127.013 90.8239 126.809 90.153C126.59 89.3791 126.564 88.5634 126.733 87.777L127.473 83.77L144.549 86.921L143.815 90.929ZM129.585 88.278C129.539 88.5107 129.556 88.7515 129.634 88.9756C129.712 89.1997 129.848 89.399 130.028 89.553C130.456 89.9454 130.943 90.268 131.471 90.509C132.042 90.7814 132.636 91.0049 133.245 91.177C133.85 91.3464 134.338 91.4657 134.71 91.535C135.212 91.627 135.804 91.7107 136.485 91.786C137.141 91.8608 137.801 91.8782 138.46 91.838C139.034 91.8102 139.598 91.6798 140.126 91.453C140.345 91.3656 140.538 91.2231 140.686 91.0394C140.835 90.8556 140.933 90.6368 140.972 90.404L141.08 89.82L129.688 87.72L129.585 88.278Z" fill="#073F45"/>
<path d="M139.172 106.717L137.811 109.922L129.351 102.544L123.19 99.927L124.551 96.721L130.712 99.339L141.896 100.307L140.534 103.512L132.942 102.177L139.172 106.717Z" fill="#073F45"/>
<path d="M116.241 130.771C116.419 130.648 116.563 130.482 116.659 130.288C116.755 130.093 116.8 129.878 116.789 129.662C116.778 129.11 116.666 128.565 116.459 128.054C116.218 127.426 115.92 126.822 115.569 126.248C115.198 125.634 114.828 125.064 114.459 124.539C114.232 124.216 113.906 123.795 113.483 123.278C113.059 122.761 112.595 122.279 112.093 121.837C111.642 121.427 111.13 121.09 110.575 120.837C110.365 120.724 110.128 120.671 109.89 120.684C109.651 120.697 109.421 120.775 109.225 120.911C108.85 121.175 108.523 121.502 108.258 121.876C107.984 122.238 107.843 122.683 107.858 123.137L105.151 121.988C105.26 121.306 105.504 120.652 105.869 120.065C106.306 119.431 106.862 118.888 107.506 118.465C108.104 118.021 108.806 117.741 109.545 117.652C110.225 117.582 110.913 117.648 111.568 117.845C112.241 118.049 112.878 118.355 113.458 118.752C114.036 119.143 114.586 119.575 115.103 120.043C115.571 120.464 116.01 120.916 116.417 121.397C116.793 121.848 117.09 122.228 117.308 122.537C117.564 122.902 117.849 123.352 118.163 123.885C118.49 124.443 118.776 125.023 119.02 125.622C119.283 126.26 119.497 126.917 119.661 127.587C119.829 128.248 119.886 128.932 119.831 129.612C119.773 130.277 119.587 130.925 119.283 131.52C118.934 132.174 118.428 132.732 117.811 133.142C117.239 133.589 116.581 133.914 115.878 134.096C115.175 134.278 114.442 134.313 113.725 134.2L113.491 131.074C113.648 131.125 113.826 131.174 114.023 131.228C114.236 131.282 114.455 131.306 114.675 131.299C114.928 131.29 115.179 131.251 115.423 131.181C115.717 131.092 115.994 130.953 116.241 130.771Z" fill="#073F45"/>
<path d="M104.332 140.353C103.588 140.656 102.78 140.766 101.982 140.675C101.288 140.579 100.622 140.337 100.028 139.964C99.4328 139.587 98.9018 139.117 98.455 138.572C98.0037 138.032 97.5951 137.457 97.233 136.853C96.9044 136.305 96.6102 135.737 96.352 135.153C96.114 134.61 95.931 134.166 95.805 133.827C95.679 133.488 95.54 133.065 95.369 132.514C95.1896 131.917 95.0477 131.31 94.944 130.695C94.8286 130.016 94.7678 129.329 94.762 128.641C94.7539 127.947 94.8551 127.256 95.062 126.593C95.2812 125.876 95.6698 125.223 96.195 124.689C96.7201 124.154 97.3664 123.754 98.079 123.522C98.7711 123.244 99.5239 123.151 100.263 123.252C100.94 123.356 101.589 123.594 102.173 123.952C102.773 124.318 103.313 124.775 103.773 125.306C104.236 125.834 104.66 126.394 105.043 126.983C105.391 127.513 105.703 128.066 105.976 128.638C106.225 129.171 106.416 129.615 106.549 129.968C106.703 130.385 106.866 130.891 107.034 131.486C107.209 132.109 107.339 132.744 107.422 133.386C107.513 134.07 107.554 134.759 107.543 135.449C107.537 136.131 107.418 136.806 107.191 137.449C106.966 138.079 106.621 138.659 106.175 139.158C105.669 139.702 105.036 140.113 104.332 140.353ZM99.009 125.994C98.7788 126.082 98.5782 126.234 98.43 126.431C98.2818 126.628 98.192 126.862 98.171 127.108C98.0777 127.738 98.0777 128.378 98.171 129.008C98.2605 129.694 98.3985 130.373 98.584 131.04C98.7687 131.701 98.927 132.209 99.059 132.563C99.1737 132.872 99.319 133.238 99.495 133.663C99.67 134.09 99.873 134.525 100.095 134.969C100.317 135.413 100.565 135.842 100.828 136.263C101.064 136.65 101.339 137.011 101.65 137.341C101.904 137.616 102.21 137.838 102.55 137.994C102.696 138.062 102.853 138.1 103.014 138.106C103.175 138.112 103.335 138.086 103.485 138.029C103.694 137.947 103.879 137.812 104.019 137.636C104.16 137.461 104.251 137.251 104.285 137.029C104.407 136.449 104.43 135.853 104.354 135.265C104.274 134.554 104.132 133.852 103.931 133.165C103.721 132.432 103.504 131.765 103.281 131.165C103.19 130.917 103.064 130.603 102.906 130.224C102.748 129.845 102.559 129.444 102.341 129.024C102.123 128.604 101.885 128.187 101.626 127.774C101.389 127.388 101.113 127.026 100.804 126.695C100.553 126.418 100.254 126.19 99.921 126.022C99.7793 125.954 99.625 125.917 99.468 125.912C99.3109 125.907 99.1546 125.935 99.009 125.994Z" fill="#073F45"/>
<path d="M84.9 144.326L84.583 141.452L89.74 140.885L89.181 135.803L85.497 136.208L85.181 133.336L88.864 132.93L88.155 126.496L91.617 126.116L93.517 143.376L84.9 144.326Z" fill="#073F45"/>
<path d="M71.161 143.59L71.471 140.716L76.629 141.273L77.177 136.189L73.492 135.789L73.802 132.915L77.486 133.315L78.18 126.881L81.642 127.254L79.779 144.519L71.161 143.59Z" fill="#073F45"/>
<path d="M57.875 139.895L58.8 137.156L63.714 138.816L65.105 134.698L61.596 133.512L62.519 130.774L66.029 131.96L67.42 127.842L62.506 126.182L63.43 123.444L71.644 126.218L66.089 142.67L57.875 139.895Z" fill="#073F45"/>
<path d="M45.708 133.397L47.208 130.925L51.644 133.615L53.898 129.899L50.73 127.977L52.23 125.505L55.398 127.427L57.652 123.709L53.216 121.021L54.716 118.549L62.13 123.049L53.125 137.897L45.708 133.397Z" fill="#073F45"/>
<path d="M36.251 112.62C36.2861 111.859 36.5522 111.126 37.014 110.52C37.4371 109.96 37.9332 109.458 38.489 109.029C38.9839 108.654 39.5125 108.325 40.068 108.047C40.6255 107.764 41.2429 107.62 41.868 107.627C42.5729 107.652 43.2593 107.859 43.861 108.227C44.7121 108.771 45.4484 109.477 46.028 110.305L48.169 113.126L34.337 123.626L32.231 120.852C31.6674 120.159 31.2466 119.361 30.993 118.505C30.817 117.876 30.7927 117.214 30.922 116.573C31.05 116.007 31.3063 115.478 31.671 115.027C32.0224 114.589 32.4253 114.194 32.871 113.852C33.095 113.683 33.3353 113.516 33.592 113.352C33.8494 113.188 34.12 113.045 34.401 112.926C34.6846 112.805 34.9807 112.715 35.284 112.658C35.6028 112.599 35.9285 112.586 36.251 112.62ZM34.88 116.39C34.653 116.529 34.4569 116.713 34.3037 116.931C34.1505 117.149 34.0434 117.395 33.989 117.656C33.9596 118.133 34.1175 118.602 34.429 118.964L34.652 119.264L37.918 116.784L37.695 116.484C37.5549 116.262 37.3638 116.078 37.1376 115.945C36.9115 115.812 36.6568 115.736 36.395 115.722C35.8342 115.787 35.3061 116.02 34.88 116.39ZM43.657 111.961C43.4674 111.704 43.2516 111.467 43.013 111.255C42.8207 111.083 42.5894 110.96 42.339 110.898C42.0665 110.845 41.7847 110.871 41.526 110.971C41.1494 111.12 40.7975 111.324 40.482 111.578C40.1044 111.847 39.7713 112.173 39.495 112.545C39.3158 112.791 39.2038 113.08 39.17 113.382C39.152 113.646 39.2073 113.91 39.33 114.145C39.464 114.407 39.6216 114.655 39.801 114.888L40.025 115.183L43.881 112.256L43.657 111.961Z" fill="#073F45"/>
<path d="M23.088 105.455L21.707 102.255L32.861 97.432C33.5073 97.1481 34.2016 96.9893 34.907 96.964C35.5861 96.9371 36.2643 97.0368 36.907 97.258C37.5505 97.4839 38.1422 97.8365 38.647 98.295C39.1894 98.787 39.6168 99.3923 39.899 100.068C40.3377 101.031 40.4631 102.106 40.2575 103.144C40.0519 104.182 39.5256 105.129 38.753 105.851C38.2429 106.335 37.6502 106.723 37.003 106.997L25.847 111.82L24.465 108.62L36.165 103.562C36.5862 103.38 36.9178 103.038 37.0868 102.611C37.2559 102.185 37.2486 101.709 37.0665 101.287C36.8844 100.866 36.5425 100.535 36.116 100.366C35.6894 100.197 35.2132 100.204 34.792 100.386L23.088 105.455Z" fill="#073F45"/>
<path d="M19.327 92.916C19.1788 92.1285 19.2168 91.3172 19.438 90.547C19.6404 89.8869 19.9771 89.2758 20.427 88.752C20.8729 88.238 21.3986 87.7991 21.984 87.452C22.5593 87.109 23.1613 86.8128 23.784 86.566C24.3494 86.3413 24.9298 86.1565 25.521 86.013C26.076 85.885 26.532 85.79 26.89 85.734C27.232 85.679 27.69 85.628 28.253 85.578C28.8682 85.5292 29.486 85.5229 30.102 85.559C30.7856 85.5977 31.465 85.6903 32.134 85.836C32.8131 85.9801 33.4651 86.2305 34.066 86.578C34.6705 86.9318 35.1966 87.4051 35.612 87.969C36.0768 88.6254 36.3741 89.3855 36.478 90.183L37.12 94.208L19.97 96.94L19.327 92.916ZM33.627 90.663C33.5927 90.4283 33.4965 90.207 33.3481 90.0218C33.1997 89.8367 33.0047 89.6946 32.783 89.61C32.2485 89.3824 31.6816 89.24 31.103 89.188C30.4737 89.1242 29.8402 89.1125 29.209 89.153C28.582 89.195 28.081 89.244 27.709 89.305C27.2057 89.3864 26.6197 89.505 25.951 89.661C25.3083 89.8097 24.6799 90.0145 24.073 90.273C23.5413 90.4903 23.0529 90.8012 22.631 91.191C22.4535 91.3466 22.3191 91.5453 22.2406 91.7679C22.1622 91.9905 22.1423 92.2295 22.183 92.462L22.276 93.047L33.717 91.225L33.627 90.663Z" fill="#073F45"/>
<path d="M18.337 77.555C18.383 76.7549 18.6152 75.9766 19.015 75.282C19.3709 74.6909 19.8456 74.1802 20.409 73.782C20.964 73.3893 21.5794 73.09 22.231 72.896C23.4555 72.5242 24.7294 72.3411 26.009 72.353C26.579 72.3596 27.0457 72.3783 27.409 72.409C27.7537 72.4396 28.2073 72.4993 28.77 72.588C29.3792 72.6884 29.9806 72.8311 30.57 73.015C31.2238 73.2175 31.8608 73.4709 32.475 73.773C33.1008 74.076 33.6746 74.4763 34.175 74.959C34.676 75.4491 35.0727 76.0355 35.341 76.683C35.6331 77.4321 35.7384 78.241 35.648 79.04L35.3 83.1L18 81.62L18.337 77.555ZM32.758 78.813C32.7809 78.5769 32.7406 78.339 32.6413 78.1236C32.542 77.9081 32.3873 77.723 32.193 77.587C31.729 77.2379 31.2131 76.9639 30.664 76.775C30.0689 76.56 29.4567 76.3954 28.834 76.283C28.2153 76.1717 27.7173 76.0996 27.34 76.067C26.8313 76.0243 26.2343 75.9983 25.549 75.989C24.8892 75.9782 24.2296 76.0254 23.578 76.13C23.0096 76.2132 22.4606 76.3975 21.957 76.674C21.7475 76.7825 21.5693 76.943 21.4398 77.1402C21.3102 77.3374 21.2335 77.5646 21.217 77.8L21.167 78.391L32.71 79.379L32.758 78.813Z" fill="#073F45"/>
<path d="M21.432 61.369L22.475 58.046L31.612 64.567L37.998 66.573L36.955 69.895L30.568 67.895L19.345 68.02L20.388 64.696L28.074 65.286L21.432 61.369Z" fill="#073F45"/>
<path d="M116.694 79.379C116.694 87.4752 114.076 93.4208 112.383 100.55C109.771 111.548 92.711 114.274 81.2935 115.395C68.1228 116.691 61.3033 112.286 54.8142 105.013C49.2253 98.7492 46 89.865 46 80.8104C46 69.8028 51.3061 60.3065 59.1809 53.8078C65.3058 48.7544 72.6988 46 81.2614 46C90.8881 46 97.886 47.7142 104.272 53.9451C110.867 60.3814 116.694 69.437 116.694 79.379Z" fill="#FBC654"/>
<path d="M66.2316 51.4841C67.6133 50.7769 69.045 50.172 70.5152 49.6744C67.3607 50.7278 64.3946 52.278 61.7286 54.2664C61.0622 54.7669 60.4027 55.2803 59.7783 55.8334C59.4663 56.1099 59.1379 56.3688 58.8393 56.6607L57.9315 57.5249C56.7372 58.7007 55.6286 59.9604 54.6142 61.2945L54.2292 61.7924L53.8679 62.309L53.1526 63.3466C52.7184 64.0659 52.249 64.7652 51.8647 65.5143C51.0499 66.9882 50.3538 68.5246 49.783 70.109L49.3754 71.3042C49.2398 71.7029 49.1439 72.1135 49.0263 72.5175C48.78 73.3232 48.6348 74.1538 48.4509 74.9746C48.1445 76.6269 47.9688 78.3008 47.9253 79.9808C47.8703 81.6506 47.9424 83.3221 48.1408 84.981C48.3243 86.6328 48.6233 88.2696 49.0358 89.8795C49.4449 91.4805 49.9606 93.0523 50.5795 94.5845C51.2061 96.1024 51.9358 97.5756 52.7637 98.9939C53.593 100.399 54.5319 101.736 55.5716 102.993C55.8343 103.3 56.0889 103.623 56.3599 103.916L57.1678 104.803C57.4339 105.098 57.7232 105.379 57.9991 105.666C58.275 105.954 58.5545 106.239 58.8498 106.509C59.9931 107.623 61.2232 108.644 62.5284 109.562L63.518 110.23L64.547 110.832C64.8844 111.043 65.245 111.209 65.5981 111.386C65.9561 111.554 66.3 111.753 66.6708 111.89C67.036 112.039 67.4889 112.239 67.9951 112.434C68.5107 112.603 69.0697 112.802 69.6373 112.972C70.2104 113.116 70.7829 113.27 71.3124 113.392L72.7178 113.647C75.8259 114.14 79.1833 114.016 82.5209 113.67C85.9321 113.34 89.322 112.819 92.6749 112.11C94.3713 111.737 96.0579 111.295 97.7109 110.757C99.3619 110.231 100.969 109.576 102.517 108.798C104.054 108.038 105.491 107.09 106.794 105.977C108.072 104.882 109.135 103.561 109.931 102.079L110.197 101.527C110.24 101.435 110.286 101.345 110.326 101.253L110.432 100.972L110.639 100.417C110.708 100.234 110.747 100.044 110.803 99.8606C110.859 99.6774 110.901 99.4938 110.951 99.3131C110.99 99.1465 111.028 98.9816 111.066 98.8185C111.142 98.4933 111.21 98.1751 111.287 97.866C111.583 96.63 111.866 95.5291 112.096 94.6081C112.564 92.7665 112.815 91.6429 112.815 91.6429C113.186 90.1551 113.469 88.6452 113.05 90.1183C112.662 91.6015 111.896 94.1581 111.276 96.3436C110.965 97.437 110.704 98.4431 110.514 99.1745C110.403 99.5516 110.307 99.8593 110.238 100.07C110.207 100.181 110.159 100.288 110.096 100.385C110.118 100.298 110.146 100.212 110.179 100.128L110.368 99.4432C110.528 98.8786 110.681 98.1527 110.885 97.4173C110.899 97.1709 110.937 96.9264 111.001 96.6878C111.095 96.2464 111.227 95.6434 111.386 94.997C111.699 93.7033 112.083 92.2298 112.282 91.4954C112.46 90.7551 113.156 88.1749 113.554 85.5397C113.661 84.8828 113.734 84.2207 113.807 83.5897C113.84 83.2738 113.859 82.9641 113.885 82.6661C113.91 82.3682 113.931 82.0812 113.938 81.8082C114.001 80.7181 113.971 79.8635 113.977 79.4845C113.961 78.3431 113.929 78.3428 113.89 79.0798C113.869 79.45 113.839 79.9995 113.801 80.6781C113.748 81.3576 113.684 82.1689 113.563 83.0563C113.453 83.9431 113.284 84.9078 113.089 85.8984C112.88 86.8867 112.646 87.9019 112.377 88.8938C111.85 90.878 111.252 92.778 110.819 94.239C109.945 97.1641 110.716 94.2091 110.655 94.1923C110.243 95.6608 109.932 96.7686 109.635 97.8824C109.563 98.1619 109.491 98.4408 109.418 98.7268C109.383 98.874 109.344 99.0086 109.304 99.1397L109.186 99.5473C108.997 100.154 108.757 100.743 108.468 101.308C108.468 101.308 108.408 101.426 108.278 101.629C108.108 101.925 107.921 102.211 107.719 102.486C107.049 103.414 106.256 104.247 105.362 104.962C104.236 105.861 103.017 106.636 101.724 107.273C100.54 107.86 99.3205 108.372 98.0722 108.806L97.7871 108.909C97.5901 108.983 97.2817 109.087 96.8369 109.229C95.9501 109.515 94.5148 109.949 92.3136 110.434C91.5788 110.595 91.2093 110.668 91.027 110.716C90.8448 110.764 90.8461 110.771 90.848 110.782L90.8402 110.74C90.1031 110.902 88.9917 111.111 87.8713 111.278C86.751 111.445 85.628 111.598 84.8779 111.7L84.8723 111.658C84.1254 111.765 83.3752 111.856 82.6234 111.938C81.8716 112.021 81.1159 112.1 80.3739 112.146L79.2572 112.226C78.8847 112.257 78.5123 112.247 78.1405 112.259L77.0237 112.284L75.9103 112.251L75.9119 112.209L75.3582 112.189C75.1797 112.186 75.0014 112.174 74.8241 112.153L73.8825 112.057C73.6072 112.027 73.377 112.007 73.218 111.981C73.1344 111.97 73.0519 111.952 72.971 111.927L72.9769 111.885L71.6855 111.663C71.2145 111.564 70.7264 111.438 70.2801 111.334C70.1691 111.307 70.059 111.285 69.9559 111.254L69.6603 111.161L69.1627 111C69.0082 110.957 68.8573 110.902 68.7114 110.836L68.6976 110.876C67.3942 110.422 66.139 109.84 64.9507 109.138C64.3766 108.828 63.8619 108.448 63.3413 108.108C63.0786 107.941 62.8444 107.736 62.5987 107.556C62.3579 107.369 62.1126 107.193 61.8817 107.001C60.962 106.231 60.1032 105.453 59.3054 104.636C58.9073 104.227 58.5076 103.829 58.1335 103.406C57.7531 102.989 57.3698 102.577 57.0243 102.149C56.5402 101.594 56.1007 100.987 55.6448 100.38L54.9998 99.4314C54.7784 99.1164 54.5908 98.7745 54.3823 98.446C53.5567 97.0788 52.833 95.6525 52.2172 94.1789C50.9299 91.0739 50.0973 87.7995 49.7449 84.4568C49.5588 82.7465 49.5046 81.0244 49.5827 79.3058L49.5912 78.9829L49.6191 78.6617L49.6763 78.0186C49.717 77.5916 49.742 77.1597 49.8159 76.7354L50.0061 75.459C50.0875 75.037 50.1818 74.6176 50.2688 74.1968C50.6354 72.5256 51.149 70.89 51.8036 69.3092L52.0405 68.718L52.3098 68.1426C52.4931 67.7612 52.6596 67.3727 52.8547 66.9996L53.4515 65.8898L53.6006 65.6135L53.7648 65.3462L54.0903 64.8121C54.4631 64.1726 54.8894 63.5676 55.0845 63.252C55.2796 62.9364 55.2648 62.9236 54.826 63.524C55.0385 63.2201 55.2431 62.9101 55.4625 62.6102L56.1431 61.727C56.2574 61.5802 56.3681 61.4314 56.485 61.2866L56.8463 60.8632L57.5689 60.0168C58.587 58.9362 58.8317 58.6544 59.0955 58.3923C59.2242 58.258 59.3533 58.1236 59.5845 57.8941C59.7011 57.7804 59.8391 57.6385 60.0227 57.469L60.72 56.8611C62.9565 54.8923 65.4682 53.2602 68.1757 52.0162C69.5276 51.3966 70.9253 50.8826 72.3565 50.4787C73.7871 50.0664 75.2463 49.7613 76.7222 49.566C78.201 49.3717 79.6904 49.2702 81.1819 49.2622C82.6865 49.2697 84.1941 49.2983 85.6865 49.4215C87.1748 49.5351 88.6549 49.7389 90.1186 50.0317C91.5683 50.3347 92.9898 50.76 94.3677 51.3031C95.7402 51.8475 97.052 52.5338 98.2818 53.351C99.5207 54.1623 100.682 55.0864 101.751 56.1116C102.838 57.1417 103.871 58.2276 104.846 59.3648C105.345 59.9232 105.805 60.5144 106.274 61.0987C106.509 61.3904 106.723 61.6975 106.949 61.996C107.175 62.2946 107.399 62.5938 107.606 62.9065L108.237 63.8334C108.444 64.1441 108.633 64.4659 108.833 64.7819C109.241 65.4086 109.583 66.072 109.954 66.7197C110.129 67.0482 110.289 67.3855 110.457 67.7179L110.707 68.2178C110.79 68.3846 110.858 68.5577 110.935 68.7272L111.382 69.75C111.519 70.0955 111.645 70.4453 111.776 70.7928L111.973 71.3147C112.034 71.4901 112.085 71.6684 112.141 71.8455L112.471 72.9083L112.738 73.9876L112.869 74.5276L112.968 75.0738L113.163 76.1668L113.283 77.2694L113.343 77.8206L113.364 78.374L113.408 79.4815C113.387 76.7586 112.939 74.0557 112.08 71.4717C111.197 68.8784 109.992 66.4061 108.494 64.1125C108.502 64.1069 108.516 64.0981 108.428 63.9319C108.34 63.7657 108.132 63.4533 107.71 62.8326C106.39 60.9377 104.924 59.1487 103.326 57.4819C102.916 57.0697 102.511 56.6525 102.1 56.2512L101.472 55.6698C101.264 55.4764 101.058 55.2813 100.838 55.1069C100.403 54.7502 99.9838 54.3803 99.5332 54.0657L98.8743 53.5789L98.1987 53.1382C96.5539 52.0749 94.7786 51.2286 92.9169 50.6203C91.5311 50.18 90.1171 49.8339 88.6846 49.5844L87.5275 49.3965L86.0823 49.2168C84.4538 49.0598 82.8185 48.985 81.1825 48.9928C82.696 49.0014 84.2082 49.0299 85.7111 49.1541L85.7164 49.0904C84.2131 48.961 82.6014 48.9183 80.948 48.9179C79.2676 48.9206 77.5899 49.0524 75.9297 49.3121C74.2698 49.5688 72.6333 49.9585 71.0358 50.4774C69.5284 50.9682 68.0615 51.5754 66.6481 52.2934L66.6192 52.2369C66.1771 52.4767 65.7324 52.7128 65.2962 52.9624C64.8692 53.2272 64.4278 53.4715 64.0107 53.7527C63.6859 53.9458 63.6165 53.9718 63.7607 53.8607C64.0908 53.6122 64.4342 53.3819 64.7894 53.171C66.3931 52.1754 68.0906 51.3393 69.8574 50.6748C70.1316 50.5635 70.4157 50.4646 70.7071 50.37C70.9984 50.2754 71.2894 50.1706 71.5883 50.077C72.1916 49.9082 72.8035 49.7138 73.4355 49.5755C74.7008 49.2672 75.9843 49.0389 77.2783 48.892C79.5838 48.652 81.9047 48.5946 84.2193 48.7202L84.2233 48.6352C83.7162 48.6184 83.2094 48.5915 82.7019 48.5829L81.1812 48.5711V48.5287C83.3876 48.5071 85.5929 48.631 87.783 48.8996C89.8796 49.1566 91.9418 49.6426 93.9325 50.349C94.4317 50.5099 94.9053 50.7369 95.3918 50.933C95.8743 51.1389 96.3377 51.3885 96.8133 51.6148C97.2702 51.8776 97.7369 52.1259 98.1872 52.4064L98.8559 52.8412L99.1912 53.0597L99.5148 53.2968C101.291 54.6089 102.927 56.0995 104.399 57.7453C103.885 57.182 103.095 56.355 102.262 55.5723C101.843 55.1831 101.428 54.7899 101.016 54.4647L100.441 53.9905C100.262 53.843 100.084 53.7225 99.9322 53.6072C99.9388 53.5986 99.945 53.5904 99.7962 53.4709C99.4501 53.1912 99.0872 52.933 98.7094 52.6977C100.053 53.5796 101.309 54.5871 102.462 55.7066C103.682 56.8897 104.841 58.1336 105.936 59.4335C107.019 60.7428 108.033 62.1077 108.974 63.5226C109.847 64.8692 110.64 66.2659 111.349 67.7054C111.529 68.0417 111.599 68.2198 111.612 68.2142C111.603 68.1666 111.589 68.1204 111.568 68.0766C111.537 67.9859 111.479 67.8552 111.398 67.6824C110.766 66.2896 110.034 64.9444 109.208 63.6573C108.102 61.9439 106.876 60.311 105.539 58.7707C105.228 58.4094 104.915 58.0461 104.583 57.6957C104.251 57.3452 103.928 56.9747 103.57 56.6243C102.869 55.9083 102.115 55.1693 101.235 54.428L101.262 54.3951C102.611 55.5678 103.881 56.8284 105.064 58.1686C106.248 59.5054 107.358 60.9055 108.39 62.3626C108.825 62.9932 108.423 62.3393 107.981 61.7129C107.54 61.0866 107.095 60.4612 107.558 61.0705L108.244 61.996L108.894 62.9485L109.218 63.4244L109.525 63.9122L110.141 64.8877C108.833 62.6863 107.328 60.6085 105.644 58.68C104.775 57.6572 103.84 56.6946 102.926 55.7795C102.696 55.5496 102.455 55.3374 102.224 55.1193C101.987 54.9068 101.769 54.6799 101.525 54.4868C101.045 54.0926 100.597 53.689 100.123 53.3553C99.8127 53.1253 99.5157 52.8783 99.2129 52.6796L98.3918 52.1242C98.1131 51.9604 97.8428 51.7827 97.5819 51.5918C95.9751 50.6934 94.2717 49.9797 92.5044 49.4645C90.9285 49.0074 89.3202 48.6706 87.6933 48.4571C86.1658 48.2664 84.7301 48.1427 83.3861 48.086C82.7147 48.0436 82.0687 48.0423 81.445 48.018C80.8209 48.0098 80.2143 48.0095 79.6346 48.018C77.6976 48.0843 75.7705 48.3245 73.8766 48.7357C72.5031 49.0419 71.1506 49.4351 69.8271 49.9131C68.5992 50.3668 67.3987 50.8913 66.2316 51.4841Z" fill="#073F45"/>
<path d="M86.7599 100.159C86.7674 100.209 87.0512 100.166 86.6443 100.328C86.483 100.389 86.325 100.446 86.1683 100.498L85.6987 100.624C85.3912 100.711 85.0828 100.756 84.779 100.814C84.4752 100.872 84.1638 100.898 83.8508 100.951C83.5352 100.989 83.2113 101.028 82.8717 101.078L82.7804 101.166C79.5993 101.299 76.4343 100.647 73.5642 99.2691C73.5971 99.3197 73.6086 99.3558 73.4194 99.2714C72.4492 98.7552 71.5389 98.1335 70.7051 97.4177L70.2837 97.0712C70.2284 97.0254 70.1614 96.9963 70.0902 96.9871L69.5177 96.4287L69.0251 95.8963C66.8533 93.6421 65.3565 90.8247 64.704 87.7633C64.6659 87.5662 64.6173 87.3728 64.5868 87.1747L64.4938 86.5793C64.4764 86.4807 64.4639 86.3799 64.4551 86.2794L64.4262 86.0117C64.4143 85.9309 64.3999 85.8442 64.3933 85.7555L64.369 85.48C64.3572 85.4471 64.3868 85.4537 64.4071 85.4514L64.4728 85.4471L64.6042 85.4386L64.8807 85.4212L64.9744 85.4169L65.1356 85.4126L65.4585 85.4041L70.7195 85.2651C72.2304 85.1906 73.7412 85.116 75.1966 85.0815C77.3532 85.0507 80.1049 85.1036 82.2076 85.1144C81.8854 84.828 87.0105 84.6874 85.988 84.3984C87.3889 84.4043 89.4939 84.4141 89.6009 84.3327C89.9268 84.09 91.0054 83.8098 94.7277 83.6633C96.1847 83.6305 98.4217 83.7313 98.9354 83.682C99.7444 83.6042 97.0471 83.5109 97.8558 83.4331C87.0289 83.3451 76.6053 83.4505 65.7025 83.4482L65.2933 83.46L64.6062 83.4712C64.2281 83.4768 63.8074 83.4745 63.3705 83.4863L62.69 83.5027C62.576 83.5086 62.4463 83.5027 62.3402 83.5181C62.3442 83.6416 62.3481 83.767 62.352 83.8942C62.3682 84.4002 62.3853 84.9362 62.4033 85.502C62.4052 85.6406 62.4154 85.7841 62.4286 85.9289C62.4384 86.0475 62.4483 86.1674 62.4585 86.2902C62.4739 86.4544 62.4824 86.622 62.5094 86.7918C62.806 89.2667 63.5844 91.6595 64.8006 93.8353C65.2702 94.6732 65.804 95.4735 66.3972 96.229C67.0047 97.0132 67.676 97.7457 68.4043 98.4191C69.8619 99.7878 71.5311 100.912 73.3474 101.748C75.0513 102.537 76.8638 103.066 78.7244 103.317C79.5565 103.43 80.3949 103.489 81.2344 103.494C81.9817 103.492 82.7283 103.449 83.4708 103.365C84.6002 103.234 85.7161 103.005 86.8062 102.682C87.0033 102.619 87.2003 102.549 87.3944 102.482C89.2685 101.844 91.0251 100.903 92.5944 99.6964C94.0446 98.5802 95.3107 97.2434 96.3466 95.7347C97.1426 94.5248 97.7924 93.2249 98.2824 91.862C98.1254 92.1576 97.9714 92.4424 97.8226 92.7087L97.3684 93.4412C97.9345 92.4322 98.3768 91.3585 98.6854 90.2434C98.7863 89.8703 98.8497 89.5655 98.9022 89.3267C98.9482 89.0856 98.9679 88.9057 98.9814 88.7802C99.0047 88.5286 98.9774 88.4892 98.9183 88.5775C98.8196 88.759 98.7348 88.9476 98.6644 89.1418C98.5524 89.4 98.4158 89.7002 98.2913 89.9629C97.9468 90.7229 98.1826 89.6279 97.6807 90.8143C97.9532 90.0915 98.1764 89.3511 98.3488 88.5982C98.335 88.5677 98.2903 88.727 98.2319 88.972C98.1734 89.217 98.0745 89.5422 97.9908 89.8542C97.7973 90.4704 97.5943 91.0116 97.6429 90.6878C97.9666 89.8113 98.2096 88.9072 98.3691 87.9867C98.3375 88.0567 98.3131 88.1298 98.2962 88.2047C98.2634 88.3089 98.2256 88.4409 98.1855 88.591C98.1455 88.7411 98.1024 88.9093 98.0568 89.0837L97.8978 89.6128C97.6814 90.3173 97.4268 90.9469 97.3992 90.8609L97.6157 90.2891L97.7697 89.891C97.8206 89.7511 97.866 89.6042 97.9136 89.4614L98.0466 89.0433C98.0814 88.9086 98.1123 88.7822 98.1356 88.6711C98.1798 88.5309 98.196 88.3834 98.1833 88.2369C98.1606 88.1969 97.9678 89.0886 97.8252 89.5228C98.0953 88.5913 98.2476 87.6297 98.2785 86.6604C98.2785 86.4515 98.2509 86.4091 98.1964 86.5733C98.1691 86.6555 98.1346 86.7895 98.0926 86.98L98.023 87.3084C97.9927 87.4319 97.9588 87.57 97.9211 87.7226C98.1241 86.7299 98.23 85.7197 98.2371 84.7065C98.2359 84.7087 98.235 84.7112 98.2345 84.7137C98.2236 84.9436 98.2092 85.2589 98.1947 85.5676C98.1655 85.8764 98.1363 86.1805 98.1162 86.3927L98.1796 85.6084L98.2046 84.8201C98.1856 84.9039 98.1639 84.9965 98.1412 85.0937C98.1228 85.4846 98.0778 85.8741 98.0427 86.2797C98.0676 85.9349 98.1084 85.59 98.1084 85.2415C98.064 85.5003 97.9977 85.7946 97.932 86.1155C97.7539 87.1169 97.5061 88.1046 97.1904 89.0715C96.4577 91.6154 95.1292 93.948 93.315 95.8759C91.5009 97.8038 89.2533 99.2715 86.7586 100.157L86.7599 100.159Z" fill="#073F45"/>
<path d="M66.1968 67.804C66.2188 67.7586 66.1512 67.6765 66.2954 67.7107C66.7378 67.8421 67.015 68.1377 67.4577 68.2661L67.5192 68.2037L68.4943 68.7312L69.4662 69.1046L69.952 69.2866L70.0735 69.3316H70.0823L70.1037 69.3296C70.1221 69.3053 70.1365 69.2823 70.153 69.2767C70.2032 69.2741 70.2282 69.3148 70.2535 69.3345H70.2942L70.4062 69.3119C70.4237 69.319 70.4382 69.3322 70.4469 69.349C70.5455 69.3618 70.6653 69.3818 70.8141 69.4147C70.8381 69.4803 70.7406 69.5963 70.49 69.7707C70.4272 69.814 70.355 69.8617 70.2728 69.9126L70.24 69.932L70.1645 69.9681L70.0124 70.04L69.7069 70.1845L68.4608 70.7718C68.0466 71.0057 67.6318 71.2395 67.2193 71.4287C66.6015 71.6914 65.7807 71.9404 65.1642 72.1592C65.358 72.3927 63.9125 73.0788 64.3102 73.2401C63.8993 73.3862 63.2825 73.6053 63.2792 73.693C63.2691 73.9558 63.052 74.3354 62.018 74.8754C61.6051 75.0653 60.9171 75.2121 60.7847 75.3139C60.5761 75.4745 61.3949 75.2699 61.1864 75.4305C64.3723 74.3394 67.3763 73.1107 70.5553 71.9309L70.7524 71.8379L70.8838 71.7801L70.9912 71.7358L71.1432 71.675L72.6423 71.0838L76.7344 69.5125L70.1517 66.8478C68.9288 66.3486 67.8808 65.9118 67.327 65.6654L67.1575 65.5997C66.1369 65.1518 65.0909 64.7641 64.0248 64.4387C63.6077 64.3402 63.1781 64.2528 62.7514 64.1635C62.9179 64.2827 63.0707 64.3963 63.2014 64.5001C62.8886 64.3478 62.5611 64.2277 62.2239 64.1418C61.3178 63.9023 61.7503 64.2347 62.0072 64.5507C62.2124 64.7274 61.8413 64.7149 62.1809 64.9494L61.5122 64.664C61.4505 64.7264 62.3566 64.9658 62.1195 65.0118C61.8725 64.8768 61.5638 64.8039 61.2984 64.6896C61.3496 64.8295 62.2138 65.11 62.1313 65.1931C61.977 65.157 61.4321 64.7468 61.3289 64.8506C61.3082 64.8716 61.5759 64.9856 61.7093 65.0427C60.8658 64.7412 60.3607 64.6732 61.0603 65.1196C60.7995 65.0082 60.4503 64.8029 60.1659 64.7064V64.709C60.3025 64.7701 60.5308 64.8939 60.6586 64.9481L60.1889 64.7474C60.2063 64.7753 60.2273 64.8039 60.25 64.8335C60.3619 64.899 60.4774 64.958 60.5962 65.0102L60.2841 64.8768C60.3527 64.9567 60.4259 65.0324 60.5035 65.1035C60.7737 65.316 61.0572 65.5111 61.3522 65.6874C62.9554 66.4166 64.5733 67.1283 66.1968 67.804Z" fill="#073F45"/>
<path d="M95.0952 76.6073L94.9011 76.6293L95.3753 76.5587C95.5337 76.5294 95.6907 76.4848 95.8509 76.4506C96.1718 76.3761 96.4882 76.2837 96.7988 76.1741C96.0773 76.3239 95.3461 76.4227 94.6107 76.4697C94.2494 76.4723 93.9052 76.5252 93.5748 76.5383C93.4106 76.5501 93.2464 76.5836 93.091 76.604C92.9368 76.6209 92.7842 76.6497 92.6345 76.6901C92.6157 76.6191 92.5165 76.5511 92.3835 76.4769C92.2358 76.3863 92.0813 76.3072 91.9214 76.2404C91.7546 76.1777 91.5992 76.0943 91.478 76.0433C91.3568 75.9924 91.2721 75.9662 91.2596 75.9776C91.19 75.9645 91.119 75.9537 91.0497 75.9369L90.8457 75.8712L90.4329 75.7333C89.5347 75.3629 88.7441 74.7727 88.1338 74.0168C87.4871 73.2208 87.0311 72.2874 86.8006 71.2881C86.5831 70.4156 86.5189 69.512 86.6108 68.6175C86.6183 68.4859 86.6365 68.3552 86.6653 68.2266L86.7352 67.844C86.7835 67.5927 86.8719 67.3582 86.9323 67.1336C87.0551 66.7673 87.2127 66.4136 87.403 66.0773C87.4784 65.9294 87.5623 65.7859 87.6542 65.6477C87.5965 65.7198 87.5451 65.7967 87.5005 65.8776L87.3593 66.1177C87.5733 65.4907 87.8819 64.9002 88.2743 64.3664C88.1437 64.4175 88.0254 64.4959 87.9275 64.5963C87.9964 64.5119 88.07 64.4315 88.1479 64.3552C88.2464 64.1597 88.3677 63.9765 88.5092 63.8094C88.6829 63.6271 88.8652 63.4481 88.9716 63.319C88.9651 63.3656 89.0081 63.344 89.0803 63.3003C89.1526 63.2566 89.2544 63.1909 89.3477 63.1269L89.2531 63.1505C89.9507 62.6153 90.7308 62.1972 91.5627 61.9126C91.6389 61.884 91.721 61.8749 91.8015 61.8863L92.1526 61.7733C92.2687 61.7315 92.3877 61.6986 92.5087 61.6748C92.4679 61.7589 93.1215 61.6498 92.7832 61.75C92.9142 61.7052 93.0485 61.671 93.1849 61.6475L93.5958 61.6094C93.8694 61.5743 94.1394 61.5858 94.4068 61.5529C95.3777 61.6095 96.331 61.8374 97.2225 62.2263C98.1407 62.6286 98.9807 63.19 99.7036 63.8846L99.6915 63.8287L100.077 64.1818L100.438 64.5622C100.698 64.854 100.914 65.183 101.077 65.5383C101.167 65.6671 101.262 65.8132 101.359 65.9633C101.456 66.1134 101.526 66.2786 101.608 66.4271C101.72 66.6621 101.851 66.8867 102.002 67.0984C102.052 67.2787 102.108 67.4288 102.144 67.5694C102.18 67.71 102.212 67.8374 102.243 67.9636C102.274 68.0897 102.313 68.2181 102.343 68.36C102.364 68.5029 102.386 68.6602 102.405 68.8458C102.44 68.7472 102.473 68.9279 102.504 69.0885C102.534 69.2491 102.548 69.3765 102.581 69.2028C102.664 68.6957 102.579 68.671 102.631 68.2342L102.606 68.25C102.488 66.1753 101.609 64.2169 100.139 62.7488C99.8675 62.5278 99.609 62.2837 99.3091 62.0824C99.1627 61.9779 99.0201 61.8659 98.8694 61.7648L98.4023 61.4794L98.1675 61.3365L97.9205 61.215L97.4252 60.9742C97.2557 60.9036 97.082 60.8445 96.9105 60.7811C96.7414 60.714 96.5679 60.6586 96.3912 60.6152L95.8174 60.4802C95.6256 60.4329 95.4256 60.4221 95.2295 60.3925C94.8393 60.3434 94.446 60.3224 94.0527 60.3298C93.8604 60.3297 93.6683 60.3407 93.4773 60.3626C93.2887 60.3824 93.1018 60.3876 92.9215 60.4211L92.3937 60.5242L92.1408 60.5755L91.9004 60.6487C91.7663 60.6927 91.6279 60.7221 91.4875 60.7364C91.3565 60.7446 91.2262 60.7628 91.098 60.7909C90.7941 60.9004 90.4961 61.0253 90.2049 61.165L89.7422 61.3927C89.5878 61.4738 89.4413 61.5726 89.2886 61.6636C88.6843 62.0344 88.1308 62.4822 87.6421 62.9958C87.657 62.9791 87.6734 62.9639 87.691 62.9501C87.4509 63.2224 87.2157 63.4382 87.0065 63.6757L86.7014 64.0458L86.548 64.2429L86.413 64.4659C86.434 64.4748 86.3776 64.57 86.3598 64.6219C86.2797 64.6416 85.7719 65.5794 85.5216 66.611C85.3643 67.3404 85.2716 68.0823 85.2447 68.828C85.2447 68.9009 85.2447 68.9762 85.2447 69.0524C85.1462 70.5123 85.3728 72.1095 85.9867 73.264L86.1135 73.4411L86.257 73.6096C86.3519 73.7199 86.4439 73.824 86.5283 73.9084C86.6052 74.1278 86.705 74.1137 86.8568 74.3354C86.9094 74.4837 86.9728 74.628 87.0466 74.767C87.096 74.8575 87.1574 74.941 87.2292 75.015C87.3304 75.1188 87.3682 75.1 87.2762 74.943C87.6472 75.346 88.0468 75.7215 88.4721 76.0667C88.6691 76.1941 88.8626 76.3228 89.0633 76.4434C89.1938 76.4989 89.3046 76.5924 89.3812 76.7117C89.8348 76.9538 89.6768 76.9203 90.156 77.1765C90.2267 77.2338 90.3075 77.2775 90.3941 77.3052C90.5443 77.3598 90.6979 77.4046 90.854 77.4392L91.3207 77.5539C91.4136 77.5651 91.5055 77.5836 91.5956 77.609L91.5079 77.5975C92.023 77.8021 92.5564 77.9571 93.1009 78.0603C93.9773 78.1541 94.863 78.1124 95.7268 77.9365C96.5555 77.7457 97.3578 77.4544 98.1159 77.0691C98.0942 76.9942 97.8072 77.2376 97.7458 77.1538C98.616 76.7839 99.4196 76.2735 100.124 75.643C100.271 75.5477 100.432 75.4101 100.506 75.3707C100.734 75.1628 100.6 75.2117 100.758 75.0524L100.832 75.0751C101.002 74.7903 101.187 74.7414 101.357 74.4753C101.343 74.4448 101.412 74.3541 101.474 74.2632C101.539 74.2993 101.647 73.9676 101.696 74.0188L101.693 74.0132C101.725 73.9555 101.762 73.9006 101.803 73.849L101.897 73.601C101.943 73.4762 101.983 73.312 102.03 73.153L102.153 72.7086C102.179 72.5792 102.193 72.481 102.197 72.4488L102.23 72.3982C102.288 72.234 102.263 72.1457 102.215 72.236L102.291 72.0369L102.288 72.0616L102.364 71.8645C102.384 71.83 102.426 71.7959 102.442 71.8645C102.446 71.7372 102.47 71.6113 102.512 71.4911C102.374 71.8346 102.201 72.163 101.996 72.4712C102.021 72.3293 102.146 72.1033 102.191 71.9558C102.334 71.7037 102.451 71.4375 102.54 71.1613C102.548 71.0956 102.49 71.0378 102.546 70.8986C102.612 70.8381 102.57 70.7343 102.629 70.619C102.631 70.761 102.612 70.9026 102.573 71.0391C102.652 71.0306 102.674 70.7021 102.713 70.5928C102.699 70.5366 102.766 70.2643 102.768 70.0883C102.828 70.171 102.817 69.9513 102.857 69.8492C102.87 69.7306 102.848 69.6521 102.824 69.7004C102.756 69.659 102.758 70.1658 102.692 69.996C102.727 69.8676 102.74 69.7345 102.732 69.6018C102.694 69.5989 102.699 69.6846 102.666 69.6018C102.681 69.4655 102.642 69.3207 102.686 69.2432C102.691 69.2836 102.69 69.3246 102.683 69.3647C102.697 69.1791 102.883 70.35 102.872 70.1201C102.837 70.1704 102.698 69.0809 102.689 69.2054C102.665 69.3128 102.623 69.1286 102.604 69.2383L102.645 69.3621C102.623 69.5142 102.553 69.5733 102.529 69.5194C102.549 69.2606 102.753 70.2591 102.726 70.0406C102.72 70.0703 102.711 70.0996 102.701 70.1283C102.677 69.9821 102.683 69.8322 102.72 69.6886C102.683 69.6859 102.675 69.5598 102.667 69.456L102.675 69.4196C102.661 69.3122 102.677 69.1627 102.624 69.232C102.612 69.5447 102.52 69.4376 102.427 69.3335C102.333 69.2294 102.234 69.1282 102.209 69.4156C102.304 69.1742 102.29 69.4994 102.287 69.7569C102.225 69.8511 102.188 69.9589 102.177 70.0709C102.16 70.2282 102.194 70.1668 102.21 70.199C102.177 70.284 102.137 70.4483 102.097 70.42C102.13 70.5514 102.034 70.6089 102.031 70.7573C102.035 70.8887 102.055 70.7527 102.065 70.849C102.018 71.0388 101.938 71.3019 101.89 71.45C101.836 71.498 101.721 71.6514 101.693 71.5058C101.774 71.227 101.766 71.6428 101.828 71.3446C101.705 71.4467 101.87 71.0772 101.815 71.0083C101.739 71.1409 101.69 71.2871 101.671 71.4385L101.691 71.4106C101.668 71.6059 101.601 71.7933 101.494 71.9588C101.476 71.9135 101.429 71.968 101.457 71.8675L101.385 72.0481C101.385 72.075 101.387 72.103 101.414 72.0527C101.404 72.1387 101.371 72.2204 101.318 72.2892C101.285 72.2915 101.007 73.2982 100.977 73.2515C100.904 73.3744 100.841 73.3764 100.799 73.5143C100.84 73.4593 100.873 73.3997 100.899 73.3366C100.971 73.205 101.032 73.0683 101.083 72.9277C101.192 72.6268 101.288 72.35 101.253 72.435C101.203 72.5224 101.162 72.6148 101.131 72.7106C101.072 72.8866 101.002 73.0589 100.922 73.2266C100.836 73.4066 100.749 73.5879 100.677 73.7245C100.635 73.8111 100.576 73.8886 100.504 73.9528C100.443 74.0388 100.372 74.1456 100.415 74.1472C100.294 74.2786 100.393 74.0631 100.291 74.1446C100.294 74.1502 100.311 74.1472 100.286 74.1774L100.179 74.2464C100.097 74.3844 99.9968 74.51 99.88 74.6195C99.767 74.738 99.6632 74.8648 99.5693 74.9989C99.6072 74.8738 99.6574 74.7528 99.7191 74.6376L99.7542 74.6268C99.7637 74.5998 99.856 74.4803 99.8265 74.4599C99.6979 74.5696 99.5871 74.6986 99.498 74.8422C99.4652 74.858 99.4323 74.8777 99.4044 74.8882C99.408 74.8912 99.4129 74.8918 99.4162 74.8964C99.3568 74.9204 99.3591 74.9135 99.3656 74.8888C99.3659 74.884 99.3672 74.8792 99.3693 74.8747C99.2185 74.8682 98.9216 75.3878 98.6207 75.5208C98.555 75.5865 98.6243 75.5402 98.5432 75.6256L98.3461 75.7372C98.2805 75.7701 98.2174 75.7957 98.155 75.8253C98.0289 75.8827 97.9031 75.9428 97.7549 76.019C97.686 76.1136 97.6863 76.1343 97.8206 76.1071C97.7469 76.1495 97.67 76.1862 97.5907 76.2171C97.7408 76.0125 97.1151 76.3192 97.2899 76.1034C97.1715 76.1277 97.0595 76.1767 96.9614 76.2473C96.9614 76.2802 96.9614 76.3396 96.7972 76.3974C96.5535 76.4437 96.6133 76.4375 96.4116 76.4706C96.3544 76.45 96.4182 76.4102 96.4001 76.3836C96.1288 76.5406 96.1216 76.3892 95.8486 76.4697C95.6785 76.5268 95.3366 76.6191 95.3379 76.6766C95.0873 76.7153 95.0801 76.6657 95.0952 76.6073Z" fill="#073F45"/>
<path d="M97.547 65.7949L97.6015 65.8678C97.5621 65.8254 97.5046 65.762 97.433 65.6947C97.7797 66.0786 98.079 66.5028 98.3244 66.9582C98.5444 67.3882 98.7165 67.8412 98.8374 68.3088C98.8596 68.5019 98.8942 68.6933 98.9412 68.8819C98.9685 68.9079 98.9682 68.6895 98.9278 68.3926C98.9242 68.3269 98.9071 68.2513 98.9002 68.204C98.8344 67.6934 98.6803 67.1982 98.4446 66.7405C98.4978 66.8416 98.5435 66.9466 98.5813 67.0545C98.516 66.8928 98.4383 66.7365 98.349 66.5868L98.3707 66.6492C98.3379 66.5835 98.305 66.5158 98.2653 66.4485L98.1339 66.2485L97.994 66.0465L97.8344 65.8609C97.7374 65.7435 97.6304 65.6348 97.5145 65.5361C97.4245 65.4544 97.3302 65.3777 97.232 65.3061C97.0615 65.1984 96.9968 65.1787 97.0277 65.2313C97.0586 65.2838 97.19 65.4017 97.3788 65.6116C97.4343 65.6727 97.4921 65.7312 97.547 65.7949Z" fill="#073F45"/>
<path d="M98.0718 66.6935C97.9167 66.4122 97.736 66.1458 97.5319 65.8977L97.4961 65.8451L97.4859 65.8832L97.4915 65.8865C97.7928 66.1725 98.0477 66.5037 98.2469 66.8682L98.3293 67.0082C98.3495 67.0528 98.3746 67.095 98.4042 67.134C98.4298 67.1645 98.3999 67.0203 98.2919 66.8351L98.1733 66.6186C98.1037 66.485 97.9996 66.347 97.901 66.1976C97.7959 66.053 97.6685 65.9167 97.5529 65.7827C97.4261 65.6592 97.299 65.5476 97.189 65.4543C97.0958 65.3833 96.9976 65.3189 96.8953 65.2618C96.8296 65.226 96.8707 65.2792 96.8743 65.3009C96.8589 65.3025 96.8924 65.341 96.9581 65.4021C97.0238 65.4632 97.1223 65.5446 97.2251 65.65C97.4435 65.8471 97.613 66.0333 97.6435 66.035L97.7385 66.1526L97.6554 66.0675C97.7155 66.1176 97.7706 66.1736 97.8196 66.2347L98.0147 66.4905C98.0744 66.5716 98.1286 66.6565 98.1769 66.7448L98.1356 66.5697C98.1057 66.526 98.0718 66.4846 98.0403 66.4419L98.0548 66.4725C97.9605 66.3542 97.8787 66.2327 97.7772 66.1227C97.6757 66.0126 97.5749 65.898 97.458 65.7831L97.1473 65.5124C97.0563 65.4467 97.0576 65.4638 97.1413 65.5515L97.2652 65.6829L97.2103 65.6218C97.5151 65.9148 97.7807 66.246 98.0006 66.6071C98.0334 66.662 98.0722 66.7316 98.0938 66.7582C98.1155 66.7848 98.1027 66.7533 98.0718 66.6935Z" fill="#073F45"/>
<path d="M97.1315 65.5745C97.0795 65.519 97.0222 65.4687 96.9604 65.4244L96.9252 65.4023L97.0238 65.4897C97.0954 65.5501 97.1282 65.5846 97.1315 65.5745Z" fill="#073F45"/>
<path d="M96.926 65.4025L96.8845 65.3656L96.9107 65.3922L96.9194 65.3985L96.926 65.4025Z" fill="#073F45"/>
<path d="M89.191 70.6999C88.9971 70.072 88.9299 69.4119 88.9933 68.7578C89.0568 68.1038 89.2495 67.4688 89.5605 66.8899C89.5746 66.8658 89.5857 66.84 89.5933 66.813C89.5777 66.8318 89.5652 66.8528 89.5562 66.8755C89.2436 67.454 89.049 68.0888 88.9837 68.7431C88.9184 69.3974 88.9835 70.0582 89.1755 70.6871C89.1836 70.7151 89.1946 70.7422 89.2084 70.7679C89.2067 70.7444 89.2008 70.7213 89.191 70.6999Z" fill="#073F45"/>
<path d="M94.3962 64.5904C94.3666 64.5904 94.3676 64.594 94.3962 64.5983L94.4964 64.6111C94.5207 64.6127 94.5203 64.6088 94.4964 64.6029C94.4637 64.5944 94.43 64.5902 94.3962 64.5904Z" fill="#073F45"/>
<path d="M94.1223 64.8178C93.9704 64.8126 93.8183 64.8192 93.6674 64.8375C93.6418 64.8394 93.6129 64.8401 93.5912 64.8394C93.601 64.8447 93.5705 64.8476 93.5123 64.8588C92.9255 64.9343 92.3591 65.124 91.8452 65.4172C91.3214 65.7158 90.8663 66.1211 90.509 66.6068C90.504 66.6234 90.4967 66.6392 90.4874 66.6538L90.2673 67.0114L90.1957 67.1195C89.9345 67.5735 89.7584 68.0714 89.6761 68.5886C89.6614 68.7094 89.6527 68.8309 89.6501 68.9526C89.6377 69.406 89.6963 69.8586 89.8239 70.2939C89.8209 70.265 89.8213 70.247 89.8255 70.246C89.8585 70.3182 89.8863 70.3926 89.909 70.4687L89.9678 70.6447C89.909 70.4772 89.8623 70.3058 89.8278 70.1317L89.814 70.0624C89.7904 69.9675 89.7739 69.871 89.7648 69.7737C89.7549 69.6751 89.7319 69.5786 89.7319 69.4781C89.6744 68.6323 89.8668 67.7883 90.2851 67.0509C90.7034 66.3136 91.3291 65.7154 92.0846 65.3308C92.1126 65.3164 92.1416 65.304 92.1713 65.2937C92.1871 65.2897 92.1861 65.2937 92.1585 65.3075C91.7128 65.5378 91.3123 65.8466 90.9761 66.2189C90.6224 66.6079 90.341 67.0569 90.1451 67.5448C89.896 68.1714 89.7998 68.8483 89.8646 69.5195C89.9389 70.1894 90.1736 70.8316 90.5488 71.3916C90.9282 71.973 91.4557 72.4427 92.077 72.7524L92.307 72.8627C92.3851 72.8956 92.4672 72.9209 92.5474 72.9507C92.7089 73.0082 92.8741 73.0552 93.0417 73.0913C93.5864 73.2065 94.1492 73.206 94.6937 73.0899C95.2382 72.9739 95.7523 72.7448 96.2027 72.4176C96.6532 72.0904 97.0299 71.6723 97.3086 71.1903C97.5873 70.7083 97.7617 70.1733 97.8206 69.6196C97.8882 68.92 97.767 68.2799 97.8065 68.1722C97.8295 68.1094 97.9089 68.2572 97.9887 68.5515C97.9819 68.4919 97.971 68.4329 97.9559 68.3748L97.9004 68.095C97.8613 67.9662 97.8275 67.845 97.8019 67.738C97.769 67.6329 97.7362 67.5442 97.7178 67.4719C97.7009 67.4058 97.6803 67.3407 97.656 67.2768C97.5495 66.9766 97.4149 66.687 97.254 66.412L97.303 66.4383L97.2721 66.3933C97.2022 66.3001 97.1387 66.2022 97.0822 66.1003L97.1121 66.0954C97.2048 66.1266 97.2886 66.1798 97.3562 66.2504C97.3608 66.2396 97.3801 66.2468 97.4127 66.2701C97.347 66.1565 97.3269 66.0918 97.4159 66.1512C97.37 66.0856 97.3864 66.0895 97.4521 66.1568L97.5276 66.2389C97.502 66.1999 97.4948 66.1884 97.4642 66.1404L97.386 66.0419C97.3004 65.9431 97.2099 65.8487 97.1148 65.7591L96.988 65.6221L96.9387 65.5748C96.8287 65.4339 96.8274 65.4333 96.8609 65.4352L96.8911 65.452L96.7469 65.3288L96.6976 65.2818C96.6976 65.2697 96.6976 65.2697 96.6815 65.252C96.6776 65.2441 96.6815 65.2421 96.6815 65.2421C96.7512 65.2818 96.7512 65.2818 96.7544 65.2805L96.7932 65.3035L96.9124 65.3892L97.0543 65.5331C97.0944 65.5528 97.0934 65.5545 97.0934 65.5545L97.1193 65.5958L97.1075 65.5696L97.1765 65.6445L97.099 65.5574L97.3397 65.7916C97.3879 65.8353 97.4336 65.8815 97.4767 65.9302C97.4737 65.9217 97.4767 65.9194 97.4767 65.9194C97.638 66.1191 97.6475 66.1118 97.7927 66.3135L97.8206 66.3657C97.8467 66.3971 97.871 66.43 97.8932 66.4643L97.9664 66.5726L97.9835 66.5946C98.0063 66.6236 98.0272 66.6541 98.0459 66.686L98.0584 66.705C98.0952 66.7707 98.1658 66.859 98.3044 67.1172L98.3878 67.3195L98.3668 67.2591C98.3537 67.2203 98.3776 67.2506 98.3694 67.2299C98.1495 66.6867 97.8295 66.1897 97.4261 65.7647C97.3697 65.7152 97.3184 65.6602 97.2731 65.6004C97.2685 65.5847 97.3289 65.6333 97.4094 65.7082C97.8956 66.158 98.2769 66.7094 98.5261 67.3231C98.7794 67.944 98.8945 68.6125 98.8634 69.2823L98.8233 69.775C98.7941 69.9392 98.7691 70.1018 98.7343 70.2637C98.7402 70.2489 98.7454 70.2338 98.7498 70.2184C98.7284 70.3015 98.7021 70.3826 98.6785 70.4657L98.6709 70.4927L98.7366 70.3084C98.7509 70.2655 98.7618 70.2216 98.7695 70.177C98.9242 69.4483 98.9217 68.6949 98.7619 67.9672C98.7228 67.7702 98.6568 67.5912 98.6085 67.4115C98.5428 67.2384 98.4791 67.0647 98.3973 66.8902C98.35 66.8032 98.3215 66.7398 98.3336 66.7467C98.3754 66.7999 98.4117 66.8572 98.4417 66.9178C98.7483 67.5124 98.9273 68.1645 98.9672 68.8324C99.0074 69.4328 98.9241 70.035 98.7225 70.602C98.6619 70.8079 98.585 71.0087 98.4926 71.2024L98.4877 71.2116C98.5117 71.1704 98.5337 71.128 98.5533 71.0845C98.4958 71.2144 98.43 71.3405 98.3563 71.4619L98.4003 71.4182C98.2013 71.8089 97.9541 72.1731 97.6642 72.5021C97.5191 72.6626 97.3633 72.813 97.1979 72.9524L96.9548 73.1495L96.7012 73.3156L96.6254 73.3662C96.4891 73.4687 96.3373 73.5498 96.1843 73.6451C96.0157 73.7335 95.8429 73.8134 95.6663 73.8845C95.796 73.8392 95.9179 73.7817 96.0453 73.7295C95.7759 73.8659 95.4931 73.9743 95.2016 74.053C94.7863 74.1599 94.3581 74.2084 93.9295 74.1969C93.7446 74.1893 93.5603 74.1719 93.3774 74.1446C93.2131 74.1134 93.0755 74.075 92.9678 74.0461C92.1601 73.89 91.4038 73.536 90.7664 73.016C90.129 72.496 89.6305 71.826 89.3155 71.0661C89.2883 71.0139 89.2699 70.9575 89.2609 70.8993C89.2655 70.8884 89.2829 70.9416 89.3181 71.0178C89.7747 72.1153 90.6079 73.0138 91.6678 73.5518C90.784 73.0838 90.0626 72.3592 89.5986 71.4734C89.5364 71.3606 89.4807 71.2444 89.4317 71.1252L89.3559 70.9502L89.2987 70.7692C88.8875 69.5499 88.9685 68.2183 89.5244 67.0578C89.7528 66.5692 90.0623 66.1228 90.4397 65.7374C90.8958 65.264 91.4423 64.8871 92.0468 64.6288C92.6512 64.3705 93.3014 64.2362 93.9587 64.2338C94.7324 64.2322 95.4952 64.4156 96.1836 64.7688C96.3161 64.825 96.4377 64.9041 96.5429 65.0023C96.5548 65.0312 96.4244 64.9537 96.2394 64.8582C95.5188 64.4851 94.7167 64.2967 93.9053 64.3099C93.0939 64.3232 92.2984 64.5376 91.5903 64.934C90.8786 65.3286 90.2786 65.8971 89.8462 66.5864L89.6856 66.8466L89.5506 67.1221C89.2801 67.6825 89.1237 68.2911 89.0908 68.9125C89.068 69.2681 89.0845 69.6251 89.1401 69.977C89.1401 69.9724 89.143 69.9678 89.145 69.9675C89.1535 69.9675 89.1637 69.9987 89.1798 70.0525C89.1135 69.657 89.0968 69.2547 89.1302 68.855C89.1783 67.8874 89.5294 66.9593 90.1339 66.2022C90.7385 65.4451 91.5658 64.8972 92.4988 64.6361C93.4215 64.3407 94.4118 64.3303 95.3405 64.6062C95.3709 64.613 95.4002 64.6241 95.4275 64.6391C95.4397 64.6466 95.4193 64.6424 95.3822 64.6296C94.7298 64.44 94.045 64.3893 93.3718 64.4808C93.4798 64.4765 93.5442 64.4808 93.536 64.4955C93.4699 64.5294 93.398 64.5507 93.3242 64.5583L93.5511 64.5307L93.781 64.5238C93.8358 64.5178 93.8912 64.5204 93.9452 64.5313C93.8912 64.5457 93.8353 64.5517 93.7794 64.5491C93.1596 64.5662 92.5494 64.7061 91.9841 64.9606C91.3081 65.2708 90.7185 65.7423 90.2673 66.3335C90.3142 66.279 90.3668 66.2296 90.4243 66.1864L90.6585 65.9394C91.4078 65.1657 92.4061 64.6813 93.4776 64.5714C94.549 64.4615 95.6249 64.7332 96.5157 65.3387C96.5387 65.3509 96.5599 65.3665 96.5784 65.385C96.5558 65.3776 96.5346 65.3665 96.5157 65.3521C95.976 64.9838 95.3634 64.736 94.7194 64.6256H94.722C94.7476 64.6318 94.7516 64.6361 94.722 64.6338C94.6883 64.6304 94.6549 64.625 94.6218 64.6177C94.5926 64.6105 94.5959 64.6075 94.6202 64.6095C93.425 64.4311 92.2077 64.7329 91.2342 65.449C92.1287 64.8029 93.228 64.5052 94.3262 64.6118C94.4459 64.6163 94.5651 64.6281 94.6833 64.6473C94.7127 64.6512 94.7418 64.6574 94.7703 64.6657C94.7788 64.67 94.7545 64.6693 94.721 64.6657L94.6225 64.6525C94.7243 64.6703 94.814 64.6877 94.8764 64.7048C94.9381 64.7268 94.9749 64.7439 94.9703 64.7517C94.9284 64.7559 94.886 64.7527 94.8452 64.7422C94.7733 64.736 94.6777 64.7235 94.5732 64.7061C94.0131 64.6276 93.4433 64.6528 92.8922 64.7803L92.7146 64.8237C92.6558 64.8414 92.5993 64.866 92.5421 64.8867C92.9588 64.7555 93.3928 64.6881 93.8296 64.6867C94.263 64.6799 94.6949 64.7388 95.1106 64.8614C95.1564 64.87 95.2007 64.8854 95.242 64.9071C95.1972 64.9066 95.1528 64.8987 95.1106 64.8838C94.3726 64.6909 93.5979 64.6883 92.8587 64.8763C92.1195 65.0642 91.44 65.4365 90.8838 65.9584C90.5395 66.3217 90.2562 66.7383 90.0449 67.1921C90.0715 67.1342 90.102 67.0783 90.1363 67.0246C90.522 66.3517 91.0721 65.7877 91.7351 65.3853C92.3943 64.9824 93.1504 64.7657 93.9229 64.7583C93.9492 64.7549 93.9759 64.7562 94.0017 64.7622C94.006 64.7652 93.9788 64.7662 93.938 64.7685C93.1815 64.779 92.441 64.9877 91.7903 65.3738C91.2642 65.6786 90.8098 66.0931 90.4581 66.5891C90.8097 66.1138 91.2539 65.7145 91.7638 65.4154C92.2737 65.1162 92.8389 64.9233 93.4253 64.8483C93.4708 64.8409 93.5166 64.8359 93.5626 64.8335C93.572 64.8305 93.5817 64.8288 93.5915 64.8286C93.7508 64.8116 93.9109 64.803 94.071 64.8026C94.1009 64.803 94.1307 64.8059 94.1601 64.8115C94.1761 64.8155 94.1551 64.8184 94.1223 64.8178ZM98.6522 69.0803L98.6548 69.0475C98.6548 69.0826 98.6548 69.1204 98.6522 69.1621C98.6485 69.2154 98.641 69.2685 98.6299 69.3208C98.6349 69.2961 98.638 69.271 98.6391 69.2459C98.6414 69.2009 98.646 69.1408 98.6509 69.0807L98.6522 69.0803ZM98.1083 67.1891C98.0945 67.1379 98.0827 67.1011 98.0827 67.1011C98.0945 67.1369 98.1001 67.1661 98.1073 67.1891H98.1083ZM90.8825 73.0135C91.4324 73.4501 92.0658 73.7698 92.7438 73.9528C92.5772 73.9156 92.4132 73.8672 92.2531 73.808C91.7526 73.6267 91.2885 73.3576 90.8825 73.0135ZM98.5159 67.7353C98.5556 67.8848 98.5811 68.0376 98.5921 68.1919L98.6355 68.3706C98.6433 68.4323 98.6516 68.4947 98.6601 68.5578C98.6704 68.6425 98.6806 68.7267 98.6906 68.8103C98.6959 68.8944 98.6959 68.9785 98.6982 69.0619C98.7005 69.1454 98.7038 69.2281 98.7011 69.3106L98.6824 69.5566C98.6936 69.5145 98.6877 69.593 98.686 69.6331L98.6795 69.7563C98.6929 69.5822 98.7123 69.4075 98.7179 69.2308C98.7208 69.0532 98.7146 68.8756 98.6992 68.6987C98.67 68.3723 98.6082 68.0497 98.5146 67.7357L98.5159 67.7353ZM97.1929 65.7016L97.1732 65.6786L97.2294 65.7147L97.1929 65.7016ZM97.1039 65.6464L97.1391 65.6819C97.1235 65.6742 97.1107 65.6619 97.1023 65.6468L97.1039 65.6464ZM97.3387 66.458C97.3913 66.4849 97.4418 66.5156 97.4898 66.55C97.4398 66.5109 97.3868 66.4759 97.3312 66.4452L97.3387 66.458Z" fill="#073F45"/>
<path d="M93.9617 72.8397C95.9912 72.8397 97.6364 71.1945 97.6364 69.165C97.6364 67.1356 95.9912 65.4904 93.9617 65.4904C91.9322 65.4904 90.287 67.1356 90.287 69.165C90.287 71.1945 91.9322 72.8397 93.9617 72.8397Z" fill="#073F45"/>
<path d="M98.3268 68.1241L99.832 67.9514C99.9575 67.9469 100.08 67.9905 100.174 68.0732C100.269 68.156 100.328 68.2717 100.34 68.3967C100.37 68.5224 100.353 68.6547 100.293 68.7689C100.232 68.8831 100.132 68.9714 100.012 69.0172L98.4913 69.165L98.3268 68.1241Z" fill="#073F45"/>
</svg>
