<svg width="163" height="179" viewBox="0 0 163 179" fill="none" xmlns="http://www.w3.org/2000/svg">
<path d="M39.9477 91.6988C51.9872 91.5729 59.6058 107.13 71.6371 107.415C82.9271 107.674 90.8829 94.2994 102.178 94.105C114.878 93.8846 123.424 110.291 136.104 109.574C146.672 108.986 153.769 96.6015 164.351 96.1718C171.474 95.8863 177.426 101.112 183.258 105.216C191.893 111.289 202.409 111.816 210.438 104.332L215.037 100.038" stroke="#FBC654" stroke-width="2.99884" stroke-linecap="round" stroke-linejoin="round"/>
<path d="M183.833 47.3802L204.843 5.89074L55.9336 20.2415L74.683 43.5561C50.2647 58.7798 33.7454 84.4651 32.7043 114.18C31.6633 143.894 46.3444 170.674 69.6375 187.568L68.7888 211.794L177.939 215.618L178.787 191.394C203.206 176.17 219.727 150.485 220.768 120.77C221.809 91.0555 207.128 64.2755 183.833 47.3802Z" stroke="#FBC654" stroke-width="2.99884" stroke-linecap="round" stroke-linejoin="round"/>
<path d="M183.833 47.3802C165.884 51.7372 147.445 53.7477 128.978 53.3614C110.532 52.4541 92.2815 49.1582 74.6831 43.5561L21.4201 41.69C16.8633 41.5308 12.4299 43.188 9.09491 46.2973C5.75991 49.4065 3.79644 53.7131 3.63638 58.2698L2.23938 98.1442C2.20734 99.0409 2.35228 99.9352 2.66589 100.776C2.9795 101.617 3.45565 102.387 4.06715 103.044C4.67865 103.701 5.4135 104.23 6.22977 104.603C7.04603 104.976 7.92771 105.184 8.82444 105.216C10.6363 105.279 12.3991 104.62 13.7252 103.383C15.0513 102.147 15.8322 100.435 15.8961 98.6227L17.1943 61.568C17.2581 59.7336 18.0478 57.9997 19.3898 56.7475C20.7318 55.4952 22.5161 54.8272 24.3505 54.8902L57.8785 56.0649" stroke="#FBC654" stroke-width="2.99884" stroke-linecap="round" stroke-linejoin="round"/>
</svg>
