<svg width="178" height="196" viewBox="0 0 178 196" fill="none" xmlns="http://www.w3.org/2000/svg">
<g clip-path="url(#clip0_43_8)">
<path d="M70 177.858C65.2668 196.574 53.6301 211.217 37.1119 216.283C8.33346 225.112 -24.3728 201.539 -35.9362 163.627C-47.4995 125.714 -33.5441 87.8197 -4.75445 78.9899C8.86133 74.8101 23.3542 77.8862 36.0706 86.3081" stroke="#FEC459" stroke-width="3" stroke-linecap="round" stroke-linejoin="round"/>
<path d="M25.5565 218.136C38.3307 199.882 41.2204 173.769 23.7604 157.342C15.8371 149.888 5.04167 145.827 -2.1633 137.677C-17.7006 120.11 -10.5983 94.5223 2.60095 78.1356" stroke="#FEC459" stroke-width="3" stroke-linecap="round" stroke-linejoin="round"/>
<path d="M60 156.136C79.5857 151.001 97.1414 134.418 95.0795 112.404C94.1479 102.42 89.2308 93.0886 89.1974 83.0401C89.1242 61.3849 109.228 47.6992 128 44.1356" stroke="#FEC459" stroke-width="3" stroke-linecap="round" stroke-linejoin="round"/>
<path d="M141.405 120.457C156.356 86.7508 148.073 50.3766 122.905 39.2132C97.7372 28.0497 65.2146 46.3244 50.2639 80.0308C35.3132 113.737 43.5959 150.111 68.7639 161.275C93.9319 172.438 126.454 154.164 141.405 120.457Z" stroke="#FEC459" stroke-width="3" stroke-linecap="round" stroke-linejoin="round"/>
</g>
<defs>
<clipPath id="clip0_43_8">
<rect width="218" height="218.136" fill="white" transform="translate(-40)"/>
</clipPath>
</defs>
</svg>
