<svg width="108" height="163" viewBox="0 0 108 163" fill="none" xmlns="http://www.w3.org/2000/svg">
<path d="M162.057 68.2654C172.116 45.586 166.543 21.1116 149.609 13.6004C132.675 6.08908 110.792 18.3853 100.733 41.0647C90.673 63.7441 96.2459 88.2184 113.18 95.7297C130.114 103.241 151.997 90.9448 162.057 68.2654Z" stroke="#FEC459" stroke-width="3" stroke-linecap="round" stroke-linejoin="round"/>
<path d="M107.15 91.9633C120.429 88.5073 132.332 77.3473 130.933 62.5333C130.301 55.8133 126.968 49.5333 126.945 42.7723C126.895 28.1993 140.53 18.9893 153.253 16.5903" stroke="#FEC459" stroke-width="3" stroke-linecap="round" stroke-linejoin="round"/>
<path d="M114.345 106.85C111.145 119.462 103.281 129.327 92.1169 132.741C72.6669 138.691 50.5609 122.807 42.7459 97.2613C34.9309 71.7153 44.3669 46.1813 63.8209 40.2313C73.0209 37.4153 82.8209 39.4883 91.4209 45.1623" stroke="#FEC459" stroke-width="3" stroke-linecap="round" stroke-linejoin="round"/>
<path d="M84.4091 133.975C92.9941 121.731 94.9371 104.215 83.2021 93.1973C77.8771 88.1973 70.6211 85.4743 65.7781 80.0073C55.3351 68.2233 60.1081 51.0593 68.9781 40.0683" stroke="#FEC459" stroke-width="3" stroke-linecap="round" stroke-linejoin="round"/>
</svg>
